<?xml version="1.0" encoding="UTF-8" standalone="no"?>
<svg
   xmlns:dc="http://purl.org/dc/elements/1.1/"
   xmlns:cc="http://creativecommons.org/ns#"
   xmlns:rdf="http://www.w3.org/1999/02/22-rdf-syntax-ns#"
   xmlns:svg="http://www.w3.org/2000/svg"
   xmlns="http://www.w3.org/2000/svg"
   xmlns:sodipodi="http://sodipodi.sourceforge.net/DTD/sodipodi-0.dtd"
   xmlns:inkscape="http://www.inkscape.org/namespaces/inkscape"
   width="500"
   height="500"
   viewBox="0 0 500 500"
   version="1.1"
   id="svg26"
   sodipodi:docname="baltimore-ravens-logo.svg"
   inkscape:export-filename="C:\Users\alex\sites\baltimore-ravens-logo-0.png"
   inkscape:export-xdpi="786.43201"
   inkscape:export-ydpi="786.43201"
   inkscape:version="0.92.3 (2405546, 2018-03-11)">
  <metadata
     id="metadata32">
    <rdf:RDF>
      <cc:Work
         rdf:about="">
        <dc:format>image/svg+xml</dc:format>
        <dc:type
           rdf:resource="http://purl.org/dc/dcmitype/StillImage" />
        <dc:title></dc:title>
      </cc:Work>
    </rdf:RDF>
  </metadata>
  <defs
     id="defs30" />
  <sodipodi:namedview
     pagecolor="#ffffff"
     bordercolor="#666666"
     borderopacity="1"
     objecttolerance="10"
     gridtolerance="10"
     guidetolerance="10"
     inkscape:pageopacity="0"
     inkscape:pageshadow="2"
     inkscape:window-width="1600"
     inkscape:window-height="838"
     id="namedview28"
     showgrid="false"
     inkscape:zoom="0.6675088"
     inkscape:cx="251.47719"
     inkscape:cy="341.86446"
     inkscape:window-x="-8"
     inkscape:window-y="-8"
     inkscape:window-maximized="1"
     inkscape:current-layer="svg26" />
  <g
     id="g24"
     transform="matrix(0.83950891,0,0,0.83950891,41.828732,40.122772)"
     style="fill:none">
    <path
       d="M 0,0 H 500 V 500 H 0 Z"
       id="path2"
       inkscape:connector-curvature="0" />
  </g>
  <g
     transform="matrix(2.1855091,0,0,-2.1855091,-416.3561,1213.1837)"
     id="g8"
     inkscape:export-filename="C:\Users\alex\sites\baltimore-ravens-logo-3.png"
     inkscape:export-xdpi="414.62344"
     inkscape:export-ydpi="414.62344">
    <g
       transform="matrix(0.25,0,0,0.25,229.41,295.59)"
       id="g6">
      <path
         style="fill:#9a7611"
         inkscape:connector-curvature="0"
         d="m 705.89,42.906 c -37.767,0 -51.174,14.187 -51.174,26.33 0,9.7074 9.7742,18.836 25.49,23.842 0,0 33.795,10.932 34.627,11.207 0.156,0.0594 0.76367,0.28125 0.76367,0.28125 3.461,1.285 3.4609,1.5822 3.4609,2.377 0,3.8324 -7.9614,7.1973 -17.045,7.1973 -4.2409,0 -8.3489,-0.74232 -11.646,-2.0644 -0.7205,-0.47525 -18.285,-12.105 -18.285,-12.105 l -24.242,25.133 37.545,3.4082 c 5.6298,0.59425 12.233,0.91406 19.051,0.91406 51.218,0 56.744,-20.818 56.744,-29.768 0,-9.4548 -7.161,-16.89 -20.166,-20.908 l -39.29,-12.758 c -1.7528,-0.5645 -3.1575,-2.2065 -3.4102,-2.875 0.17837,-2.5104 6.1069,-4.5215 13.4,-4.5215 4.122,0 7.054,0.54798 9,1.6621 0.22275,0.1485 17.492,11.127 17.492,11.127 l 24.576,-23.961 -36.877,-3.4688 c -5.9862,-0.505 -12.938,-1.0469 -20.016,-1.0469 z m -649,1.537 c -7.0187,0.0445 -13.992,0.5805 -19.979,1.0781 -0.037,0.015 -36.906,3.469 -36.906,3.469 l 24.584,23.975 c 0,0 15.583,-9.923 15.828,-10.094 0.42335,-0.23025 1.0234,-0.39433 1.5879,-0.58008 v 49.719 c -2.5178,1.7676 -21.998,15.5 -21.998,15.5 h 89.742 c 0,0 -19.474,-13.732 -21.992,-15.5 v -17.484 h 1.5449 c 2.1019,2.3248 29.865,32.984 29.865,32.984 h 92.268 c 0,0 -16.68,-11.816 -20.312,-14.4 1.4558,-2.2355 2.4493,-3.7736 3.4297,-5.2813 h 38.348 c 0.98038,1.5076 1.9818,3.0458 3.4375,5.2813 -3.6245,2.5847 -20.305,14.4 -20.305,14.4 h 94.562 c 0,0 -22.303,-15.665 -23.32,-16.393 -0.765,-1.0992 -46.168,-66.674 -46.168,-66.674 H 209.4 c 0,0 -43.992,64.937 -45.039,66.475 -0.297,0.16337 -1.6787,0.88319 -3.6914,1.9453 -2.1761,-1.129 -3.6233,-1.9019 -3.8164,-2.0059 -0.61,-0.6 -16.18,-15.51 -22.81,-21.86 13.89,-4.152 21.47,-10.956 21.47,-19.52 0,-23.819 -54.352,-25.037 -65.248,-25.037 h -33.371 z m 195.24,0 c 0,0 22.133,15.553 23.262,16.355 0.80962,1.2552 56.09,88.531 56.09,88.531 0,0 51.657,-86.548 52.734,-88.346 0.57938,-0.3045 4.3302,-2.2791 9.0391,-4.7598 3.7656,1.9756 6.772,3.5724 7.7226,4.0625 v 51.723 c -2.5178,1.7676 -21.99,15.5 -21.99,15.5 h 123.36 v -31.357 c 0,0 -25.795,13.577 -27.348,14.387 h -28.268 v -18.695 h 17.336 c 1.53,0.80962 22.979,12.256 22.979,12.256 v -36.355 c 4.7609,2.5104 15.301,8.0645 15.301,8.0645 v -31.365 h -86.727 -70.619 c 0,0 10.495,11.395 12.842,13.928 -2.1168,3.6839 -14.802,25.667 -19.488,33.777 -4.486,-8.1848 -16.496,-30.094 -18.494,-33.719 2.3246,-2.5252 12.895,-13.986 12.895,-13.986 h -80.623 z m 259.88,0 14.074,15.049 v 52.979 c -1.6266,1.7379 -14.074,15.039 -14.074,15.039 h 63.6 c 0,0 -19.467,-13.718 -21.984,-15.5 V 80.377 c 10.443,7.7539 82.797,61.379 82.797,61.379 V 59.967 c 2.5104,-1.7825 21.984,-15.523 21.984,-15.523 h -12.023 -59.232 c 0,0 19.466,13.741 21.984,15.523 v 20.01 C 599.592,72.9658 560.771,44.444 560.771,44.444 h -48.76 z M 87.75,61.408 h 2.5039 c 10.123,0 16.576,4.782 16.576,8.0723 0,3.164 -6.6089,7.9551 -16.576,7.9551 H 87.75 v -16.027 z m 358.97,0 h 28.268 c 0.5125,0.27488 3.9156,2.0569 7.2207,3.7949 -0.18575,0.08912 -16.624,8.7503 -18.146,9.5449 h -17.342 v -13.34 z M 214.07,78.742 c 2.6366,4.0404 4.8135,7.3987 7.8066,11.996 h -15.73 c 3.0525,-4.6122 5.2723,-7.9706 7.9238,-11.996 z"
         transform="matrix(0.8,0,0,-0.8,0,453.08)"
         id="path2-9" />
      <path
         inkscape:connector-curvature="0"
         d="m 499.21,0 c -8.4299,0 -13.369,5.4362 -13.369,11.623 0,6.1869 4.9393,11.639 13.369,11.639 8.4225,0 13.361,-5.4518 13.361,-11.639 C 512.571,5.4362 507.631,0 499.211,0 Z M 162.34,0.60938 v 22.035 h 12.039 c 6.7141,0 10.799,-1.7451 10.799,-6.2832 0,-3.2456 -2.8959,-4.8261 -6.498,-5.0488 v -0.05273 c 3.6021,-0.68338 5.5332,-2.162 5.5332,-4.9844 0,-4.1146 -3.6091,-5.666 -8.9492,-5.666 H 162.34 Z m 65.299,0 -9.7578,22.035 h 7.0547 l 1.3379,-3.4668 h 9.7578 l 1.3379,3.4668 h 7.0918 l -9.9883,-22.035 z m 50.676,0 v 22.035 h 16.928 v -4.6406 h -10.324 v -17.395 h -6.6035 z m 46.301,0 v 4.2773 h 6.9082 v 17.758 h 6.6035 v -17.758 h 6.9062 v -4.2773 h -20.418 z m 54.613,0 v 22.035 h 6.6094 v -22.035 z m 42.758,0 v 22.035 h 6.0156 v -17.111 h 0.0742 l 5.377,17.111 h 5.832 l 5.2422,-17.111 h 0.0684 v 17.111 h 6.2383 v -22.035 h -9.582 l -4.8203,16.369 h -0.0742 l -4.6777,-16.369 h -9.6934 z m 125.73,0 v 22.035 h 6.6113 v -7.9238 h 4.1875 l 5.1992,7.9238 h 7.3984 l -6.0605,-8.8516 c 3.305,-0.80212 5.459,-3.0983 5.459,-5.9355 0,-4.9539 -3.6403,-7.248 -9.582,-7.248 h -13.213 z m 57.992,0 v 22.035 h 20.559 v -4.2695 h -13.955 v -5.207 h 11.994 v -4.2637 h -11.994 v -4.0176 h 12.848 V 0.60928 H 605.71 Z m -106.5,4.0254 c 4.8945,0 6.752,3.5347 6.752,6.9883 0,3.4016 -1.8574,6.9961 -6.752,6.9961 -5.199,0 -6.7598,-3.7801 -6.7598,-6.9961 0,-4.9539 2.8903,-6.9883 6.7598,-6.9883 z m -330.55,0.066406 h 5.4961 c 2.191,0 3.4531,0.43023 3.4531,2.2871 0,1.6042 -1.3364,2.2891 -3.4531,2.2891 h -5.4961 z m 385.68,0 h 6.0449 c 2.1168,0.02975 3.5352,0.92777 3.5352,2.9629 0,2.0424 -1.4184,2.9429 -3.5352,2.9727 h -6.0449 v -5.9355 z m -323.24,1.3008 h 0.0742 l 3.2676,9.0898 h -6.6035 z m -62.359,7.3594 h 6.5723 c 2.4435,0 3.2617,0.80147 3.2617,2.6211 0,1.426 -0.96629,2.5703 -4.457,2.5703 h -5.377 z m 537.15,33.363 c -34.73,0 -47.355,12.27 -47.355,22.512 0,8.4448 9.9603,16.109 22.824,20.201 l 34.729,11.238004 c 3.3941,1.2922 6.7891,2.1752 6.7891,6.2676 0,7.0484 -10.428,10.992 -20.863,10.992 -5.3475,0 -9.9675,-1.0088 -13.369,-2.4199 l -16.02,-10.621 -16.518,17.135 29.627,2.6953 c 6.0755,0.62387 12.618,0.89062 18.701,0.89062 36.423,0 52.934,-11.125 52.934,-25.957004 0,-10.108 -10.451,-15.085 -17.484,-17.262 l -39.342,-12.781 c -3.1566,-1.0324 -6.0684,-4.2183 -6.0684,-6.3945 0,-6.5136 9.9615,-8.4453 17.24,-8.4453 5.1024,0 8.503,0.78016 10.932,2.1914 l 15.055,9.5879 16.518,-16.117 -28.668,-2.6816 c -6.068,-0.52738 -12.864,-1.0312 -19.66,-1.0312 z m -649,1.5371 -0.04492,0.04492 c -6.781,0 -13.555,0.51995 -19.615,1.0176 l -28.66,2.6953 16.518,16.117 13.412,-8.5625 c 1.7454,-0.99525 4.1157,-1.6045 7.3242,-1.8125 v 56.230004 l -13.777,9.707 h 65.672 l -13.771,-9.707 V 90.708306 h 7.041 l 29.865,32.990004 h 27.436 24.77 26.396 l -13.531,-9.5879 6.5566,-10.102 h 42.5 l 6.5566,10.102 -13.531,9.5879 h 70.521 l -14,-9.8477 -45.418,-65.590004 h -27.689 l -44.436,65.590004 -6.3203,3.3281 -6.0605,-3.1875 -28.172,-26.998004 c 14.572,-3.06 25.26,-9.0689 25.26,-17.514 0,-15.59 -33.511,-21.219 -61.43,-21.219 h -33.371 z m 207.3,0 14.021,9.8477 53.172,83.936004 50.096,-83.936004 11.781,-6.2031 11.533,6.0781 v 56.008004 l -13.77,9.707 h 107.5 v -21.227 l -22.586,11.883 H 442.916 V 88.027186 h 22.096 l 18.219,9.7227 v -28.773 l -18.219,9.5879 h -22.096 v -20.975 h 33.021 l 22.586,11.891 v -21.219 H 400.179 386.343 353.7 l 8.8379,9.6035 -24.271,42.061 -23.068,-42.061 8.8379,-9.6035 h -59.848 z m 256.62,0 9.0996,9.7227 v 56.008004 l -9.0996,9.707 h 42.773 l -13.77,-9.707 V 72.808186 L 632.62,134.17119 V 57.983186 l 13.77,-9.7227 h -47.215 l 13.777,9.7227 v 29.537 l -53.424,-39.26 h -38.719 z m -436.86,9.3281 h 6.3145 c 11.408,0 20.387,5.6295 20.387,11.891 0,6.1422 -8.9786,11.766 -20.387,11.766 H 83.95 v -23.656 z m 130.15,14.201 14.811,22.764 h -29.857 l 15.047,-22.764 z"
         transform="matrix(0.8,0,0,-0.8,0,453.08)"
         id="path4-8" />
    </g>
  </g>
  <path
     d="m 460.92123,224.62901 c -1.71336,-10.41617 -8.58306,-25.71438 -31.62783,-39.47848 -1.55695,-0.93009 -3.19156,-1.83568 -4.87595,-2.72642 4.31113,-1.44844 8.7675,-2.94322 8.7675,-2.94322 l -25.53955,-9.94763 c -2.18616,-0.85228 -4.47819,-1.6189 -6.79893,-2.36453 l 3.46852,-3.51839 -19.58323,-2.7404 c -8.4625,-1.18621 -15.13642,-1.45894 -20.25105,-1.38463 -0.0495,-0.82343 -0.11367,-1.58306 -0.19921,-2.26488 0,-0.007 -3.27014,-24.5002 -3.27014,-24.5002 0,0 -7.57699,10.33487 -8.33062,11.36111 -1.61009,-2.68009 -3.43703,-5.2011 -5.53404,-7.56912 0,-0.003 -21.12163,-23.86122 -21.12163,-23.86122 0,0 0.84262,7.01842 1.51742,12.62074 -6.8488,-4.7719 -14.37953,-9.03505 -22.7109,-12.60326 -33.98441,-14.559562 -76.96039,-17.584062 -117.91432,-8.31126 -34.25473,7.76056 -83.71319,27.99325 -124.79134,80.29876 L 38.416813,214.8868 74.103304,200.68562 c 0.284098,-0.11363 27.832406,-10.84275 50.048506,-13.9704 8.28503,-1.16784 14.62862,-1.2605 9.4791,10.07527 -4.0586,8.94675 -13.27809,22.00456 -13.37424,22.13568 l -17.86992,25.96263 29.80796,-10.33838 c 14.33752,-4.98081 27.20647,-7.43449 33.71441,-7.66527 2.32436,0.0429 2.75091,1.57606 2.01834,3.24479 -0.20976,0.57866 -0.3304,0.88024 -1.94055,3.35142 l -18.69067,26.64795 30.65758,-10.97037 c 22.2485,-7.97384 51.49877,-13.22475 61.96207,-9.23085 0.85311,0.32344 3.61803,1.78935 0.87771,5.80425 l -12.04125,19.13565 c 0,0 17.77719,-2.69495 20.30428,-3.08482 1.39686,17.47393 10.17149,27.00284 11.25278,28.10338 l 12.91526,13.23176 4.53519,-17.91797 c 3.2552,-12.89436 9.38982,-19.92063 14.86275,-23.74759 0,0.007 1.05157,7.36283 1.05157,7.36283 l 11.97391,-4.31385 c 10.06555,-3.63552 18.03333,-8.00182 23.76944,-12.98351 7.58832,-0.59965 26.12602,-1.70369 43.93217,0.0568 30.68993,3.03149 51.27486,-1.04372 56.85549,-2.36803 7.46324,-1.76487 13.75435,1.42048 13.82168,1.45543 l 9.12328,4.95633 4.92229,-9.23085 c 0.58304,-1.10751 3.36542,-6.86981 3.36542,-15.41184 0,-2.11626 -0.1705,-4.25353 -0.51915,-6.35145"
     id="path4"
     inkscape:connector-curvature="0"
     style="fill:#fffffe;stroke-width:0.87413323"
     inkscape:export-filename="C:\Users\alex\sites\baltimore-ravens-logo-1.png"
     inkscape:export-xdpi="929.22314"
     inkscape:export-ydpi="929.22314" />
  <path
     d="m 456.64586,226.39826 c -1.5175,-9.22648 -7.76932,-22.86646 -28.96616,-35.53352 -5.6687,-3.37241 -11.8244,-6.25879 -18.05524,-8.71249 l 7.50622,-2.521 -10.31043,-4.0184 c -5.10749,-1.99126 -10.47388,-3.63202 -16.00801,-4.96333 1.06291,-1.07605 2.21421,-2.25089 2.21421,-2.25089 l -7.90037,-1.11102 c -12.16977,-1.70019 -20.57099,-1.50526 -25.51511,-1.04371 0.0462,-1.0647 0.0823,-2.19058 0.0823,-3.32608 0,-1.59005 -0.0604,-3.15649 -0.22725,-4.42312 l -1.32609,-9.89431 c 0,0 -4.80518,6.55688 -5.49836,7.50531 -1.58827,-4.40912 -4.19411,-9.87334 -8.94934,-15.25538 l -8.53679,-9.64605 0.96686,8.05164 c -7.6734,-7.12157 -18.29327,-14.60852 -32.85094,-20.84633 -33.02477,-14.14785 -74.89931,-17.0692 -114.86115,-8.02017 -33.49417,7.5866 -81.8617,27.38572 -122.0762,78.58632 l -10.132956,12.91183 15.25799,-6.07785 c 0.284098,-0.11015 28.663706,-11.33926 51.733836,-14.42058 9.04554,-1.20018 15.28948,-0.13111 17.57532,3.021 2.13288,2.9537 1.44669,8.79728 -1.86628,15.64525 -4.535,9.39693 -13.8043,22.8883 -13.89697,23.02991 l -7.64167,11.0945 12.74487,-4.41612 c 16.79297,-5.83309 37.96534,-10.14606 42.87274,-6.94062 1.13366,0.74215 1.74481,1.6154 1.98338,2.83655 0.78594,4.07522 -2.72642,10.25272 -4.01917,12.10589 l -8.0002,11.38558 13.1147,-4.68622 c 20.95118,-7.50532 58.51441,-16.11029 70.12557,-7.22122 5.37068,4.11454 0.35226,12.24486 0.12753,12.58577 l -5.15291,8.19762 9.56738,-1.45894 4.68102,-0.72464 c -0.0285,0.74914 -0.0781,1.50875 -0.0781,2.22205 0,18.50015 9.36892,28.33765 9.82007,28.80618 l 5.52624,5.65914 1.94052,-7.67227 c 5.43792,-21.53514 18.30701,-28.99063 25.47927,-31.51862 0.1993,1.42746 1.19756,8.40304 1.19756,8.40304 l 5.11806,-1.84617 c 12.55335,-4.52626 19.58314,-9.49309 23.44245,-13.22039 5.7754,-0.50437 26.93296,-2.10142 47.24865,-0.0996 29.91817,2.9607 49.8037,-0.96942 55.1884,-2.2474 9.91963,-2.34267 17.98009,1.94232 18.06572,1.9843 l 3.93797,2.14773 2.11456,-3.95808 c 0.13549,-0.24825 2.68357,-5.2011 2.68357,-12.68805 0,-1.68269 -0.13113,-3.49303 -0.44754,-5.41787"
     id="path6"
     inkscape:connector-curvature="0"
     style="fill:#9e7c0c;stroke-width:0.87413323"
     inkscape:export-filename="C:\Users\alex\sites\baltimore-ravens-logo-1.png"
     inkscape:export-xdpi="929.22314"
     inkscape:export-ydpi="929.22314" />
  <path
     d="m 425.04683,195.33593 c -8.84977,-6.25181 -20.77037,-10.79992 -32.33503,-14.05169 4.81551,-1.55508 9.63907,-1.45194 9.63907,-1.45194 -7.41009,-2.82957 -15.14793,-4.59794 -22.34462,-5.71247 l 2.69407,-2.41434 c -13.18197,-2.24391 -22.38391,-2.07345 -27.8429,-1.50527 0.68613,-2.69844 1.2439,-6.81999 0.54022,-12.32265 0,0 -1.59968,4.74304 -5.47645,7.68975 -0.51143,-6.15565 -2.48083,-15.06044 -9.16962,-21.10245 l 1.24038,10.86722 c -5.8926,-8.86458 -17.10592,-20.20034 -38.30629,-30.10602 -57.62994,-26.906693 -159.17791,-16.70731 -214.920526,55.20938 0,0 21.676756,-10.82089 51.708486,-11.53856 15.73441,-0.36888 19.55785,8.43189 13.82529,23.26418 -5.76491,14.90747 -15.86901,27.98626 -15.86901,27.98626 0,0 67.9612,-24.05615 46.50568,9.36196 0,0 51.30376,-15.34802 66.69289,2.65563 7.15463,8.35408 -1.17666,20.03774 -1.17666,20.03774 l 14.5544,-3.14512 c -4.71947,18.46432 3.54365,30.25812 3.54365,30.25812 6.00618,-24.13832 26.95042,-30.56756 34.36479,-31.78524 l 1.60313,6.5394 c 12.42498,-4.48781 18.26855,-9.26232 21.60862,-13.19591 26.31139,-4.13204 44.17782,-0.59966 64.46128,0.50437 29.54475,1.6119 44.81667,-3.52887 49.69699,-3.49653 3.58227,0.0324 7.82968,3.153 7.82968,3.153 0,0 12.27983,-20.70473 -23.06584,-45.69882"
     id="path8"
     inkscape:connector-curvature="0"
     style="fill:#000000;stroke-width:0.87413323"
     inkscape:export-filename="C:\Users\alex\sites\baltimore-ravens-logo-1.png"
     inkscape:export-xdpi="929.22314"
     inkscape:export-ydpi="929.22314" />
  <path
     d="m 400.79317,234.60461 c -20.45741,0.0997 -38.68298,-5.10143 -63.39132,-2.05595 l -8.27706,-6.63904 c -2.23519,5.73344 -5.30259,9.63208 -5.30259,9.63208 2.72983,-4.87768 -0.0604,-10.6723 -1.21594,-13.50887 -10.1793,-5.40738 -26.83675,-15.75275 -12.68809,-19.12866 -8.81392,-1.31382 -35.66553,-3.96244 -69.30826,5.6338 0,0 31.10162,-20.75106 90.91428,-10.99836 -16.16021,-9.63556 -51.57044,-9.23783 -51.57044,-9.23783 32.26778,-8.05864 71.21033,4.68623 85.66769,9.40829 l -13.47387,-9.73084 17.02029,1.47291 -9.14872,-7.36633 c 0,0 36.20928,2.56646 59.77673,18.26241 27.54387,16.11813 24.17156,33.04223 24.17156,33.04223 -6.46153,-13.51935 -54.27492,-22.75719 -109.51931,-29.27472 -14.75277,-1.73253 -20.98353,-0.77011 -20.3612,2.66961 0.59009,3.23777 9.10599,9.63207 17.63565,12.98699 -6.09886,-5.85058 -0.7998,-7.34185 -0.7998,-7.34185 9.69599,-0.79197 72.28743,5.06299 104.25609,18.74841 -8.66171,2.02013 -19.67221,3.34443 -34.38569,3.42572 z M 217.78543,201.62619 c -0.31289,0.19844 -0.63643,0.40822 -0.94924,0.61801 -0.34445,0.24476 -0.69326,0.47903 -1.03763,0.7133 l -0.50085,0.3409 c -1.49995,0.0813 -2.97816,0.13113 -4.41783,0.13113 l -13.25368,0.76313 c -7.8689,0.40121 -21.15058,1.99563 -25.56838,2.55595 l -1.49306,0.18095 c 10.29653,-35.99594 19.59026,-48.61318 25.81316,-54.78369 3.70021,-4.50877 10.24309,-7.56562 15.4888,-9.34797 -35.24597,1.6792 -69.51109,8.92489 -69.51109,8.92489 22.16013,-17.17933 73.54166,-29.18293 103.16163,-26.16542 29.61662,3.02101 27.60079,15.0211 24.55539,21.86557 -2.4669,5.53151 -14.56481,13.02895 -25.94167,15.4503 11.77797,1.53411 18.44947,10.61548 14.23085,19.68199 -0.36275,0.77709 -0.78141,1.52973 -1.22988,2.25438 -12.57089,2.98255 -23.72746,7.71074 -32.8823,12.87687 -0.31994,0.18794 -0.63635,0.37237 -0.95629,0.5542 -0.42664,0.24825 -0.85663,0.49738 -1.27975,0.74913 l -0.97374,0.57867 c -0.39785,0.24127 -0.78931,0.48601 -1.17666,0.72816 -0.32338,0.20629 -1.71318,1.08654 -2.07963,1.32781 z"
     id="path10"
     inkscape:connector-curvature="0"
     style="fill:#fffffe;stroke-width:0.87413323"
     inkscape:export-filename="C:\Users\alex\sites\baltimore-ravens-logo-1.png"
     inkscape:export-xdpi="929.22314"
     inkscape:export-ydpi="929.22314" />
  <path
     d="m 287.6837,127.53378 c 63.99887,19.07883 54.30648,55.75221 54.30648,55.75221 0,0 -5.16785,0.32694 -11.26318,-11.05515 -5.75442,-10.7431 -14.25554,-12.12074 -14.25554,-12.12074 0,0 6.27995,-0.57867 15.09824,3.25877 0,0 -12.38998,-18.56746 -47.76009,-17.13651 0,0 17.842,2.19408 25.398,12.1592 0,0 -24.02909,-3.78063 -45.64208,7.39167 0,0 19.27722,-3.18447 34.0624,6.76666 0,0 -22.17067,-1.65823 -34.33944,10.95989 10.82958,-1.99914 22.57188,-2.64863 34.8727,-1.19319 8.0498,1.22116 14.89515,2.85054 19.93103,4.25004 -12.52799,-1.38114 -25.81666,-1.3418 -38.13931,1.73602 0,0 35.40931,-0.39773 51.57036,9.23784 -59.81174,-9.7527 -90.9142,10.99836 -90.9142,10.99836 33.64282,-9.59625 60.49434,-6.94762 69.30826,-5.6338 -14.14874,3.3759 2.50879,13.72128 12.68809,19.12865 1.15466,2.83656 3.94494,8.63032 1.21939,13.50187 -6.68896,9.16703 -14.16269,11.03069 -14.16269,11.03069 4.4248,-11.17579 -0.9808,-19.15663 -0.9808,-19.15663 0,0 -3.74202,11.51671 -19.9704,18.29036 -17.79574,7.4415 -20.55697,18.29386 -20.55697,18.29386 0,0 -0.64693,-9.91966 8.757,-20.35332 3.02097,-3.36541 5.24223,-6.1635 6.64606,-8.61283 l -19.89611,5.44585 c 13.34533,-38.75033 -63.68241,-23.16541 -63.68241,-23.16541 2.83226,-4.0114 8.29547,-9.18451 15.81923,-14.34976 0.34437,-0.23427 0.69318,-0.46854 1.03747,-0.7133 0.31288,-0.20979 0.63643,-0.41871 0.9494,-0.61801 0.36628,-0.24126 0.73247,-0.48252 1.10488,-0.7133 l 0.97374,-0.6145 c 0.38735,-0.24128 0.77798,-0.48603 1.17666,-0.72817 l 0.97374,-0.57867 c 0.42312,-0.25175 0.85311,-0.50088 1.27975,-0.74913 0.31994,-0.18095 0.63635,-0.36539 0.95629,-0.55421 9.15568,-5.16525 20.31141,-9.89432 32.8823,-12.87685 0.44763,-0.72466 0.86713,-1.47729 1.22988,-2.25439 4.21862,-9.06739 -2.45204,-18.14876 -14.23085,-19.68199 11.37686,-2.42135 23.47477,-9.91967 25.94167,-15.4503 3.0454,-6.84447 5.06123,-18.84456 -24.55539,-21.86557 -29.61997,-3.01751 -81.0015,8.98521 -103.16163,26.16543 0,0 34.26512,-7.24569 69.51109,-8.9249 -5.24571,1.78236 -11.78859,4.8392 -15.4888,9.34798 -6.2229,6.1705 -15.51754,18.78774 -25.81316,54.78367 l 1.49306,-0.18093 -13.18198,2.06295 c 0,0 20.1549,-32.19695 6.85235,-45.89026 -11.43715,-11.77631 -49.56509,0.2098 -49.56509,0.2098 37.87619,-36.23369 106.11798,-55.09225 171.5206,-35.5982 z m -67.11941,64.55387 c -2.00433,0.50788 -3.94141,0.68532 -5.57258,0.68532 h -7.56994 c 0,0 3.03844,-9.46512 7.92572,-19.8 h 2.96758 c 7.05524,0 10.96785,3.96245 6.57537,13.4127 -1.12334,2.41087 -2.62674,4.26753 -4.32523,5.70198 z m 13.13907,-32.67948 c -2.1363,0.632 -4.51052,0.99739 -7.04021,0.99739 h -5.30939 c 3.28752,-7.56213 5.91426,-12.17755 7.73691,-14.92495 6.91605,0.0603 9.72731,3.5079 6.06646,11.35674 -0.4582,0.99389 -0.9494,1.84267 -1.45377,2.56995 z"
     id="path12"
     inkscape:connector-curvature="0"
     style="fill:#241773;stroke-width:0.87413323"
     inkscape:export-filename="C:\Users\alex\sites\baltimore-ravens-logo-1.png"
     inkscape:export-xdpi="929.22314"
     inkscape:export-ydpi="929.22314" />
  <path
     d="m 235.15797,156.83735 c -0.45803,0.99389 -0.94931,1.84267 -1.45369,2.56995 4.24036,-1.2605 7.52015,-3.60317 9.13386,-6.39778 3.54717,-6.18799 0.82784,-10.62596 -4.89434,-11.23261 l -5.94582,0.0175 c 0,0 -1.02706,0.84529 -2.90731,3.68535 6.91605,0.0603 9.72731,3.5079 6.06646,11.35673 m -10.26753,29.54828 c -1.12334,2.41087 -2.62682,4.26753 -4.32531,5.70198 4.48524,-1.10752 9.33324,-3.79199 12.00187,-9.52892 4.40037,-9.45462 0.48003,-13.4162 -6.56824,-13.4162 h -8.76405 c -0.65389,1.28149 -1.2868,2.56296 -1.8873,3.83046 h 2.96775 c 7.05515,0 10.96776,3.96243 6.57528,13.41268"
     id="path14"
     inkscape:connector-curvature="0"
     style="fill:#000000;stroke-width:0.87413323"
     inkscape:export-filename="C:\Users\alex\sites\baltimore-ravens-logo-1.png"
     inkscape:export-xdpi="929.22314"
     inkscape:export-ydpi="929.22314" />
  <path
     d="m 267.37245,137.95345 c -2.76845,-4.54112 -9.52902,-7.22821 -21.53089,-7.83923 0,0 -12.15122,-1.64686 -27.52649,0.40822 -6.08476,0.81295 -35.66186,3.81997 -60.84656,16.10067 22.02463,-5.35757 48.05464,-7.32087 64.53545,-7.91703 6.93015,-0.24475 14.54382,-0.028 14.54382,-0.028 4.92918,0 9.50013,1.45544 11.25278,4.32784 1.81644,2.97118 2.31729,6.53589 -1.09791,10.8882 -1.88025,2.40037 -4.08749,4.92749 -10.49479,7.53327 l 7.3855,-1.57256 c 11.03946,-2.35754 21.0579,-8.55252 23.36127,-13.35588 1.68094,-3.50789 1.77707,-6.31911 0.4195,-8.54553"
     id="path16"
     inkscape:connector-curvature="0"
     style="fill:#9e7c0c;stroke-width:0.87413323"
     inkscape:export-filename="C:\Users\alex\sites\baltimore-ravens-logo-1.png"
     inkscape:export-xdpi="929.22314"
     inkscape:export-ydpi="929.22314" />
  <path
     d="m 213.94719,166.07169 h 12.16172 c 6.27633,0 9.16273,2.56995 10.48446,4.73606 2.07165,3.39076 1.70269,7.95986 -0.86361,13.68281 -4.95117,11.03768 -16.94599,12.03156 -20.54664,12.03156 l -13.80081,0.52536 c 5.98171,-18.9582 12.56396,-30.97579 12.56396,-30.97579 z m 6.32604,33.96532 c 8.77899,-5.41087 19.76414,-10.56215 32.30707,-14.05169 0.79283,-1.05421 1.47477,-2.16959 2.01843,-3.34793 1.26128,-2.70194 1.40727,-6.06036 0.50782,-8.71596 -1.35404,-4.02977 -4.05155,-6.71336 -12.55334,-8.70202 -11.18814,-2.60928 -27.5301,-1.45892 -27.5301,-1.45892 3.76066,-9.12071 6.5684,-14.45292 9.37949,-19.07534 -2.41703,-0.15647 -14.60409,1.13638 -23.9617,10.05428 -8.14954,7.19586 -16.9529,25.88833 -23.95475,48.14813 12.0447,-1.26398 22.96345,-1.83567 22.96345,-1.83567 l 11.45118,-0.49388 c 3.01057,0 6.17661,-0.16347 9.37245,-0.52186 z"
     id="path18"
     inkscape:connector-curvature="0"
     style="fill:#9e7c0c;stroke-width:0.87413323"
     inkscape:export-filename="C:\Users\alex\sites\baltimore-ravens-logo-1.png"
     inkscape:export-xdpi="929.22314"
     inkscape:export-ydpi="929.22314" />
  <path
     d="m 322.26878,169.61106 c 1.83399,4.33832 -0.6931,9.15567 -5.64763,10.76408 -4.95117,1.6119 -10.45651,-0.61103 -12.29041,-4.94934 -1.83391,-4.34183 0.69662,-9.16704 5.64779,-10.76758 4.94757,-1.60841 10.45642,0.60752 12.29025,4.95284 z m -0.45099,2.64513 c -0.99465,-2.6023 -4.03409,-3.90913 -6.79557,-2.91436 -2.75435,0.98339 -4.1941,3.88727 -3.19492,6.48607 0.99918,2.60578 4.03762,3.90912 6.79901,2.92571 2.7614,-0.99038 4.19411,-3.89774 3.19148,-6.49654 z"
     id="path20"
     inkscape:connector-curvature="0"
     style="fill:#c60c30;stroke-width:0.87413323"
     inkscape:export-filename="C:\Users\alex\sites\baltimore-ravens-logo-1.png"
     inkscape:export-xdpi="929.22314"
     inkscape:export-ydpi="929.22314" />
  <path
     d="m 309.53091,175.99049 c -1.37932,-3.25877 0.6146,-6.92315 4.44243,-8.16879 1.47812,-0.47902 3.01048,-0.53234 4.41086,-0.22377 -1.91165,-1.20718 -4.50271,-1.58306 -6.93006,-0.79196 -3.83849,1.24213 -5.8288,4.89952 -4.44243,8.18015 0.84614,2.00961 2.77978,3.40474 5.03227,3.88726 -1.10916,-0.69931 -2.0008,-1.67921 -2.51307,-2.88289"
     id="path22"
     inkscape:connector-curvature="0"
     style="fill:#fffffe;stroke-width:0.87413323"
     inkscape:export-filename="C:\Users\alex\sites\baltimore-ravens-logo-1.png"
     inkscape:export-xdpi="929.22314"
     inkscape:export-ydpi="929.22314" />
</svg>
