<?xml version="1.0" encoding="UTF-8" standalone="no"?>
<svg
   xmlns:dc="http://purl.org/dc/elements/1.1/"
   xmlns:cc="http://creativecommons.org/ns#"
   xmlns:rdf="http://www.w3.org/1999/02/22-rdf-syntax-ns#"
   xmlns:svg="http://www.w3.org/2000/svg"
   xmlns="http://www.w3.org/2000/svg"
   xmlns:sodipodi="http://sodipodi.sourceforge.net/DTD/sodipodi-0.dtd"
   xmlns:inkscape="http://www.inkscape.org/namespaces/inkscape"
   viewBox="0 0 700 700"
   version="1.1"
   id="svg14"
   sodipodi:docname="indianapolis-colts-logo.svg"
   width="18.520834cm"
   height="18.520834cm"
   inkscape:version="0.92.3 (2405546, 2018-03-11)"
   inkscape:export-filename="C:\Users\alex\indianapolis-colts-logo-0.png"
   inkscape:export-xdpi="561.73712"
   inkscape:export-ydpi="561.73712">
  <metadata
     id="metadata20">
    <rdf:RDF>
      <cc:Work
         rdf:about="">
        <dc:format>image/svg+xml</dc:format>
        <dc:type
           rdf:resource="http://purl.org/dc/dcmitype/StillImage" />
        <dc:title>Logos/Clubs/IND/Alternate-1</dc:title>
      </cc:Work>
    </rdf:RDF>
  </metadata>
  <defs
     id="defs18">
    <pattern
       y="0"
       x="0"
       height="6"
       width="6"
       patternUnits="userSpaceOnUse"
       id="EMFhbasepattern" />
  </defs>
  <sodipodi:namedview
     pagecolor="#ffffff"
     bordercolor="#666666"
     borderopacity="1"
     objecttolerance="10"
     gridtolerance="10"
     guidetolerance="10"
     inkscape:pageopacity="0"
     inkscape:pageshadow="2"
     inkscape:window-width="1600"
     inkscape:window-height="838"
     id="namedview16"
     showgrid="false"
     units="cm"
     inkscape:zoom="0.3337544"
     inkscape:cx="1051.0905"
     inkscape:cy="408.91008"
     inkscape:window-x="-8"
     inkscape:window-y="-8"
     inkscape:window-maximized="1"
     inkscape:current-layer="g12" />
  <title
     id="title2">Logos/Clubs/IND/Alternate-1</title>
  <desc
     id="desc4">Created with Sketch.</desc>
  <g
     id="g12"
     style="fill:none"
     transform="translate(0,200)">
    <path
       style="fill:none"
       d="m 840.62233,-159.55614 h 499.99997 v 500 H 840.62233 Z"
       id="path6-6"
       inkscape:connector-curvature="0"
       inkscape:export-filename="C:\Users\alex\indianapolis-colts-logo-3.png"
       inkscape:export-xdpi="276.48001"
       inkscape:export-ydpi="276.48001" />
    <path
       d="m 1090.6195,251.43122 c -36.435,0.163 -64.374,-10.241 -77.746,-17.299 -26.19899,-13.752 -47.78499,-31.959 -66.36999,-57.229 -26.709,-36.226 -31.879,-65.395 -34.007,-81.279998 -1.251,-8.271 -2.738,-28.15001 0.053,-45.98401 3.158,-25.732 9.006,-38.549 13.189,-51.0919998 3.253,-8.9170002 13.746,-30.3780002 19.973,-40.2200002 5.291,-7.714 14.954,-21.928 18.895,-26.946 1.077,-1.576 -0.321,-0.83 -0.914,-0.814 -1.445,0.352 -2.191,0.441 -3.305,0.352 -0.835,0 -2.506,-0.279 -3.436,-0.557 -5.202,-1.109 -12.637,-6.873 -11.707,-16.91 -0.184,-2.228 2.228,-21.360002 4.088,-27.309002 2.417,-8.355 7.43,-12.259 16.352,-13.005 4.456,0 23.22,-0.373 31.743,0.956 17.06699,1.697 29.56199,6.663 36.99199,21.713 5.948,13.189002 3.909,33.814002 -4.267,49.605002 -2.79,5.386 -8.36,15.423 -13.194,21.923 -4.456,6.5 -6.316,9.853 -10.22,17.094 -3.899,7.6140002 -16.90399,36.042 -21.35999,54.618 -8.481,34.671 -3.72,54.62301 12.627,81.753008 12.07999,18.018 26.19899,31.029 37.15999,36.972 18.023,11.329 42.635,14.493 55.457,14.493 12.821,0 37.433,-3.163 55.462,-14.493 10.956,-5.943 25.075,-18.954 37.15,-36.972 16.352,-27.129998 21.113,-47.082008 12.637,-81.753008 -4.456,-18.575 -17.466,-47.0039998 -21.365,-54.618 -3.899,-7.241 -5.759,-10.594 -10.22,-17.094 -4.824,-6.5 -10.404,-16.537 -13.194,-21.923 -8.171,-15.79 -10.21,-36.415 -4.267,-49.605002 7.425,-15.05 19.931,-20.015 36.992,-21.713 8.518,-1.329 27.287,-0.956 31.743,-0.956 8.922,0.746 13.94,4.65 16.352,13.005 1.855,5.948 4.277,25.081002 4.088,27.309002 0.93,10.037 -6.5,15.801 -11.707,16.91 -0.92,0.279 -2.601,0.557 -3.436,0.557 -1.114,0.089 -1.855,0 -3.305,-0.352 -0.594,-0.016 -1.991,-0.762 -0.914,0.814 3.941,5.018 13.599,19.232 18.901,26.946 6.221,9.842 16.72,31.302 19.967,40.2200002 4.183,12.5429998 10.031,25.3589998 13.189,51.0919998 2.79,17.835 1.303,37.71301 0.058,45.98401 -2.133,15.884998 -7.293,45.053998 -34.013,81.279998 -18.585,25.27 -40.171,43.478 -66.365,57.229 -13.373,7.057 -41.311,17.13 -77.752,17.299"
       id="path8-9"
       inkscape:connector-curvature="0"
       style="fill:#ffffff"
       inkscape:export-filename="C:\Users\alex\indianapolis-colts-logo-3.png"
       inkscape:export-xdpi="276.48001"
       inkscape:export-ydpi="276.48001" />
    <path
       d="m 1090.4195,211.33472 c 2.412,0 4.372,-1.955 4.372,-4.367 0,-2.417 -1.96,-4.377 -4.372,-4.377 -2.417,0 -4.372,1.96 -4.372,4.377 0,2.412 1.955,4.367 4.372,4.367 z m -116.37799,-55.364 c 2.417,0 4.372,-1.955 4.372,-4.372 0,-2.417 -1.955,-4.377 -4.372,-4.377 -2.412,0 -4.372,1.96 -4.372,4.377 0,2.417 1.96,4.372 4.372,4.372 z m -26.005,-101.064008 c 2.412,0 4.372,-1.96 4.372,-4.372 0,-2.422 -1.96,-4.377 -4.372,-4.377 -2.417,0 -4.372,1.955 -4.372,4.377 0,2.412 1.955,4.372 4.372,4.372 z m 51.274,-118.909 c 2.41699,0 4.37199,-1.955 4.37199,-4.372 0,-2.417 -1.955,-4.372 -4.37199,-4.372 -2.417,0 -4.377,1.955 -4.377,4.372 0,2.417 1.96,4.372 4.377,4.372 z M 1211.6055,151.59972 c 0,-2.417 -1.96,-4.377 -4.372,-4.377 -2.412,0 -4.377,1.96 -4.377,4.377 0,2.417 1.965,4.372 4.377,4.372 2.412,0 4.372,-1.955 4.372,-4.372 z m 26.01,-101.064008 c 0,-2.422 -1.96,-4.377 -4.377,-4.377 -2.412,0 -4.372,1.955 -4.372,4.377 0,2.412 1.96,4.372 4.372,4.372 2.417,0 4.377,-1.96 4.377,-4.372 z m -51.274,-118.909 c 0,-2.417 -1.96,-4.372 -4.377,-4.372 -2.417,0 -4.372,1.955 -4.372,4.372 0,2.417 1.955,4.372 4.372,4.372 2.417,0 4.377,-1.955 4.377,-4.372 z m -177.189,285.952008 c -23.77699,-14.114 -45.33099,-31.949 -66.13899,-66.278 -9.29,-16.952 -30.839,-52.993998 -20.214,-115.788008 12.259,-57.413 36.94,-86.398 51.059,-106.277 6.684,-9.658 -0.189,-15.233 -5.58,-13.189 -4.514,1.713 -7.614,1.823 -7.614,1.823 -7.987,-1.082 -6.873,-6.279 -5.386,-19.847002 l 1.86,-11.145 c 1.666,-9.847 6.127,-9.663 17.829,-9.437 18.58,0.368 21.922,0.52 31.95799,2.375 13.378,2.974 30.839,16.353 17.093,53.136002 -8.549,19.695 -17.466,26.379 -27.12899,46.82 -10.404,22.6690002 -35.668,73.572 -18.575,117.04901 23.40899,58.337998 68.73999,79.146998 111.84299,79.892998 43.103,-0.562 92.89,-26.016 112.805,-79.892998 17.093,-43.47801 -8.171,-94.3800098 -18.58,-117.04901 -9.658,-20.441 -18.575,-27.125 -27.124,-46.82 -13.746,-36.783002 3.72,-50.162002 17.093,-53.136002 10.031,-1.855 13.378,-2.007 31.958,-2.375 11.702,-0.226 16.168,-0.41 17.839,9.437 l 1.855,11.145 c 1.482,13.568002 2.601,18.765002 -5.386,19.847002 0,0 -3.1,-0.11 -7.619,-1.823 -5.391,-2.044 -12.269,3.531 -5.58,13.189 14.124,19.879 38.794,48.864 51.059,106.277 10.625,62.79401 -10.924,98.836008 -20.214,115.788008 -20.803,34.329 -42.357,52.164 -66.139,66.278 -32.552,22.674 -93.484,21.366 -81.782,20.63 12.264,0.93 -44.774,2.412 -81.188,-20.63 z"
       id="path10-5"
       inkscape:connector-curvature="0"
       style="fill:#002c5f"
       inkscape:export-filename="C:\Users\alex\indianapolis-colts-logo-3.png"
       inkscape:export-xdpi="276.48001"
       inkscape:export-ydpi="276.48001" />
    <path
       id="path830-7"
       d="m 1233.801,295.48348 c -4.1972,0.0567 -8.5646,0.56719 -12.2514,0.56719 -3.2897,0 -7.487,-0.73735 -10.72,0.11344 -1.8717,0.45376 -3.9704,2.72254 -4.9346,4.31068 -1.0776,1.70159 -0.6239,4.3674 -0.6239,6.29586 v 14.06643 c 0,4.02708 -1.5881,12.64844 0.8508,15.93818 2.4389,3.17628 6.6362,4.19723 10.2662,5.44506 6.5795,2.21206 13.1022,4.59428 19.625,6.9765 4.1405,1.4747 10.6632,1.98518 9.1318,7.94073 -0.3403,1.41798 -1.4747,2.04189 -2.836,2.21205 -3.9703,0.34032 -9.8692,0.85079 -13.7261,-0.11344 -3.0628,-0.79407 -1.3613,-4.19723 -3.4032,-5.16147 -3.4598,-1.64486 -10.5498,-0.28359 -14.35,-0.28359 -1.3613,0 -3.5166,-0.39704 -4.7077,0.39703 -1.3613,0.90752 -0.8508,3.74349 -0.8508,5.16147 v 14.80379 c 0,1.36126 -0.5672,4.59427 0.6239,5.5585 1.1344,0.90752 3.9137,0.39704 5.2749,0.39704 h 14.8605 v -3.34645 c 1.418,0.96423 2.7793,2.49565 4.4242,3.11957 2.0419,0.68064 4.8778,0.22688 7.0332,0.22688 h 14.8037 c 3.0062,0 7.5437,0.85079 9.9827,-1.19111 1.2478,-1.02095 2.9494,-2.43894 3.5166,-4.02708 0.7941,-2.15534 0.2269,-5.44507 0.2269,-7.77057 v -17.41288 c 0,-2.77925 0.8508,-7.43025 -0.3971,-9.98262 -1.7583,-3.51661 -6.2958,-4.3674 -9.6423,-5.55851 -6.863,-2.55238 -13.7828,-4.99131 -20.7026,-7.37353 -2.3822,-0.8508 -6.9765,-1.58815 -8.6214,-3.57333 -1.4179,-1.58814 -0.7373,-5.27491 1.2479,-6.1257 2.4389,-1.07768 6.5227,-0.34032 9.1885,-0.34032 2.0419,0 5.7287,-0.68064 7.2601,0.85079 1.1344,1.19111 0.3971,3.74349 2.0986,4.25396 5.5018,1.64487 13.7829,0.11344 19.5683,0.11344 v -18.54726 c 0,-1.64487 0.6806,-5.44508 -0.3971,-6.80634 -0.9642,-1.24783 -4.5375,-0.5672 -5.8988,-0.5672 -4.1972,0 -14.4635,-2.21205 -14.4635,3.28973 -1.3612,-1.02095 -2.6658,-2.77925 -4.4241,-3.17629 -2.1553,-0.56719 -4.5943,-0.68063 -7.0332,-0.68063 z m -226.1405,0.11344 c -1.8151,0 -3.5166,0.17016 -4.9346,0.73735 -5.55853,2.09862 -5.1615,7.48697 -5.1615,12.30813 v 57.4001 c 0,2.72253 -0.85079,7.20338 0.62391,9.58559 3.23299,5.27491 8.11089,4.48084 13.44249,4.48084 h 31.4793 c 4.0271,0 10.2663,1.13439 14.0665,-0.2836 5.3316,-2.0419 4.8211,-7.37353 4.8211,-11.96781 v -57.74041 c 0,-2.72254 0.8508,-7.31682 -0.6239,-9.64232 -3.2897,-5.27491 -8.0542,-4.42412 -13.4425,-4.42412 h -31.4793 c -2.4957,0 -5.7854,-0.45375 -8.7915,-0.45375 z m -48.15486,0.22688 c -1.92847,0 -3.97037,0.22687 -5.67195,0.22687 h -18.15023 c -4.76444,0 -9.24527,-0.28359 -11.79765,4.82116 -1.64487,3.23301 -0.39704,9.69903 -0.39704,13.32907 v 52.91927 c 0,2.43894 -0.73735,6.4093 0.62392,8.50792 0.90751,1.53143 2.89269,3.63004 4.53755,4.25396 2.09862,0.73736 5.2182,0.22688 7.43025,0.22688 h 38.51252 c 2.49566,0 6.6929,0.79407 8.90496,-0.62392 1.4747,-0.96423 3.57333,-2.89269 4.19724,-4.59427 0.79408,-2.09862 0.22688,-5.16148 0.22688,-7.37353 0,-5.33163 0.85079,-11.40061 -0.0567,-16.67553 -0.34032,-1.98518 -2.83598,-1.4747 -4.3674,-1.4747 -4.53756,0 -10.83342,-1.19111 -15.1441,0.11344 -2.77926,0.79407 -0.0567,7.03321 -2.0419,8.96167 -1.24783,1.24783 -3.40317,0.90751 -5.04803,0.90751 h -11.85439 c -1.70159,0 -3.80021,0.22688 -4.76444,-1.53142 -0.79407,-1.41799 -0.39703,-3.57333 -0.39703,-5.16148 v -28.87021 c 0,-1.92846 -0.62392,-5.04802 1.19111,-6.4093 2.32549,-1.81502 8.84823,-0.62391 11.74092,-0.62391 2.32551,0 6.06899,-0.68064 8.16761,0.39704 3.74349,1.92846 0.22688,6.46602 2.21206,9.01839 0.85079,1.02096 3.28973,0.62392 4.42412,0.62392 3.91364,0 11.57077,1.47471 15.08738,-0.22688 1.58814,-0.79408 0.85079,-4.99131 0.85079,-6.46602 v -17.75319 c 0,-1.41799 0.62392,-4.9346 -0.56719,-5.95555 -1.19111,-0.90751 -3.97037,-0.34032 -5.33164,-0.34032 h -14.8605 v 3.28973 c -1.41799,-0.96423 -2.66581,-2.60909 -4.42412,-3.11957 -0.96423,-0.2836 -2.09861,-0.39703 -3.233,-0.39703 z m 167.26566,0 c -0.9075,0 -1.7583,0.11343 -2.4956,0.34031 -1.5882,0.51048 -0.8508,4.08381 -0.8508,5.44508 v 15.14409 c 0,1.19111 -0.6239,4.3674 0.3403,5.16147 0.7941,0.73736 2.7225,0.39704 3.7435,0.39704 h 9.2453 c 1.0776,0 2.9494,0.34032 3.8569,-0.39704 1.3613,-1.02095 0.1702,-3.34644 1.7583,-4.53756 1.418,-1.07767 6.2959,-1.19111 7.487,0.22688 1.5881,1.87175 0.6239,7.20337 0.6239,9.52888 v 20.02197 c 0,2.77925 0.6239,6.52274 -0.2836,9.24527 -0.6806,2.0419 -2.5524,3.45989 -3.1763,5.55851 -1.021,3.34645 -0.2269,7.94072 -0.2269,11.45734 0,1.58814 -0.6239,4.76443 0.3971,6.06897 0.9642,1.19112 4.1405,0.62392 5.5017,0.62392 h 15.5412 c 1.418,0 5.3316,0.68063 6.069,-0.90751 0.6239,-1.19111 0.2268,-3.28973 0.2268,-4.651 0,-3.97036 0.9076,-9.18855 -0.1701,-12.98876 -0.6239,-2.15534 -2.7226,-3.63004 -3.0629,-5.89882 -0.794,-4.82116 -0.1134,-10.32294 -0.1134,-15.20082 0,-7.08994 -0.5672,-14.40675 0.057,-21.49668 0.2269,-2.94942 6.069,-3.00613 8.0542,-1.53143 1.4747,1.1344 1.1911,3.23302 1.1911,4.87788 h 17.7532 v -26.26112 h -67.0424 c -1.3046,0 -2.8927,-0.22687 -4.4242,-0.22687 z m -52.6923,0.11343 c -0.7374,0 -1.418,0.11344 -1.8718,0.45376 -1.4747,1.19111 -0.6239,6.4093 -0.6239,8.1676 0,3.06285 -0.5105,6.63619 0.1134,9.64231 0.4538,2.09862 2.2688,3.51661 2.9495,5.5018 0.9075,2.60909 0.2836,6.23913 0.2836,8.90495 v 18.15023 c 0,2.83597 0.4537,6.1257 -0.1135,8.90496 -0.5105,2.09862 -2.2688,3.5166 -2.9494,5.5585 -1.2478,3.74349 -0.2836,9.35872 -0.2836,13.32908 0,1.36127 -0.397,3.45989 0.2269,4.651 0.5672,1.19111 2.4389,0.90751 3.5166,0.90751 h 46.6234 c 2.6658,0 10.7767,1.30455 12.7619,-0.62392 1.1344,-1.13439 0.5672,-4.19723 0.5672,-5.67194 v -15.20082 c 0,-1.41799 0.6239,-4.87787 -0.5672,-5.84211 -1.021,-0.79407 -3.0629,-0.45375 -4.254,-0.45375 h -10.72 c -1.1911,0 -3.233,-0.34032 -4.1972,0.45375 -1.6449,1.24783 -0.057,4.42412 -1.8717,5.95555 -1.0777,0.85079 -2.6659,0.62391 -3.9137,0.62391 -3.1763,0 -10.2662,1.30455 -12.8753,-0.62391 -1.418,-1.07767 -1.1911,-3.00613 -1.1911,-4.53756 v -10.7767 c 0,-7.31681 -1.1911,-15.71129 0.057,-22.91466 0.397,-2.15534 2.212,-3.63005 2.9494,-5.55851 0.7373,-1.98518 0.2836,-4.59428 0.2836,-6.6929 v -8.50792 c 0,-0.96423 0.2836,-2.6091 -0.5672,-3.34645 -0.8508,-0.62391 -2.4957,-0.34032 -3.4599,-0.34032 h -18.8876 c -0.5672,0 -1.3045,-0.11344 -1.9852,-0.11344 z m -48.2683,20.36229 c 3.3464,0 6.9765,0.45376 9.8692,0.45376 1.5881,0 4.1972,-0.45376 5.1615,1.19111 0.9642,1.53143 0.397,4.48084 0.397,6.23914 v 30.0046 c 0,1.64487 0.4537,4.14052 -1.4747,4.93459 -4.1405,1.64487 -11.5141,0.22688 -15.9382,0.22688 -1.3613,0 -3.8569,0.45376 -4.8211,-0.90751 -0.9643,-1.4747 -0.3404,-4.76443 -0.3404,-6.52274 v -30.34491 c 0,-1.58815 -0.4537,-4.08381 1.4747,-4.651 1.7016,-0.51048 3.6301,-0.62392 5.672,-0.62392 z"
       style="fill:#013369;fill-opacity:1;fill-rule:nonzero;stroke:none;stroke-width:0.70899862"
       inkscape:connector-curvature="0"
       inkscape:export-filename="C:\Users\alex\indianapolis-colts-logo-5.png"
       inkscape:export-xdpi="604.08069"
       inkscape:export-ydpi="604.08069" />
    <path
       d="m 349.9964,391.22403 c -46.46092,0.20785 -82.08797,-13.05904 -99.13958,-22.05921 -33.40824,-17.53618 -60.93412,-40.75325 -84.63321,-72.97687 -34.05859,-46.19441 -40.65124,-83.38993 -43.3648,-103.64605 -1.59524,-10.54695 -3.49143,-35.89612 0.0676,-58.63756 4.027,-32.81274 11.48421,-49.15664 16.81826,-65.15113 4.14813,-11.37072 17.52852,-38.737201 25.46902,-51.287452 6.74694,-9.8366835 19.06894,-27.96199 24.09439,-34.360807 1.37336,-2.009672 -0.40933,-1.058393 -1.16551,-1.037991 -1.84262,0.448861 -2.7939,0.562352 -4.21444,0.448861 -1.06477,0 -3.19558,-0.355773 -4.3815,-0.710271 -6.63344,-1.414167 -16.11435,-8.764263 -14.92844,-21.563173 -0.23464,-2.841085 2.84108,-27.237691 5.2129,-34.823694 3.0821,-10.654069 9.47454,-15.632344 20.85163,-16.583623 5.68217,0 29.60951,-0.475639 40.47781,1.219065 21.76336,2.163969 37.69665,8.496477 47.17118,27.687828 7.58473,16.818253 4.98465,43.118694 -5.44116,63.25494754 C 269.33282,7.8649815 262.2301,20.663891 256.06592,28.952515 c -5.68217,8.288623 -8.05399,12.564278 -13.03227,21.797805 -4.9719,9.70917 -21.55551,45.95978 -27.23768,69.64739 -10.81474,44.21152 -4.74364,69.65378 16.10161,104.24922 15.40408,22.97606 33.40824,39.56734 47.38541,47.14569 22.98244,14.44643 54.36699,18.48108 70.71726,18.48108 16.34899,0 47.73354,-4.03337 70.72363,-18.48108 13.9708,-7.57835 31.97496,-24.16963 47.37267,-47.14569 20.85163,-34.59544 26.92273,-60.0377 16.11436,-104.24922 C 478.52874,96.71138 461.93875,60.45949 456.96685,50.75032 451.99495,41.516793 449.62313,37.241138 443.93458,28.952515 437.78315,20.663891 430.66768,7.8649815 427.10995,0.99690054 416.69051,-19.138078 414.09044,-45.438518 421.66879,-62.258047 c 9.46816,-19.191351 25.41547,-25.522584 47.17119,-27.687828 10.86192,-1.694704 34.79564,-1.219065 40.47781,-1.219065 11.37709,0.951279 17.77591,5.929554 20.85163,16.583623 2.36544,7.584728 5.45391,31.982609 5.2129,34.823694 1.18591,12.79891 -8.28862,20.149006 -14.92844,21.563173 -1.17316,0.355773 -3.31673,0.710271 -4.3815,0.710271 -1.42054,0.113491 -2.36544,0 -4.21444,-0.448861 -0.75746,-0.0204 -2.53887,-0.971681 -1.16551,1.037991 5.02545,6.398817 17.34107,24.5241235 24.10204,34.360807 7.93285,12.550251 21.32089,39.915462 25.46138,51.287452 5.33404,15.99449 12.79125,32.33711 16.81825,65.15113 3.55773,22.74271 1.66155,48.09061 0.074,58.63756 -2.71994,20.25612 -9.29984,57.45164 -43.37245,103.64605 -23.69909,32.22362 -51.22497,55.44196 -84.62685,72.97687 -17.05288,8.99889 -52.67866,21.84371 -99.14724,22.05921"
       id="path8-9-1"
       inkscape:connector-curvature="0"
       style="fill:#ffffff;stroke-width:1.27517283"
       inkscape:export-filename="C:\Users\alex\indianapolis-colts-logo-3.png"
       inkscape:export-xdpi="276.48001"
       inkscape:export-ydpi="276.48001" />
    <path
       d="m 349.74137,340.09406 c 3.07572,0 5.57505,-2.49296 5.57505,-5.56868 0,-3.08209 -2.49933,-5.58143 -5.57505,-5.58143 -3.08209,0 -5.57506,2.49934 -5.57506,5.58143 0,3.07572 2.49297,5.56868 5.57506,5.56868 z M 201.33932,269.4954 c 3.08209,0 5.57505,-2.49297 5.57505,-5.57506 0,-3.08209 -2.49296,-5.58143 -5.57505,-5.58143 -3.07572,0 -5.57506,2.49934 -5.57506,5.58143 0,3.08209 2.49934,5.57506 5.57506,5.57506 z M 168.17845,140.62132 c 3.07572,0 5.57505,-2.49934 5.57505,-5.57506 0,-3.08847 -2.49933,-5.58143 -5.57505,-5.58143 -3.08209,0 -5.57506,2.49296 -5.57506,5.58143 0,3.07572 2.49297,5.57506 5.57506,5.57506 z m 65.38321,-151.629534 c 3.08208,0 5.57504,-2.492963 5.57504,-5.575055 0,-3.082093 -2.49296,-5.575056 -5.57504,-5.575056 -3.08209,0 -5.58143,2.492963 -5.58143,5.575056 0,3.082092 2.49934,5.575055 5.58143,5.575055 z m 270.7128,274.929824 c 0,-3.08209 -2.49934,-5.58143 -5.57505,-5.58143 -3.07572,0 -5.58143,2.49934 -5.58143,5.58143 0,3.0821 2.50571,5.57506 5.58143,5.57506 3.07571,0 5.57505,-2.49296 5.57505,-5.57506 z m 33.16725,-128.87407 c 0,-3.08847 -2.49934,-5.58144 -5.58143,-5.58144 -3.07572,0 -5.57506,2.49297 -5.57506,5.58144 0,3.07571 2.49934,5.57505 5.57506,5.57505 3.08209,0 5.58143,-2.49934 5.58143,-5.57505 z M 472.0585,-16.581994 c 0,-3.082093 -2.49934,-5.575056 -5.58143,-5.575056 -3.0821,0 -5.57506,2.492963 -5.57506,5.575056 0,3.082093 2.49296,5.575056 5.57506,5.575056 3.08209,0 5.58143,-2.492963 5.58143,-5.575056 z M 246.1119,348.05624 C 215.79213,330.05845 188.30705,307.31575 161.77326,263.54034 149.9269,241.92361 122.4482,195.96383 135.99691,115.89061 151.62926,42.679113 183.1018,5.7182275 201.10596,-19.630932 c 8.52326,-12.31562 -0.24101,-19.424708 -7.11546,-16.818255 -5.75613,2.184371 -9.70917,2.32464 -9.70917,2.32464 -10.1848,-1.379737 -8.76426,-8.006811 -6.86808,-25.308355 l 2.37182,-14.211801 c 2.12444,-12.556627 7.81299,-12.321995 22.73506,-12.033806 23.69271,0.469264 27.95434,0.66309 40.75196,3.028536 17.05926,3.792364 39.32505,20.8529 21.79653,67.757583 -10.90145,25.114529 -22.27217,33.637784 -34.59415,59.703592 -13.2669,28.906888 -45.48287,93.817018 -23.68634,149.257718 29.85051,74.39103 87.65537,100.92611 142.61914,101.87739 54.96378,-0.71665 118.45081,-33.1749 143.84587,-101.87739 C 515.04967,138.62695 482.83371,73.71809 469.56043,44.811202 457.24481,18.745394 445.8741,10.222139 434.97265,-14.89239 c -17.52853,-46.904683 4.74364,-63.965219 21.79652,-67.757583 12.79126,-2.365446 17.05927,-2.559272 40.75198,-3.028536 14.92207,-0.288189 20.61699,-0.522821 22.74781,12.033806 l 2.36544,14.211801 c 1.88981,17.301544 3.31673,23.928618 -6.86808,25.308355 0,0 -3.95304,-0.140269 -9.71554,-2.32464 -6.87446,-2.606453 -15.6451,4.502635 -7.11547,16.818255 18.01055,25.3491595 49.46906,62.310045 65.10905,135.521542 13.54871,80.07322 -13.92998,126.033 -25.77634,147.64973 -26.52742,43.77541 -54.0125,66.51811 -84.33866,84.5159 -41.50942,28.91327 -119.20825,27.24535 -104.28618,26.30682 15.63872,1.18591 -57.09459,3.07571 -103.52873,-26.30682 z"
       id="path10-5-2"
       inkscape:connector-curvature="0"
       style="fill:#002c5f;stroke-width:1.27517283"
       inkscape:export-filename="C:\Users\alex\indianapolis-colts-logo-3.png"
       inkscape:export-xdpi="276.48001"
       inkscape:export-ydpi="276.48001" />
  </g>
</svg>
