<?xml version="1.0" encoding="UTF-8" standalone="no"?>
<svg
   xmlns:dc="http://purl.org/dc/elements/1.1/"
   xmlns:cc="http://creativecommons.org/ns#"
   xmlns:rdf="http://www.w3.org/1999/02/22-rdf-syntax-ns#"
   xmlns:svg="http://www.w3.org/2000/svg"
   xmlns="http://www.w3.org/2000/svg"
   xmlns:sodipodi="http://sodipodi.sourceforge.net/DTD/sodipodi-0.dtd"
   xmlns:inkscape="http://www.inkscape.org/namespaces/inkscape"
   enable-background="new 0 0 500 500"
   viewBox="0 0 500 500"
   version="1.1"
   id="svg30"
   sodipodi:docname="miami-dolphins-logo.svg"
   inkscape:export-filename="C:\Users\suitedoalex\sites\miami-dolphins-logo-0.png"
   inkscape:export-xdpi="786.43201"
   inkscape:export-ydpi="786.43201"
   inkscape:version="0.92.4 (5da689c313, 2019-01-14)">
  <metadata
     id="metadata36">
    <rdf:RDF>
      <cc:Work
         rdf:about="">
        <dc:format>image/svg+xml</dc:format>
        <dc:type
           rdf:resource="http://purl.org/dc/dcmitype/StillImage" />
        <dc:title></dc:title>
      </cc:Work>
    </rdf:RDF>
  </metadata>
  <defs
     id="defs34" />
  <sodipodi:namedview
     pagecolor="#ffffff"
     bordercolor="#666666"
     borderopacity="1"
     objecttolerance="10"
     gridtolerance="10"
     guidetolerance="10"
     inkscape:pageopacity="0"
     inkscape:pageshadow="2"
     inkscape:window-width="1600"
     inkscape:window-height="837"
     id="namedview32"
     showgrid="false"
     inkscape:zoom="0.472"
     inkscape:cx="-129.17767"
     inkscape:cy="332.28724"
     inkscape:window-x="-8"
     inkscape:window-y="-8"
     inkscape:window-maximized="1"
     inkscape:current-layer="svg30" />
  <path
     inkscape:connector-curvature="0"
     style="fill:#005778;stroke-width:0.81462044"
     d="m 398.51888,169.27112 c -3.09556,0.73316 -10.67153,0.97754 -13.84855,0.97754 -3.25848,0 -7.82035,-0.48877 -14.82609,2.60679 -5.05065,2.19947 -8.39059,6.59842 -9.93837,8.87936 0.48877,-0.65169 0.89608,-1.22193 1.30339,-1.46632 0,0 5.13211,-5.86526 15.55925,-5.1321 -0.32584,0.57023 -0.65169,1.30339 -0.32584,2.03655 0.0815,0.0815 0.0815,0.16292 0.16292,0.32585 0,0 0,0.0815 0.0815,0.0815 0,0 3.74726,-1.22193 6.35404,-2.03655 5.70234,-1.46632 9.28667,-2.3624 13.19685,-3.99164 5.29504,-2.19948 7.00574,-3.09556 6.84281,-3.50287 -0.24438,-0.48877 -1.54777,0.48877 -4.56187,1.22193"
     id="path2"
     inkscape:export-filename="C:\Users\suitedoalex\sites\miami-dolphins-logo-4.png"
     inkscape:export-xdpi="95.920464"
     inkscape:export-ydpi="95.920464" />
  <path
     inkscape:connector-curvature="0"
     style="fill:#ffffff;stroke-width:0.81462044"
     d="m 361.20926,180.18703 c -0.40731,0.24439 -0.81462,0.81462 -1.30339,1.46632 -1.87363,2.68825 -4.23603,7.41305 -4.23603,7.41305 3.50287,-5.13211 14.41879,-9.53106 20.93575,-11.73054 -0.0815,-0.0815 -0.16292,-0.16292 -0.16292,-0.32585 -0.32585,-0.73316 0,-1.46631 0.32584,-2.03655 -10.42714,-0.65169 -15.55925,5.21357 -15.55925,5.21357"
     id="path4"
     inkscape:export-filename="C:\Users\suitedoalex\sites\miami-dolphins-logo-4.png"
     inkscape:export-xdpi="95.920464"
     inkscape:export-ydpi="95.920464" />
  <path
     inkscape:connector-curvature="0"
     style="fill:#f26a24;stroke-width:0.81462044"
     d="m 371.63641,301.89133 c -2.19948,4.48041 3.58432,18.41042 8.7979,22.56498 -3.82872,-1.14047 -24.03131,-6.92427 -27.28979,0.57024 -3.58433,8.22766 16.12949,38.28716 18.41042,43.90804 -9.04228,-9.04229 -33.96967,-29.24488 -37.47254,-26.88248 -3.50286,2.28094 -2.68824,13.60416 -1.7107,19.30651 -3.42141,-4.15457 -9.28667,-10.83445 -14.33732,-8.7979 -5.05065,1.95509 -4.48041,21.34305 -4.80626,29.57072 -4.15456,-9.69398 -10.99738,-29.16341 -17.35142,-28.51172 -6.35403,0.73316 -13.44123,14.01147 -14.74463,19.06212 -0.97754,-5.05065 -5.1321,-16.21096 -11.32322,-16.21096 -6.19111,0 -20.77282,29.57074 -25.17177,39.18325 0,-7.41305 1.79216,-43.66366 -2.19948,-45.45582 -3.91017,-1.79217 -17.26995,6.4355 -20.12112,10.26422 1.05901,-4.7248 1.95509,-20.85429 -1.54778,-22.80937 -3.58433,-1.95509 -13.68562,-2.52533 -31.93312,14.33731 3.01409,-6.51695 8.06474,-13.52269 9.28667,-20.36551 7.57597,-0.40731 15.07048,-1.22193 22.64645,-2.68825 16.5368,11.97492 36.73938,18.98066 58.73413,18.98066 55.39419,0 100.27978,-44.88558 100.27978,-100.27978 0,-4.31748 -0.24439,-8.63497 -0.81462,-12.78954 3.74725,-3.50286 7.25012,-6.84281 10.59006,-10.01983 -0.73315,1.79217 -1.14046,3.99164 -1.14046,6.67989 0.24438,8.47205 22.07621,10.26422 33.72528,11.1603 -13.03392,1.79216 -35.68037,11.1603 -31.36288,16.21095 4.31748,5.05064 16.86264,11.97492 18.6548,12.871 -6.02819,0 -25.742,2.03656 -27.94148,7.65743 -2.19947,5.62089 28.51172,24.2757 39.75348,28.67464 -14.01147,-4.0731 -47.32945,-10.67153 -49.61038,-6.19111"
     id="path6"
     inkscape:export-filename="C:\Users\suitedoalex\sites\miami-dolphins-logo-4.png"
     inkscape:export-xdpi="95.920464"
     inkscape:export-ydpi="95.920464" />
  <path
     inkscape:connector-curvature="0"
     style="fill:#f26a24;stroke-width:0.81462044"
     d="m 354.6923,157.86643 c -6.51696,1.3034 -13.35978,3.17702 -20.28405,5.78381 -15.80364,-10.34568 -34.70283,-16.37387 -54.98688,-16.37387 -55.39419,0 -100.27977,44.88558 -100.27977,100.19831 0,13.35978 2.60678,26.06785 7.33158,37.63546 -5.70234,4.23603 -11.1603,7.57597 -16.78118,10.18276 4.0731,-4.88772 7.65743,-14.25586 3.01409,-16.78118 -3.17702,-1.71071 -17.84018,-2.36241 -17.84018,-2.36241 0,0 16.53679,-11.07883 16.12948,-19.14357 -0.40731,-8.06474 -26.71955,-12.13785 -37.14669,-14.50024 9.20521,-1.9551 39.02032,-8.63499 40.24225,-14.66317 1.30339,-6.02819 -9.28667,-10.26422 -13.76709,-12.30077 4.96919,0.0815 17.67727,2.19946 19.30651,-3.99164 1.95509,-7.0872 -29.16341,-25.49762 -36.33208,-28.10441 1.54778,0.40731 31.28143,7.33159 42.11588,4.96919 8.06475,-1.7107 -1.30339,-12.62662 -2.93263,-13.93001 2.3624,1.14046 15.96656,3.99163 19.87674,-2.52532 3.91018,-6.43551 -9.28667,-32.17752 -16.69972,-43.09343 6.59843,6.51697 36.57646,27.86002 41.05687,24.27569 4.48041,-3.66579 1.05901,-15.39632 -1.30339,-19.22504 4.80626,4.56188 9.61252,10.59007 15.72217,10.42713 3.09556,-0.0815 6.92427,-10.2642 7.57597,-33.2365 4.15457,12.871 14.09293,30.38534 21.42452,29.32633 7.33158,-1.05901 9.77544,-11.89346 10.83445,-16.53679 0.81462,4.96918 4.64334,17.67726 9.53106,18.16604 5.94673,0.89608 17.43288,-25.66055 21.58744,-37.71693 0.6517,5.94672 -3.74725,36.41353 2.68825,38.93886 6.4355,2.52532 17.10703,-10.26423 23.13522,-17.51435 -3.66579,6.92428 -10.83445,23.78692 -6.59843,27.77856 4.23603,3.99164 18.98066,-0.16292 24.76446,-4.96918 -1.46631,3.74725 -1.79216,6.59843 -1.38485,9.28667"
     id="path8"
     inkscape:export-filename="C:\Users\suitedoalex\sites\miami-dolphins-logo-4.png"
     inkscape:export-xdpi="95.920464"
     inkscape:export-ydpi="95.920464" />
  <path
     inkscape:connector-curvature="0"
     style="fill:#008e97;stroke-width:0.81462044"
     d="m 433.38463,157.37766 c -7.65743,0.73316 -22.97229,6.27258 -22.97229,6.27258 -27.94148,-7.25012 -61.178,-8.06474 -101.90902,16.69972 -7.57597,4.64333 -14.5817,9.44959 -20.93574,14.33732 -6.43551,4.88772 -12.30077,9.8569 -17.84019,14.82609 -2.3624,2.11801 -5.45796,4.88772 -8.06474,7.57597 -13.19685,4.39895 -19.06212,0.32585 -37.22816,2.68825 -14.33732,1.87362 -19.9582,6.76135 -23.13522,10.67152 -0.40731,1.14047 -0.32585,2.11802 0.40731,2.68825 1.71071,1.38486 4.39895,0.6517 9.36814,0.32585 5.05064,-0.40731 12.62661,-0.24439 17.67726,2.93263 3.25848,2.03655 4.7248,6.84281 5.21357,9.61252 -3.74725,3.99164 -7.49451,7.90182 -11.1603,11.56761 -22.97229,22.72791 -38.36862,36.25061 -55.63857,43.01196 -37.47254,14.66317 -58.57121,-2.52532 -67.04326,-7.65743 -10.264218,-6.59842 -23.868379,-8.7979 -31.199963,-10.10129 -7.331584,-1.38486 -11.323224,-4.88773 -12.871003,-6.19112 -1.547779,-1.30339 -2.76971,-3.58433 -4.561875,-3.01409 -0.488772,0.16292 -0.81462,0.24438 -1.140469,0.57023 0.244387,-0.24439 0.651697,-0.40731 1.140469,-0.57023 0.244386,3.17702 10.915914,29.65218 44.722662,34.45844 9.693979,1.38486 12.708079,0.97755 14.500239,0.81462 -5.70234,-4.96918 -10.34567,-11.97492 -10.752985,-12.38223 1.303395,1.14047 2.606785,2.19948 3.910175,3.17702 10.1013,10.75299 21.50598,15.2334 31.19996,16.78118 0.65169,0.16293 10.10129,0.57024 10.10129,0.57024 11.07884,-0.24439 25.9864,-3.50287 39.75348,-7.49451 40.5681,-11.73054 79.66988,-46.92214 79.66988,-46.92214 0,0 -2.19948,9.4496 -3.0141,12.78954 -0.57023,2.68825 -2.52532,11.48615 -6.27257,20.77282 0,0 -1.14047,2.76971 -2.76971,6.19112 -2.44386,5.05064 -5.78381,11.48615 -5.78381,14.09293 v 0.32585 c 0,0 0,0.32585 0.16293,0.6517 3.01409,-1.62924 7.16866,-4.39895 11.89345,-8.39059 7.41305,-6.19112 16.69972,-15.47779 27.53418,-28.83757 24.35715,-29.97803 28.18586,-50.50646 45.29289,-66.55449 7.25012,-6.76135 26.23078,-17.26995 36.00622,-20.60989 0.0815,-0.0815 0.16293,-0.0815 0.24439,-0.0815 16.45533,-9.36813 32.58482,-16.69972 35.1916,-17.75872 9.61253,-3.91018 43.50074,-15.15194 47.08507,-9.53106 -1.54778,-6.51696 -9.20522,-9.04229 -16.78119,-8.30913 m -37.14669,14.09293 c -3.91018,1.54778 -7.41304,2.52533 -13.19685,3.99164 -2.60678,0.81462 -6.35404,2.03656 -6.35404,2.03656 0,0 0,-0.0815 -0.0815,-0.0815 -6.51696,2.19948 -17.43288,6.51697 -20.93575,11.73054 0.16293,-0.32585 2.3624,-4.80626 4.15457,-7.41305 1.54778,-2.28094 4.88772,-6.67989 9.93837,-8.87936 7.00573,-3.09556 11.56761,-2.60679 14.82609,-2.60679 3.25848,0 10.83445,-0.24438 13.84855,-0.97754 3.09556,-0.73316 4.39895,-1.7107 4.56187,-1.30339 0.24439,0.40731 -1.46631,1.38485 -6.76135,3.50286"
     id="path10"
     inkscape:export-filename="C:\Users\suitedoalex\sites\miami-dolphins-logo-4.png"
     inkscape:export-xdpi="95.920464"
     inkscape:export-ydpi="95.920464" />
  <path
     inkscape:connector-curvature="0"
     style="fill:#ffffff;stroke-width:0.81462044"
     d="m 261.49972,275.25324 c -0.57023,2.68824 -2.52532,11.48615 -6.27258,20.77282 -13.27831,7.00573 -34.45844,16.04802 -53.60202,20.52843 -37.71693,8.87937 -61.91116,1.14047 -65.98426,-0.16292 l -0.57023,-0.16292 c 0.89608,0.16292 10.10129,0.57023 10.10129,0.57023 1.95509,0.0815 27.6971,1.05901 55.96443,-9.53106 23.13522,-8.47205 45.86313,-22.23914 60.36337,-32.01458"
     id="path12"
     inkscape:export-filename="C:\Users\suitedoalex\sites\miami-dolphins-logo-4.png"
     inkscape:export-xdpi="95.920464"
     inkscape:export-ydpi="95.920464" />
  <path
     inkscape:connector-curvature="0"
     style="fill:#005778;stroke-width:0.81462044"
     d="m 264.51382,262.38223 c 0,0 -2.19948,9.4496 -3.0141,12.78955 -14.50024,9.77544 -37.22815,23.54253 -60.36337,32.01458 -28.26733,10.59006 -54.00934,9.61252 -55.96443,9.53106 11.07884,-0.24439 25.9864,-3.50287 39.75348,-7.49451 40.48664,-11.64907 79.58842,-46.84068 79.58842,-46.84068"
     id="path14"
     inkscape:export-filename="C:\Users\suitedoalex\sites\miami-dolphins-logo-4.png"
     inkscape:export-xdpi="95.920464"
     inkscape:export-ydpi="95.920464" />
  <path
     inkscape:connector-curvature="0"
     style="fill:#008e97;stroke-width:0.81462044"
     d="m 360.72049,245.84544 c -2.85117,8.87936 -7.33158,21.01721 -12.70808,31.28142 -6.4355,12.21931 -14.90755,20.6099 -19.38796,23.86838 -0.73316,-0.48877 -1.05901,-1.38485 -1.05901,-2.3624 0,-1.7107 3.74725,-10.67152 5.29503,-29.57072 4.80626,-3.58433 9.12375,-7.0872 12.95247,-10.26422 4.88772,-4.0731 9.93837,-8.47205 14.90755,-12.95246"
     id="path16"
     inkscape:export-filename="C:\Users\suitedoalex\sites\miami-dolphins-logo-4.png"
     inkscape:export-xdpi="95.920464"
     inkscape:export-ydpi="95.920464" />
  <path
     inkscape:connector-curvature="0"
     style="fill:#005778;stroke-width:0.81462044"
     d="m 137.84034,288.12424 c 0,1.22193 -0.16293,2.44386 -0.48878,3.66579 -0.57023,2.11802 -1.7107,4.7248 -3.50286,7.33159 -1.05901,1.62924 -2.93263,3.66579 -2.93263,3.66579 -0.32585,0 -1.7107,0.0815 -2.85117,0 -1.22193,-0.0815 -2.44386,-0.32585 -2.93263,-0.40731 -0.32585,-0.40731 15.23339,-10.99738 10.99736,-16.12949 0.24439,0 1.62924,-0.32584 1.71071,1.87363"
     id="path18"
     inkscape:export-filename="C:\Users\suitedoalex\sites\miami-dolphins-logo-4.png"
     inkscape:export-xdpi="95.920464"
     inkscape:export-ydpi="95.920464" />
  <path
     inkscape:connector-curvature="0"
     style="fill:#005778;stroke-width:0.81462044"
     d="m 448.12926,172.36668 c 0,0 -0.65169,0.89608 -2.68824,2.76971 -2.11802,1.79216 -5.62088,4.56187 -11.48615,8.1462 -5.62088,3.42141 -21.18013,14.01147 -33.15505,25.00885 -0.40731,0.40731 -32.4219,30.62973 -33.23652,31.36288 -0.0815,0.24439 -4.23602,15.72218 -14.17439,35.8433 -6.92428,14.09294 -17.35142,22.89084 -21.01721,24.92739 -0.24439,0.0815 -2.3624,1.46632 -3.82872,0.57023 4.48042,-3.25848 12.95247,-11.64907 19.38797,-23.86838 5.3765,-10.26421 9.85691,-22.40206 12.70808,-31.28142 -4.96919,4.48041 -10.01983,8.87936 -14.82609,12.871 -3.82872,3.17702 -8.14621,6.59843 -12.95247,10.26422 0,0 -10.34568,7.65743 -16.21094,11.48615 -3.25849,2.19947 -18.32896,11.56761 -27.45271,16.53679 -7.7389,4.23603 -23.94984,11.89346 -24.03131,11.89346 -8.47205,7.0872 -15.07047,10.42714 -16.86264,10.01983 -1.05901,-0.24438 -1.46632,-1.54778 -1.46632,-1.62924 3.0141,-1.62924 7.16866,-4.39895 11.89346,-8.39059 7.41305,-6.19111 16.69972,-15.47779 27.53417,-28.83756 24.35715,-29.97803 28.18587,-50.50647 45.2929,-66.47303 7.25012,-6.76135 26.23078,-17.26995 36.00622,-20.6099 0.0815,-0.0815 0.16293,-0.0815 0.24439,-0.0815 -11.1603,6.35404 -22.48353,13.68562 -29.81511,20.77282 -14.25586,13.35978 -19.14358,28.91903 -33.31797,50.26208 l -0.32585,0.57024 c 47.65529,-36.16915 84.5576,-78.04064 122.60037,-91.40042 1.22193,-0.40731 2.3624,-0.81462 3.50287,-1.22193 0.0815,0 0.0815,0 0.16292,-0.0815 12.95247,-4.39895 18.16604,-5.05064 18.57335,-2.60678 0.16292,1.059 -0.73316,2.60678 -1.05901,3.17702"
     id="path20"
     inkscape:export-filename="C:\Users\suitedoalex\sites\miami-dolphins-logo-4.png"
     inkscape:export-xdpi="95.920464"
     inkscape:export-ydpi="95.920464" />
  <path
     inkscape:connector-curvature="0"
     style="fill:#008e97;stroke-width:0.81462044"
     d="m 125.13227,302.3801 c -9.61252,-1.87363 -20.85429,-8.39059 -24.35715,-10.34568 1.22193,-1.14047 4.15456,-3.25848 9.69398,-2.93264 7.65743,0.48878 16.12948,1.05901 20.12112,-0.0815 3.4214,-1.059 4.0731,-2.52532 5.53941,-2.68824 4.23603,5.05064 -11.32321,15.55925 -10.99736,16.04802"
     id="path22"
     inkscape:export-filename="C:\Users\suitedoalex\sites\miami-dolphins-logo-4.png"
     inkscape:export-xdpi="95.920464"
     inkscape:export-ydpi="95.920464" />
  <path
     inkscape:connector-curvature="0"
     style="fill:#005778;stroke-width:0.81462044"
     d="m 224.43449,219.69612 c 18.16604,-2.3624 24.03131,1.71071 37.22816,-2.68824 2.60678,-2.60679 5.70234,-5.3765 8.06474,-7.57597 -3.74726,1.22193 -6.59843,1.95509 -9.36814,2.3624 -6.19111,1.22193 -10.67152,0.89608 -23.54253,2.60678 -20.20258,2.68825 -29.57072,8.96083 -32.25897,11.40469 -0.81462,0.73316 -1.38485,1.38485 -2.28093,2.52532 -0.57024,0.81462 -0.97755,1.79217 -1.05901,1.95509 3.25848,-3.74725 8.87936,-8.71644 23.21668,-10.59007"
     id="path24"
     inkscape:export-filename="C:\Users\suitedoalex\sites\miami-dolphins-logo-4.png"
     inkscape:export-xdpi="95.920464"
     inkscape:export-ydpi="95.920464" />
  <path
     inkscape:connector-curvature="0"
     style="fill:#005778;stroke-width:0.81462044"
     d="m 252.45744,302.29864 c -2.44387,5.05064 -5.78381,11.48614 -5.78381,14.09293 v 0.32585 c -30.79265,11.97492 -55.8015,11.48615 -55.96442,11.48615 -42.2788,2.03655 -75.59677,-15.23341 -75.59677,-15.23341 0,0 0,0 0,0 -0.0815,0 -0.32585,0 -0.6517,0 -3.99164,0 -23.623993,-0.32584 -36.494996,-6.27257 -14.092934,-6.51697 -22.239138,-16.78118 -25.742007,-24.52008 -2.606785,-5.7838 -2.769709,-7.57597 -1.955089,-8.30913 0.08146,-0.0815 0.162925,-0.16292 0.244387,-0.16292 0.244386,-0.16293 0.570234,-0.24439 0.896082,-0.32585 0.244386,3.17702 10.915914,29.65218 44.722662,34.45844 9.693981,1.38486 12.708081,0.97755 14.500241,0.81463 -5.70234,-4.96919 -10.34568,-11.97493 -10.752987,-12.38224 1.303397,1.14047 2.606787,2.19948 3.910177,3.17702 10.10129,10.75299 21.50598,15.23341 31.19995,16.78119 l 0.57024,0.16292 c 4.15456,1.38485 28.26733,9.04229 65.98426,0.16292 19.14358,-4.48041 40.32371,-13.5227 53.60202,-20.52843 0.0815,0 -1.059,2.85117 -2.68824,6.27258"
     id="path26"
     inkscape:export-filename="C:\Users\suitedoalex\sites\miami-dolphins-logo-4.png"
     inkscape:export-xdpi="95.920464"
     inkscape:export-ydpi="95.920464" />
</svg>
