<?xml version="1.0" encoding="UTF-8" standalone="no"?>
<svg
   xmlns:dc="http://purl.org/dc/elements/1.1/"
   xmlns:cc="http://creativecommons.org/ns#"
   xmlns:rdf="http://www.w3.org/1999/02/22-rdf-syntax-ns#"
   xmlns:svg="http://www.w3.org/2000/svg"
   xmlns="http://www.w3.org/2000/svg"
   xmlns:sodipodi="http://sodipodi.sourceforge.net/DTD/sodipodi-0.dtd"
   xmlns:inkscape="http://www.inkscape.org/namespaces/inkscape"
   version="1.1"
   id="Layer_2"
   x="0px"
   y="0px"
   viewBox="0 0 200 200"
   style="enable-background:new 0 0 200 200;"
   xml:space="preserve"
   sodipodi:docname="new-york-jets-logo.svg"
   inkscape:export-filename="C:\Users\suitedoalex\sites\new-york-jets-logo-0.png"
   inkscape:export-xdpi="1966.08"
   inkscape:export-ydpi="1966.08"
   inkscape:version="0.92.4 (5da689c313, 2019-01-14)"><metadata
     id="metadata27"><rdf:RDF><cc:Work
         rdf:about=""><dc:format>image/svg+xml</dc:format><dc:type
           rdf:resource="http://purl.org/dc/dcmitype/StillImage" /><dc:title></dc:title></cc:Work></rdf:RDF></metadata><defs
     id="defs25" /><sodipodi:namedview
     pagecolor="#ffffff"
     bordercolor="#666666"
     borderopacity="1"
     objecttolerance="10"
     gridtolerance="10"
     guidetolerance="10"
     inkscape:pageopacity="0"
     inkscape:pageshadow="2"
     inkscape:window-width="1600"
     inkscape:window-height="837"
     id="namedview23"
     showgrid="false"
     inkscape:zoom="1.18"
     inkscape:cx="100"
     inkscape:cy="100"
     inkscape:window-x="-8"
     inkscape:window-y="-8"
     inkscape:window-maximized="1"
     inkscape:current-layer="Layer_2" /><style
     type="text/css"
     id="style2">
	.st0{fill:#125740;}
	.st1{fill:#FFFFFF;}
</style><g
     id="g20"
     transform="matrix(0.88403211,0,0,0.88403211,11.596789,11.596789)"
     inkscape:export-filename="C:\Users\suitedoalex\sites\new-york-jets-logo-4.png"
     inkscape:export-xdpi="228.61757"
     inkscape:export-ydpi="228.61757"><path
       inkscape:connector-curvature="0"
       class="st0"
       d="m 104.1,119.5 c -0.4,0 -0.7,0 -1.1,0 -0.1,0.1 -0.2,0.2 -0.3,0.3 0.1,1.9 0.1,3.8 0,5.7 0.1,0.1 0.2,0.2 0.3,0.3 0.4,0 0.7,0 1.1,0 0.1,-0.1 0.2,-0.2 0.3,-0.3 0.2,-1.9 0.2,-3.8 0,-5.7 -0.1,-0.1 -0.2,-0.2 -0.3,-0.3 z"
       id="path4"
       style="fill:#125740" /><path
       inkscape:connector-curvature="0"
       class="st0"
       d="m 97.4,119.5 c -0.4,0 -0.7,0 -1.1,0 -0.1,0.1 -0.2,0.2 -0.3,0.3 -0.2,1.9 -0.2,3.8 0,5.7 0.1,0.1 0.2,0.2 0.3,0.3 0.4,0 0.7,0 1.1,0 0.1,-0.1 0.2,-0.2 0.3,-0.3 -0.1,-1.9 -0.1,-3.8 0,-5.7 -0.2,-0.1 -0.3,-0.2 -0.3,-0.3 z"
       id="path6"
       style="fill:#125740" /><path
       inkscape:connector-curvature="0"
       class="st0"
       d="m 100.7,119.5 c -0.4,0 -0.7,0 -1.1,0 -0.1,0.1 -0.2,0.2 -0.3,0.3 0,1.9 0,3.8 0,5.7 0.1,0.1 0.2,0.2 0.3,0.3 0.4,0 0.7,0 1.1,0 0.1,-0.1 0.2,-0.2 0.3,-0.3 0,-1.9 0,-3.8 0,-5.7 -0.1,-0.1 -0.2,-0.2 -0.3,-0.3 z"
       id="path8"
       style="fill:#125740" /><path
       inkscape:connector-curvature="0"
       class="st0"
       d="m 115.9,80 c 0.3,0 0.6,-0.1 0.9,-0.3 0.2,-0.2 0.4,-0.5 0.6,-0.9 l 1.2,-2.3 c 0.2,-0.3 0.3,-0.6 0.3,-0.8 0,-0.4 -0.2,-0.6 -0.7,-0.6 -0.3,0 -0.6,0.1 -0.8,0.3 -0.2,0.2 -0.4,0.5 -0.7,0.9 l -1.2,2.3 c -0.2,0.3 -0.3,0.6 -0.3,0.8 0,0.4 0.3,0.6 0.7,0.6 z"
       id="path10"
       style="fill:#125740" /><path
       inkscape:connector-curvature="0"
       class="st0"
       d="m 167.7,98 h -12.1 c 0.3,-0.6 0.5,-1.1 0.5,-1.8 0,-0.9 -1,-1.5 -2.8,-1.5 -2.2,0 -3.3,0.9 -3.3,1.9 0,0.9 1,1.2 6.2,2.4 5.2,1.2 7.1,2.4 7.1,5.2 0,2.3 -1,4.7 -3,6.7 -2.5,2.5 -6.3,4.1 -15.5,4.1 -11,0 -14.2,-1.8 -14.2,-5.6 0,-1.1 0.2,-2.3 0.9,-3.5 h 12.3 c -0.4,0.7 -0.5,1.3 -0.5,2 0,1 0.9,1.6 2.8,1.6 2.1,0 3.3,-0.8 3.3,-2.1 0,-1.2 -1.1,-1.5 -6.6,-2.9 -5.2,-1.3 -6.7,-2.3 -6.7,-5.1 0,-1.9 1,-4.2 2.9,-6.1 2.7,-2.7 6.5,-4.1 15.5,-4.1 10,0 13.7,1.6 13.7,5.4 0.2,1.2 0,2.2 -0.5,3.4 z M 118,113.6 c -1.2,-0.9 -2.6,-1.7 -4.2,-2.6 -3,-1.6 -6,-2.4 -8.5,-2.8 l 6.5,-12.3 h -8.3 l 3.3,-6.3 h 31.4 l -3.3,6.3 h -7.5 z m -11.8,11.9 c 0.1,0.1 0.2,0.2 0.2,0.3 0.4,0 0.7,0 1.1,0 0.1,-0.1 0.2,-0.2 0.4,-0.3 0.1,-0.6 0.2,-1.2 0.3,-1.7 1.1,0 2.2,0 3.3,-0.1 3.6,-0.1 7.1,-0.2 10.7,-0.5 l 0.6,0.7 v 0 0 c -0.8,2.7 -4.2,6 -9.5,8.8 -4.8,2.5 -10.3,3.2 -13,3.2 0,0 0,0 -0.1,0 0,0 0,0 0,0 0,0 0,0 0,0 v 0 c -2.7,0 -8.2,-0.7 -13,-3.2 -5.3,-2.8 -8.7,-6 -9.5,-8.8 l 0.6,-0.7 c 3.6,0.2 7.1,0.4 10.7,0.5 1.2,0 2.5,0.1 3.7,0.1 0,0.6 0.1,1.1 0.3,1.7 0.1,0.1 0.2,0.2 0.4,0.3 0.4,0 0.7,0 1.1,0 0.1,-0.1 0.2,-0.2 0.2,-0.3 -0.3,-1.9 -0.3,-3.7 0,-5.6 -0.1,-0.1 -0.2,-0.2 -0.2,-0.3 -0.4,0 -0.7,0 -1.1,0 -0.1,0.1 -0.2,0.2 -0.4,0.3 -0.1,0.6 -0.2,1.1 -0.3,1.7 -1.2,0 -2.5,0 -3.7,0.1 -3.6,0.1 -7.1,0.2 -10.7,0.5 l -0.6,-0.8 c 0,-0.1 0,-0.1 0,-0.2 0.8,-2.7 4.2,-6 9.5,-8.8 4.8,-2.6 10.3,-3.2 13,-3.2 0,0 0,0 0,0 0,0 0,0 0,0 0,0 0,0 0.1,0 2.8,0 8.2,0.7 13,3.2 5.3,2.8 8.7,6.1 9.5,8.8 0,0.1 0,0.2 0,0.3 l -0.6,0.8 c -3.6,-0.2 -7.1,-0.4 -10.7,-0.5 -1.1,0 -2.2,-0.1 -3.3,-0.1 0,-0.6 -0.1,-1.2 -0.3,-1.7 -0.1,-0.1 -0.2,-0.2 -0.4,-0.3 -0.4,0 -0.7,0 -1.1,0 -0.1,0.1 -0.2,0.2 -0.2,0.3 0.3,1.7 0.3,3.6 0,5.5 z m -28.8,-1.7 c 0,0 0,0 0,0 v 0 c 0,0 0,0 0,0 z M 75.1,89.7 h 29.2 L 101,95.9 H 86 l -1.7,3 h 15.1 l -3.2,6 h -15 L 79.5,108 H 95 l -0.1,0.1 c -2.5,0.4 -5.7,1.3 -8.7,2.9 -1.9,1 -3.6,2.1 -5,3.2 H 62 Z m -29.4,25.2 c -10,0 -14.1,-2.4 -14.1,-6.9 0,-2.3 0.6,-3.9 1.9,-6.4 l 1.6,-3 H 48 l -3.2,6.1 c -0.4,0.8 -0.7,1.6 -0.7,2.2 0,0.9 0.4,1.5 1.6,1.5 1.7,0 2.5,-1.1 3.6,-3.2 l 8.2,-15.7 h 15.1 l -6.9,13.1 c -2,3.7 -3.2,5.7 -5.1,7.7 -2.9,3.1 -7.7,4.6 -14.9,4.6 z M 50.3,73 h 5 l 0.9,3.9 2,-3.9 h 4.4 l -4.8,9 H 53 L 52.1,77.8 49.9,82 h -4.4 z m 25.1,0 -1.2,2.3 H 68.7 L 68,76.4 h 5.1 L 72,78.6 h -5.1 l -0.6,1.1 H 72 L 70.8,82 h -11 l 4.8,-9 z m 6.2,0 -1.1,4.2 3.1,-4.2 h 5.1 l -1.2,4.2 3.3,-4.2 h 4.9 l -8.1,9 H 82.2 L 83,78.5 80,82 h -5.4 l 1.7,-9 z m 17.8,0 h 5.5 l -0.1,2.8 2.8,-2.8 h 5.1 l -7.2,6.2 -1.5,2.8 h -5.7 l 1.6,-3 z m 23.6,0.5 c 0.9,0.4 1.3,1.1 1.3,1.9 0,0.6 -0.2,1.4 -0.6,2.3 -0.6,1.3 -1.3,2.3 -1.9,2.9 -1.2,1.2 -3.2,1.7 -6.1,1.7 -2.1,0 -3.6,-0.2 -4.5,-0.7 -0.9,-0.4 -1.3,-1.1 -1.3,-1.9 0,-0.6 0.2,-1.4 0.6,-2.3 0.6,-1.3 1.3,-2.3 1.9,-2.9 1.2,-1.2 3.2,-1.7 6.1,-1.7 2,0 3.5,0.2 4.5,0.7 z M 135.8,73 c 1.1,0 1.9,0.2 2.3,0.6 0.3,0.3 0.5,0.8 0.5,1.3 0,0.9 -0.3,1.6 -0.9,2.3 -0.3,0.3 -0.7,0.6 -1,0.7 -0.3,0.1 -0.8,0.3 -1.4,0.4 0.9,0.3 1.3,0.7 1.3,1.2 0,0.3 -0.1,0.7 -0.3,1.1 L 135.6,82 H 130 l 0.9,-1.8 c 0.1,-0.2 0.2,-0.4 0.2,-0.6 0,-0.4 -0.2,-0.6 -0.7,-0.6 h -0.8 l -1.6,2.9 h -5.4 l 4.8,-9 h 8.4 z m 11.7,0 -2.2,4.1 4.5,-4.1 h 5.1 l -5,4.4 0.6,4.6 h -5.4 l -0.3,-4 -2.1,4 h -5.6 l 4.8,-9 z m 42,22.3 c -3.2,-10.7 -17.2,-23.4 -37.4,-34.1 -17.9,-9.4 -39,-12.7 -51.7,-12.7 -0.1,0 -0.2,0 -0.2,0 H 100 c -0.1,0 -0.1,0 -0.2,0 -12.8,0 -34,3.3 -51.8,12.7 -20.3,10.6 -34.2,23.3 -37.5,34.1 -0.3,1.5 -0.4,3.1 -0.4,4.7 v 0 0 c 0,1.6 0.1,3.2 0.4,4.7 3.2,10.7 17.2,23.4 37.4,34.1 18,9.5 39.2,12.8 52,12.7 h 0.2 c 0.1,0 0.1,0 0.2,0 12.7,0 33.9,-3.3 51.7,-12.7 20.2,-10.6 34.2,-23.3 37.4,-34.1 0.3,-1.5 0.4,-3.1 0.4,-4.7 v 0 c 0.1,-1.6 -0.1,-3.2 -0.3,-4.7 z"
       id="path12"
       style="fill:#125740" /><g
       id="g18"><path
         inkscape:connector-curvature="0"
         class="st0"
         d="m 132.6,76.7 0.2,-0.4 c 0.1,-0.2 0.1,-0.4 0.1,-0.5 0,-0.3 -0.2,-0.4 -0.6,-0.4 h -0.8 l -1.2,2.1 h 1 c 0.6,-0.1 1,-0.3 1.3,-0.8 z"
         id="path14"
         style="fill:#125740" /><path
         inkscape:connector-curvature="0"
         class="st1"
         d="m 86.2,111.1 c 3.1,-1.6 6.2,-2.5 8.7,-2.9 L 95,108 H 79.5 l 1.7,-3.1 h 15.1 l 3.2,-6 H 84.4 l 1.7,-3 h 15 l 3.3,-6.2 H 75.1 L 62,114.3 h 19.1 c 1.5,-1.1 3.2,-2.2 5.1,-3.2 z m -8.8,12.7 c 0,0 0,0 0,0 v 0 c 0,0 0,0 0,0 z M 72.6,89.7 H 57.5 l -8.2,15.7 c -1.1,2.1 -2,3.2 -3.6,3.2 -1.1,0 -1.6,-0.6 -1.6,-1.5 0,-0.6 0.3,-1.5 0.7,-2.2 L 48,98.8 H 35.1 l -1.6,3 c -1.4,2.5 -1.9,4.1 -1.9,6.4 0,4.5 4.1,6.9 14.1,6.9 7.2,0 12,-1.5 14.9,-4.4 2,-2 3.2,-4 5.1,-7.7 z m 82.1,-0.6 c -9.1,0 -12.8,1.4 -15.5,4.1 -1.9,1.9 -2.9,4.2 -2.9,6.1 0,2.8 1.5,3.8 6.7,5.1 5.5,1.4 6.6,1.7 6.6,2.9 0,1.3 -1.2,2.1 -3.3,2.1 -1.9,0 -2.8,-0.6 -2.8,-1.6 0,-0.7 0.2,-1.3 0.5,-2 h -12.3 c -0.6,1.3 -0.9,2.4 -0.9,3.5 0,3.8 3.2,5.6 14.2,5.6 9.3,0 13,-1.6 15.5,-4.1 2,-2 3,-4.3 3,-6.7 0,-2.8 -1.9,-4 -7.1,-5.2 -5.2,-1.2 -6.2,-1.6 -6.2,-2.4 0,-1 1.1,-1.9 3.3,-1.9 1.8,0 2.8,0.6 2.8,1.5 0,0.7 -0.2,1.2 -0.5,1.8 h 12.1 c 0.5,-1.2 0.7,-2.2 0.7,-3.5 -0.2,-3.7 -3.8,-5.3 -13.9,-5.3 z m -50.3,36.4 c -0.1,0.1 -0.2,0.2 -0.3,0.3 -0.4,0 -0.7,0 -1.1,0 -0.1,-0.1 -0.2,-0.2 -0.3,-0.3 0.1,-1.9 0.1,-3.8 0,-5.7 0.1,-0.1 0.2,-0.2 0.3,-0.3 0.4,0 0.7,0 1.1,0 0.1,0.1 0.2,0.2 0.3,0.3 0.2,1.9 0.2,3.8 0,5.7 z m -3.4,0 c -0.1,0.1 -0.2,0.2 -0.3,0.3 -0.4,0 -0.7,0 -1.1,0 -0.1,-0.1 -0.2,-0.2 -0.3,-0.3 0,-1.9 0,-3.8 0,-5.7 0.1,-0.1 0.2,-0.2 0.3,-0.3 0.4,0 0.7,0 1.1,0 0.1,0.1 0.2,0.2 0.3,0.3 0.1,1.9 0.1,3.8 0,5.7 z m -3.4,0 c -0.1,0.1 -0.2,0.2 -0.3,0.3 -0.4,0 -0.7,0 -1.1,0 -0.1,-0.1 -0.2,-0.2 -0.3,-0.3 -0.2,-1.9 -0.2,-3.8 0,-5.7 0.1,-0.1 0.2,-0.2 0.3,-0.3 0.4,0 0.7,0 1.1,0 0.1,0.1 0.2,0.2 0.3,0.3 -0.1,1.9 -0.1,3.8 0,5.7 z m 9.9,-5.9 c 0.1,0.1 0.2,0.2 0.4,0.3 0.1,0.6 0.2,1.2 0.3,1.7 1.1,0 2.2,0 3.3,0.1 3.6,0.1 7.1,0.2 10.7,0.5 l 0.6,-0.8 c 0,-0.1 0,-0.2 0,-0.3 -0.8,-2.7 -4.2,-6 -9.5,-8.8 -4.8,-2.5 -10.3,-3.2 -13,-3.2 0,0 0,0 -0.1,0 0,0 0,0 0,0 0,0 0,0 0,0 -2.7,0 -8.2,0.7 -13,3.2 -5.3,2.8 -8.7,6.1 -9.5,8.8 0,0.1 0,0.1 0,0.2 l 0.6,0.8 c 3.6,-0.2 7.1,-0.4 10.7,-0.5 1.2,0 2.5,-0.1 3.7,-0.1 0,-0.6 0.1,-1.1 0.3,-1.7 0.1,-0.1 0.2,-0.2 0.4,-0.3 0.4,0 0.7,0 1.1,0 0.1,0.1 0.2,0.2 0.2,0.3 -0.3,1.9 -0.3,3.7 0,5.6 -0.1,0.1 -0.2,0.2 -0.2,0.3 -0.4,0 -0.7,0 -1.1,0 -0.1,-0.1 -0.2,-0.2 -0.4,-0.3 -0.1,-0.6 -0.2,-1.1 -0.3,-1.7 -1.2,0 -2.5,0 -3.7,-0.1 -3.6,-0.1 -7.1,-0.2 -10.7,-0.5 l -0.6,0.7 c 0.8,2.7 4.2,6 9.5,8.8 4.8,2.6 10.3,3.2 13,3.2 v 0 c 0,0 0,0 0,0 0,0 0,0 0,0 0,0 0,0 0.1,0 2.8,0 8.2,-0.7 13,-3.2 5.3,-2.8 8.7,-6.1 9.5,-8.8 v 0 0 l -0.6,-0.7 c -3.6,0.2 -7.1,0.4 -10.7,0.5 -1.1,0 -2.2,0.1 -3.3,0.1 0,0.6 -0.1,1.2 -0.3,1.7 -0.1,0.1 -0.2,0.2 -0.4,0.3 -0.4,0 -0.7,0 -1.1,0 -0.1,-0.1 -0.2,-0.2 -0.2,-0.3 0.3,-1.9 0.3,-3.7 0,-5.6 0.1,-0.1 0.2,-0.2 0.2,-0.3 0.3,0.1 0.7,0.1 1.1,0.1 z M 189.9,100 c 0,1.6 -0.1,3.2 -0.4,4.7 -3.2,10.7 -17.2,23.4 -37.4,34.1 -17.9,9.4 -39,12.7 -51.7,12.7 -0.1,0 -0.1,0 -0.2,0 H 100 c -12.7,0 -34,-3.3 -52,-12.7 -20.2,-10.6 -34.2,-23.3 -37.4,-34.1 -0.3,-1.5 -0.4,-3.1 -0.4,-4.7 v 0 0 c 0,-1.6 0.1,-3.2 0.4,-4.7 C 13.8,84.5 27.7,71.8 48,61.2 65.9,51.8 87,48.5 99.7,48.5 c 0.1,0 0.1,0 0.2,0 h 0.2 c 0.1,0 0.2,0 0.2,0 12.7,0 33.8,3.3 51.7,12.7 20.2,10.6 34.2,23.3 37.4,34.1 0.3,1.5 0.5,3.1 0.5,4.7 z m 4.6,-5.8 -0.1,-0.3 c -3.6,-12.2 -18.2,-25.8 -40,-37.3 -18.7,-9.8 -40.8,-13.3 -54.1,-13.3 -0.1,0 -0.2,0 -0.2,0 h -0.2 c -0.1,0 -0.1,0 -0.2,0 -13.3,0 -35.4,3.5 -54.1,13.3 C 23.7,68.1 9.2,81.7 5.6,93.9 L 5.5,94.2 C 5.2,96.1 5,98 5,100 c 0,2 0.2,3.9 0.5,5.8 l 0.1,0.3 c 3.6,12.2 18.2,25.8 40,37.3 18.7,9.8 40.8,13.3 54.1,13.3 0.1,0 0.2,0 0.2,0 h 0.2 c 0.1,0 0.1,0 0.2,0 13.3,0 35.4,-3.5 54.1,-13.3 21.8,-11.5 36.4,-25.1 40,-37.3 l 0.1,-0.3 c 0.4,-1.9 0.5,-3.9 0.5,-5.8 0,-2 -0.2,-3.9 -0.5,-5.8 z M 52.1,77.9 53,82.1 h 4.7 l 4.8,-9 h -4.4 l -2,3.9 -0.8,-4 h -5 l -4.8,9 h 4.4 z m 86.2,11.8 h -31.4 l -3.3,6.3 h 8.3 l -6.5,12.3 c 2.5,0.5 5.5,1.3 8.5,2.8 1.5,0.8 2.9,1.7 4.2,2.6 l 9.4,-17.6 h 7.5 z m 4.4,-7.6 2.1,-4 0.3,4 h 5.4 l -0.6,-4.6 5,-4.4 h -5.1 l -4.5,4.1 2.2,-4.1 H 142 l -4.8,9 z m -72,0 1.2,-2.3 h -5.7 l 0.6,-1.1 H 72 l 1.2,-2.2 H 68 l 0.6,-1.1 h 5.5 l 1.2,-2.3 H 64.6 l -4.8,9 z m 33.2,0 1.5,-2.8 7.2,-6.2 h -5.1 l -2.8,2.8 0.1,-2.8 h -5.5 l 0.4,6.1 -1.6,3 h 5.8 z m 11.6,-3.6 1.2,-2.3 c 0.2,-0.4 0.4,-0.7 0.7,-0.9 0.2,-0.2 0.5,-0.3 0.8,-0.3 0.5,0 0.7,0.2 0.7,0.6 0,0.2 -0.1,0.5 -0.3,0.8 l -1.2,2.3 c -0.2,0.4 -0.4,0.7 -0.6,0.9 -0.2,0.2 -0.5,0.3 -0.9,0.3 -0.5,0 -0.7,-0.2 -0.7,-0.6 0,-0.1 0.1,-0.4 0.3,-0.8 z m -5,-1.1 c -0.4,0.9 -0.6,1.6 -0.6,2.3 0,0.9 0.4,1.5 1.3,1.9 0.9,0.4 2.4,0.7 4.5,0.7 2.9,0 4.9,-0.6 6.1,-1.7 0.6,-0.6 1.3,-1.6 1.9,-2.9 0.4,-0.9 0.6,-1.6 0.6,-2.3 0,-0.9 -0.4,-1.5 -1.3,-1.9 -0.9,-0.4 -2.4,-0.7 -4.5,-0.7 -2.9,0 -4.9,0.6 -6.1,1.7 -0.6,0.7 -1.3,1.6 -1.9,2.9 z m -30.4,4.7 3,-3.5 -0.8,3.5 h 5.4 l 8.1,-9 h -4.9 l -3.3,4.2 1.2,-4.2 h -5.1 l -3.1,4.2 1.1,-4.2 h -5.2 l -1.7,9 z m 51.5,-6.8 h 0.8 c 0.4,0 0.6,0.1 0.6,0.4 0,0.1 0,0.3 -0.1,0.5 l -0.2,0.4 c -0.3,0.5 -0.6,0.8 -1.1,0.8 h -1 z m -3.6,6.8 1.6,-2.9 h 0.8 c 0.5,0 0.7,0.2 0.7,0.6 0,0.2 -0.1,0.4 -0.2,0.6 l -0.9,1.8 h 5.5 l 0.7,-1.4 c 0.2,-0.4 0.3,-0.8 0.3,-1.1 0,-0.6 -0.4,-1 -1.3,-1.2 0.6,-0.1 1,-0.2 1.4,-0.4 0.4,-0.2 0.7,-0.4 1,-0.7 0.6,-0.6 0.9,-1.4 0.9,-2.3 0,-0.6 -0.2,-1 -0.5,-1.3 -0.4,-0.4 -1.2,-0.6 -2.3,-0.6 h -8.4 l -4.8,9 h 5.5 z"
         id="path16"
         style="fill:#ffffff" /></g></g></svg>