<?xml version="1.0" encoding="UTF-8" standalone="no"?>
<svg
   xmlns:dc="http://purl.org/dc/elements/1.1/"
   xmlns:cc="http://creativecommons.org/ns#"
   xmlns:rdf="http://www.w3.org/1999/02/22-rdf-syntax-ns#"
   xmlns:svg="http://www.w3.org/2000/svg"
   xmlns="http://www.w3.org/2000/svg"
   xmlns:sodipodi="http://sodipodi.sourceforge.net/DTD/sodipodi-0.dtd"
   xmlns:inkscape="http://www.inkscape.org/namespaces/inkscape"
   viewBox="0 0 500 500"
   version="1.1"
   id="svg22"
   sodipodi:docname="san-francisco-49ers-logo.svg"
   inkscape:version="0.92.4 (5da689c313, 2019-01-14)"
   inkscape:export-filename="C:\Users\suitedoalex\sites\san-francisco-49ers-logo-0.png"
   inkscape:export-xdpi="786.43201"
   inkscape:export-ydpi="786.43201">
  <metadata
     id="metadata28">
    <rdf:RDF>
      <cc:Work
         rdf:about="">
        <dc:format>image/svg+xml</dc:format>
        <dc:type
           rdf:resource="http://purl.org/dc/dcmitype/StillImage" />
        <dc:title>Logos/Clubs/SF/Primary</dc:title>
      </cc:Work>
    </rdf:RDF>
  </metadata>
  <defs
     id="defs26" />
  <sodipodi:namedview
     pagecolor="#ffffff"
     bordercolor="#666666"
     borderopacity="1"
     objecttolerance="10"
     gridtolerance="10"
     guidetolerance="10"
     inkscape:pageopacity="0"
     inkscape:pageshadow="2"
     inkscape:window-width="1600"
     inkscape:window-height="837"
     id="namedview24"
     showgrid="false"
     inkscape:zoom="0.472"
     inkscape:cx="250"
     inkscape:cy="250"
     inkscape:window-x="-8"
     inkscape:window-y="-8"
     inkscape:window-maximized="1"
     inkscape:current-layer="svg22" />
  <title
     id="title2">Logos/Clubs/SF/Primary</title>
  <desc
     id="desc4">Created with Sketch.</desc>
  <path
     inkscape:connector-curvature="0"
     style="fill:#ffffff;stroke-width:0.83651513"
     d="m 251.06949,369.39582 c 68.37508,0 135.74298,-23.18068 171.62613,-59.06634 18.22434,-18.22182 27.85596,-39.26435 27.85596,-60.86569 0,-21.44239 -9.50616,-42.27663 -27.48204,-60.25418 -35.60627,-35.60125 -103.1214,-58.60543 -172.00005,-58.60543 -48.23263,0 -97.45151,11.35152 -135.03781,31.14515 -42.938335,22.60849 -66.583265,53.76115 -66.583265,87.71363 0,21.29181 9.53878,42.08257 27.58995,60.12788 18.04028,18.03443 44.251655,33.21132 75.808355,43.88191 30.79713,10.41879 64.76551,15.92138 98.22192,15.92138"
     id="path8"
     inkscape:export-filename="C:\Users\suitedoalex\sites\san-francisco-49ers-logo-4.png"
     inkscape:export-xdpi="95.73597"
     inkscape:export-ydpi="95.73597" />
  <path
     inkscape:connector-curvature="0"
     style="fill:#000000;stroke-width:0.83651513"
     d="m 119.00884,167.40416 c -40.734955,21.44993 -63.170275,50.59412 -63.170275,82.05963 0,19.56024 8.89466,38.78587 25.72199,55.61488 17.34599,17.34013 42.704115,31.98416 73.332275,42.34188 30.14885,10.19546 63.40785,15.5868 96.1775,15.5868 66.7631,0 132.35928,-22.45375 167.10895,-57.1984 16.99633,-16.99047 25.98133,-36.47541 25.98133,-56.34516 0,-19.71164 -8.85451,-38.98411 -25.60991,-55.737 C 384.08543,159.26321 318.34205,136.996 251.07115,136.996 c -47.22461,0 -95.3602,11.08132 -132.06063,30.40733"
     id="path10"
     inkscape:export-filename="C:\Users\suitedoalex\sites\san-francisco-49ers-logo-4.png"
     inkscape:export-xdpi="95.73597"
     inkscape:export-ydpi="95.73597" />
  <path
     inkscape:connector-curvature="0"
     style="fill:#b3995d;stroke-width:0.83651513"
     d="m 250.9507,351.68176 c 58.93751,0 114.79079,-19.23315 145.75273,-50.18755 15.61775,-15.61942 23.87163,-33.44556 23.87163,-51.55862 0,-18.10972 -8.25388,-35.93586 -23.87163,-51.55193 -30.96612,-30.95858 -86.81522,-50.18755 -145.75273,-50.18755 -43.27627,0 -86.35848,10.68145 -118.19541,29.30981 -33.165315,19.40548 -51.433135,45.12749 -51.433135,72.42884 0,18.11389 8.25725,35.93919 23.879165,51.55861 30.95859,30.95441 86.80853,50.18757 145.74938,50.18757"
     id="path12"
     inkscape:export-filename="C:\Users\suitedoalex\sites\san-francisco-49ers-logo-4.png"
     inkscape:export-xdpi="95.73597"
     inkscape:export-ydpi="95.73597" />
  <path
     inkscape:connector-curvature="0"
     style="fill:#aa0000;stroke-width:0.83651513"
     d="m 251.25686,348.06886 c 86.39111,0 156.42918,-44.75273 156.42918,-98.67617 0,-53.92344 -70.03807,-97.63637 -156.42918,-97.63637 -86.39444,0 -156.429175,43.71293 -156.429175,97.63637 0,53.92344 70.034735,98.67617 156.429175,98.67617"
     id="path14"
     inkscape:export-filename="C:\Users\suitedoalex\sites\san-francisco-49ers-logo-4.png"
     inkscape:export-xdpi="95.73597"
     inkscape:export-ydpi="95.73597" />
  <path
     inkscape:connector-curvature="0"
     style="fill:#000000;stroke-width:0.83651513"
     d="m 373.61311,237.12688 h -0.43165 v -3.56272 h -62.06523 c -1.33173,-6.97822 -5.34533,-13.45619 -11.07882,-18.51293 -5.6473,-6.48884 -13.84682,-11.36907 -23.18737,-13.22279 l -3.86553,-0.79888 c -8.95907,-1.88215 -16.03599,-3.37199 -44.50009,-3.22476 0,-0.003 -5.475,-0.18738 -10.79104,-0.89255 -1.34596,-0.34215 -2.52294,-0.74869 -3.53429,-1.18786 0.39233,-2.36818 4.72213,-5.63226 9.61407,-6.26215 0.50358,-0.0937 31.31161,-5.76193 63.01971,14.7737 l 0.77712,0.50022 h 20.84094 v -31.88711 h -3.56355 v -3.56272 h -28.59794 l -4.82,3.6815 c -8.23549,-2.06201 -48.56056,-10.88724 -83.38885,4.35825 -14.63568,6.04633 -23.71689,17.4589 -23.06858,29.0505 0.3279,5.84473 3.12438,10.94077 7.96194,14.89247 3.55602,4.44105 9.14981,7.90339 16.43502,10.00473 10.30921,2.96878 19.04075,4.19261 27.50713,4.67862 v 14.53613 h 3.56021 v 3.56272 h 10.8772 c 4.50296,0 5.66237,2.49448 5.93926,3.42302 -13.87946,-0.90679 -34.98307,-4.85513 -50.51882,-19.22898 l -0.58306,-0.62989 h -0.11126 c -0.85658,-0.82063 -1.69895,-1.66969 -2.52292,-2.55556 l -0.93189,-1.00381 h -15.63614 v 45.3868 h 3.56356 v 3.55602 h 12.75686 c 1.86794,0.13304 7.79296,-0.52533 11.8852,-12.47746 6.63357,2.31381 22.98242,7.23419 43.11399,7.78126 v 28.23741 c -0.69849,9.48357 -21.58962,12.44902 -28.86395,12.73679 l -3.00895,0.11884 v 14.03925 h 3.56021 v 3.55602 h 91.71804 v -13.43109 l -2.33639,-0.61903 c -0.42077,-0.10795 -0.82397,-0.21916 -1.22717,-0.33125 v -3.07336 l -2.86172,-0.2451 c -5.15794,-0.45674 -9.1247,-1.34929 -12.19889,-2.44764 -5.77029,-3.23145 -6.75653,-5.85226 -6.88202,-6.27637 v -15.05477 h 26.88059 c 2.83996,0.4283 5.27338,1.67387 7.33539,3.28918 3.86973,4.76479 5.63644,10.21385 5.66238,10.30419 l 0.68761,2.2059 2.3071,0.007 h 0.0753 c 0.32039,0.80974 0.48602,1.32086 0.49689,1.3493 l 0.68428,2.21007 2.31045,0.003 h 12.13365 v -54.6144 h -3.56355 v -3.56272 h -14.38305 l -0.51445,2.49448 c -3.76515,18.14988 -24.7575,17.88302 -43.42017,15.16267 3.66059,-0.99293 7.33541,-2.20254 11.00018,-3.6564 9.99217,-3.96927 17.48987,-9.36814 22.16515,-15.6947 h 40.28906 c 2.80734,0.0903 5.19392,0.79552 7.20239,2.10886 4.22189,6.19021 3.80112,15.31742 3.79359,15.42115 l -0.1765,3.30423 h 3.74675 l -0.003,0.2518 -0.17985,3.30423 3.30758,0.007 h 12.74598 v -42.28083 h -3.13526"
     id="path16"
     inkscape:export-filename="C:\Users\suitedoalex\sites\san-francisco-49ers-logo-4.png"
     inkscape:export-xdpi="95.73597"
     inkscape:export-ydpi="95.73597" />
  <path
     inkscape:connector-curvature="0"
     style="fill:#ffffff;stroke-width:0.83651513"
     d="m 309.35536,248.30941 c 2.93365,-3.5485 3.07,-11.60999 3.07,-11.60999 h 57.62 v 36.01113 h -9.60737 c 0,0 1.37105,-23.78881 -17.69482,-24.40114 h -33.38866 z m -67.95432,30.75281 c 12.96515,0.27688 23.96199,-2.47275 23.96199,-2.47275 3.30088,-0.73027 47.94151,12.36956 53.98116,-16.74953 h 8.69306 v 48.3447 h -8.99839 c 0,0 -5.33781,-17.39031 -19.21392,-19.37284 h -30.35797 v 18.45938 c 0,0 0.1154,12.94172 25.50617,15.14091 v 7.88919 h -85.44752 v -7.88919 c 0,0 30.89085,-1.20206 31.87709,-15.69469 v -27.65435 z m 26.65723,-47.56761 c -4.13237,-1.25644 -10.11096,-1.5258 -16.98963,-1.78847 -24.61277,-0.9394 -40.10168,1.99341 -64.39828,-5.00989 -27.57572,-7.94689 -22.62605,-34.06038 2.6275,-44.49758 37.57125,-16.44757 82.82002,-3.81117 82.82002,-3.81117 l 5.19057,-3.96591 h 24.40451 v 25.62078 h -16.7805 c -33.24814,-21.53608 -65.12857,-15.25217 -65.12857,-15.25217 -10.37362,1.34259 -20.44108,12.78026 -2.74961,17.20293 5.6473,0.76289 11.44269,0.94693 11.44269,0.94693 32.10377,-0.16897 36.55236,1.7458 47.74326,3.96258 29.08396,5.76526 45.17349,42.53929 2.89769,59.329 -43.64351,17.32925 -89.5364,-1.34596 -89.5364,-1.34596 -3.81201,14.33787 -9.75795,13.4244 -9.75795,13.4244 h -9.76214 v -39.11712 h 11.12985 c 26.08923,28.20478 70.77587,23.37892 70.77587,23.37892 0,0 13.27131,-0.33795 21.96354,-8.53998 6.78832,-8.28484 5.71256,-17.13852 -5.89242,-20.53562 z m -36.45868,15.86451 h -11.58991 v -10.387 c 8.98418,0 27.31306,0.0794 40.28155,0 13.04463,0 14.79043,7.54369 9.29034,12.64643 -5.18305,4.80829 -16.03935,8.23047 -28.89324,5.89157 0,0 -1.06153,-8.15183 -9.08874,-8.15183 z"
     id="path18"
     inkscape:export-filename="C:\Users\suitedoalex\sites\san-francisco-49ers-logo-4.png"
     inkscape:export-xdpi="95.73597"
     inkscape:export-ydpi="95.73597" />
</svg>
