<?xml version="1.0" encoding="UTF-8" standalone="no"?>
<svg
   xmlns:dc="http://purl.org/dc/elements/1.1/"
   xmlns:cc="http://creativecommons.org/ns#"
   xmlns:rdf="http://www.w3.org/1999/02/22-rdf-syntax-ns#"
   xmlns:svg="http://www.w3.org/2000/svg"
   xmlns="http://www.w3.org/2000/svg"
   xmlns:sodipodi="http://sodipodi.sourceforge.net/DTD/sodipodi-0.dtd"
   xmlns:inkscape="http://www.inkscape.org/namespaces/inkscape"
   viewBox="0 0 500 500"
   version="1.1"
   id="svg18"
   sodipodi:docname="seattle-seahawks-logo.svg"
   inkscape:export-filename="C:\Users\suitedoalex\sites\seattle-seahawks-logo-0.png"
   inkscape:export-xdpi="786.43201"
   inkscape:export-ydpi="786.43201"
   inkscape:version="0.92.4 (5da689c313, 2019-01-14)">
  <metadata
     id="metadata24">
    <rdf:RDF>
      <cc:Work
         rdf:about="">
        <dc:format>image/svg+xml</dc:format>
        <dc:type
           rdf:resource="http://purl.org/dc/dcmitype/StillImage" />
        <dc:title>Logos/Clubs/SEA/Primary</dc:title>
      </cc:Work>
    </rdf:RDF>
  </metadata>
  <defs
     id="defs22" />
  <sodipodi:namedview
     pagecolor="#ffffff"
     bordercolor="#666666"
     borderopacity="1"
     objecttolerance="10"
     gridtolerance="10"
     guidetolerance="10"
     inkscape:pageopacity="0"
     inkscape:pageshadow="2"
     inkscape:window-width="1600"
     inkscape:window-height="837"
     id="namedview20"
     showgrid="false"
     inkscape:zoom="0.472"
     inkscape:cx="250"
     inkscape:cy="250"
     inkscape:window-x="-8"
     inkscape:window-y="-8"
     inkscape:window-maximized="1"
     inkscape:current-layer="g16" />
  <title
     id="title2">Logos/Clubs/SEA/Primary</title>
  <desc
     id="desc4">Created with Sketch.</desc>
  <g
     fill="none"
     id="g16">
    <path
       d="m 378.6125,303.83393 c -17.33781,-3.46423 -40.09825,-4.38359 -49.71187,-4.38359 l -228.77257,0.0507 c -14.233389,0 -28.951828,0 -36.504818,-11.62986 -7.662375,-11.7979 -3.499112,-23.40558 9.422619,-46.63203 0.96453,-1.72617 40.145789,-75.35163 40.145789,-75.35163 0,0 4.00318,4.9677 8.03883,8.13235 3.98494,3.12106 8.07926,4.78541 18.99582,4.78541 19.38974,0 144.47384,-0.27342 145.74906,-0.28135 25.3909,0 51.037,2.6281 67.65518,20.84326 8.62691,0.92015 36.47546,4.59916 59.42698,15.56804 13.42974,6.41014 22.28958,15.99206 25.63893,27.69406 1.01132,3.53715 1.51539,7.25658 1.51539,11.11154 0,11.10758 -4.16017,23.40874 -12.31944,36.19256 -17.23552,27.0188 -33.13017,36.46203 -33.84182,36.97005 -9.7951,6.88805 -19.28036,7.20903 -19.28036,7.20903 0,0 8.54284,-9.70952 11.42456,-19.41905 2.88572,-9.70951 -7.58228,-10.8595 -7.58228,-10.8595"
       id="path8"
       inkscape:connector-curvature="0"
       style="fill:#ffffff;stroke-width:0.79254937"
       inkscape:export-filename="C:\Users\suitedoalex\sites\seattle-seahawks-logo-4.png"
       inkscape:export-xdpi="100.94008"
       inkscape:export-ydpi="100.94008" />
    <path
       d="m 410.22724,220.85638 c 26.15418,12.50247 30.74143,36.38912 12.13639,65.55495 -16.68719,26.13907 -33.53516,37.22922 -33.53516,37.22922 0,0 16.23456,-21.21495 -8.93365,-26.24923 -18.95539,-3.78206 -43.23197,-4.50406 -50.9934,-4.50406 -8.92966,0 -88.72195,0.18228 -98.67795,0.18228 -9.95601,0 -12.70615,-1.35763 -14.89042,-4.36219 -2.1803,-2.99345 -2.55994,-7.08856 1.52328,-13.22447 4.09827,-6.13275 10.32138,-15.74004 10.32138,-15.74004 l -26.89914,-21.63105 c 22.57102,-22.51079 40.59914,-30.05982 56.3368,-30.05982 15.95719,0 22.99106,2.34357 49.25852,13.36001 26.27064,11.02356 34.95222,-0.69745 34.95222,-0.69745 -11.0299,4.68714 -20.8805,0.69745 -39.41585,-7.50148 -18.52823,-8.20922 -29.551,-11.95482 -46.19771,-11.95482 -16.6578,0 -30.72714,4.68318 -48.35265,17.64136 -16.59598,12.19892 -17.85217,14.70655 -42.87454,14.70655 H 84.482349 l 30.616971,-57.29419 c 0,0 2.28968,9.05251 25.12778,9.05251 19.62036,0 145.74905,-0.27739 145.74905,-0.27739 25.04377,0 49.82124,2.65346 64.48499,20.56587 0,0 33.60484,2.701 59.7661,15.20344 z m -46.21984,4.69824 c -11.89934,-2.84684 -1.72777,-9.73171 -1.72777,-9.73171 -17.12224,3.4571 -23.49195,17.41549 -24.96372,21.32116 -0.27422,0.52942 -0.55478,1.07312 -0.84406,1.64614 -9.47414,19.04733 -18.00593,18.02891 -34.18186,18.02891 h -27.70277 c -22.43946,0 -32.88922,11.11471 -43.64491,30.04554 h 12.67366 c 11.58152,-17.23637 20.32493,-21.88308 43.23199,-23.17573 52.34867,0.0294 94.07954,15.03864 116.13226,26.51158 31.36592,-52.64035 -15.18289,-61.35364 -38.97362,-64.64588 z m -97.43207,61.10478 c 5.85457,-8.84486 17.75786,-11.84862 36.95024,-10.74302 47.36276,2.74144 74.59475,11.95798 95.75266,19.83515 -26.08836,-15.26135 -72.58248,-26.26351 -104.89789,-26.16127 -15.79233,0.0475 -29.58349,2.80721 -37.68414,17.06835 h 9.87913 z m 50.83254,-52.2203 c -6.17238,8.60711 -14.30235,11.54587 -37.3592,9.97265 -26.83018,-1.82128 -19.90487,-13.11907 -16.78223,-18.67802 l -0.0911,-0.0111 c 0.85437,-1.57322 2.31583,-4.2449 3.79869,-6.9356 -20.55476,-1.2665 -35.56962,14.54645 -35.56962,14.54645 15.32474,15.14879 25.54388,16.73309 39.40873,16.73309 h 25.91637 c 24.09825,0 29.91953,-10.83732 32.12916,-15.65602 -4.16009,0.51833 -7.90331,0.47474 -11.44996,0.0294 z"
       id="path10"
       inkscape:connector-curvature="0"
       style="fill:#002244;stroke-width:0.79254937"
       inkscape:export-filename="C:\Users\suitedoalex\sites\seattle-seahawks-logo-4.png"
       inkscape:export-xdpi="100.94008"
       inkscape:export-ydpi="100.94008" />
    <path
       d="m 305.70905,231.87678 c -0.4898,-0.19733 -0.99704,-0.40499 -1.50506,-0.61342 -2.36338,2.48941 -6.43866,3.93104 -10.38715,3.42381 -5.19754,-0.66416 -8.19179,-4.43907 -6.71686,-8.42084 0.21161,-0.58411 0.5223,-1.13176 0.89083,-1.65722 -2.66218,-1.04378 -5.33941,-2.04794 -7.94768,-2.957 -5.33941,8.63246 -8.46998,14.35307 10.05824,15.91518 11.5411,0.98198 14.67168,-0.99306 17.09608,-5.13255 -0.49692,-0.18941 -0.9788,-0.35426 -1.48999,-0.55875"
       id="path12"
       inkscape:connector-curvature="0"
       style="fill:#69be28;stroke-width:0.79254937"
       inkscape:export-filename="C:\Users\suitedoalex\sites\seattle-seahawks-logo-4.png"
       inkscape:export-xdpi="100.94008"
       inkscape:export-ydpi="100.94008" />
    <path
       d="m 212.65582,264.67408 c -9.55815,16.57934 -13.34891,20.38675 -6.63602,28.25675 H 100.12886 c -15.61719,0 -25.770537,-0.58807 -30.993437,-8.63641 -5.08025,-7.81533 -4.035665,-15.26925 9.653249,-39.86761 H 168.8215 c 15.50068,0 19.48482,0.88369 27.89615,7.40637 8.41133,6.53061 15.93896,12.84168 15.93896,12.84168"
       id="path14"
       inkscape:connector-curvature="0"
       style="fill:#a5acaf;stroke-width:0.79254937"
       inkscape:export-filename="C:\Users\suitedoalex\sites\seattle-seahawks-logo-4.png"
       inkscape:export-xdpi="100.94008"
       inkscape:export-ydpi="100.94008" />
  </g>
</svg>
