<?xml version="1.0" encoding="UTF-8" standalone="no"?>
<svg
   xmlns:dc="http://purl.org/dc/elements/1.1/"
   xmlns:cc="http://creativecommons.org/ns#"
   xmlns:rdf="http://www.w3.org/1999/02/22-rdf-syntax-ns#"
   xmlns:svg="http://www.w3.org/2000/svg"
   xmlns="http://www.w3.org/2000/svg"
   xmlns:sodipodi="http://sodipodi.sourceforge.net/DTD/sodipodi-0.dtd"
   xmlns:inkscape="http://www.inkscape.org/namespaces/inkscape"
   viewBox="0 0 700 700"
   version="1.1"
   id="svg22"
   sodipodi:docname="arizona-cardinals-logo.svg"
   width="700"
   height="700"
   inkscape:export-filename="C:\Users\alex\sites\arizona-cardinals-logo-4.png"
   inkscape:export-xdpi="54.857143"
   inkscape:export-ydpi="54.857143"
   inkscape:version="0.92.3 (2405546, 2018-03-11)">
  <metadata
     id="metadata28">
    <rdf:RDF>
      <cc:Work
         rdf:about="">
        <dc:format>image/svg+xml</dc:format>
        <dc:type
           rdf:resource="http://purl.org/dc/dcmitype/StillImage" />
        <dc:title>Logos/Clubs/ARI/Primary</dc:title>
      </cc:Work>
    </rdf:RDF>
  </metadata>
  <defs
     id="defs26" />
  <sodipodi:namedview
     pagecolor="#ffffff"
     bordercolor="#666666"
     borderopacity="1"
     objecttolerance="10"
     gridtolerance="10"
     guidetolerance="10"
     inkscape:pageopacity="0"
     inkscape:pageshadow="2"
     inkscape:window-width="1600"
     inkscape:window-height="838"
     id="namedview24"
     showgrid="false"
     inkscape:zoom="0.6675088"
     inkscape:cx="519.98602"
     inkscape:cy="176.40383"
     inkscape:window-x="-8"
     inkscape:window-y="-8"
     inkscape:window-maximized="1"
     inkscape:current-layer="g4" />
  <title
     id="title2">Logos/Clubs/ARI/Primary</title>
  <desc
     id="desc4">Created with Sketch.</desc>
  <g
     id="g20"
     style="fill:none"
     transform="matrix(1.2457627,0,0,1.2457627,34.559325,38.559325)"
     inkscape:export-filename="C:\Users\alex\sites\arizona-cardinals-logo-1.png"
     inkscape:export-xdpi="631.28558"
     inkscape:export-ydpi="631.28558">
    <path
       d="M 0,0 H 500 V 500 H 0 Z"
       id="path6"
       inkscape:connector-curvature="0" />
  </g>
  <path
     d="m 221.72175,891.81673 c -15.67633,-3.30171 -46.77724,-0.0851 -64.51669,37.45507 0,0 -30.33365,-36.22252 -72.480714,-42.58671 1.654106,-20.1543 -25.038715,-25.51198 -30.145744,-60.18606 0,0 -20.736633,-16.98521 -31.104941,-43.73382 l 5.521061,1.77428 c 0,0 -8.062014,-8.9318 -14.260891,-24.32634 l 5.836597,1.92799 c 0,0 -5.904936,-8.00613 -9.132255,-30.97176 71.538613,49.22376 109.226307,32.04656 152.737557,56.67521 29.53223,16.73354 36.5667,36.16281 39.03931,55.55785 0,0 21.86215,19.81305 18.50721,48.41329"
     id="path8"
     inkscape:connector-curvature="0"
     style="fill:#ffffff;stroke-width:0.50246257"
     inkscape:export-filename="C:\Users\alex\sites\arizona-cardinals-logo-4.png"
     inkscape:export-xdpi="57.515984"
     inkscape:export-ydpi="57.515984" />
  <path
     d="m 218.73712,887.62372 c 0.46881,-24.34341 -18.64337,-41.63565 -18.64337,-41.63565 -2.06361,-15.38986 -7.6525,-37.64696 -37.43597,-54.08206 -45.22514,-24.93619 -70.246756,-4.56843 -141.542182,-48.25944 1.483768,8.16849 6.181794,19.47185 12.167633,26.49283 l -7.37113,-2.41835 c 5.358763,11.2993 13.940832,21.5491 18.434344,24.87645 l -8.262485,-2.59773 c 8.752401,21.4892 25.852703,34.21759 25.852703,34.21759 3.896595,32.89976 28.018319,38.50469 29.966867,58.73989 31.42501,4.87551 64.64029,38.54299 64.64029,38.54299 17.39024,-29.90963 41.64007,-35.70654 62.1933,-33.87652"
     id="path10"
     inkscape:connector-curvature="0"
     style="fill:#000000;stroke-width:0.50246257"
     inkscape:export-filename="C:\Users\alex\sites\arizona-cardinals-logo-4.png"
     inkscape:export-xdpi="57.515984"
     inkscape:export-ydpi="57.515984" />
  <path
     d="m 178.49138,845.28062 c -6.83399,11.00488 -18.38761,7.938 -22.5063,-5.78373 l 8.33033,0.50736 c -7.30329,-4.37188 -13.9368,-10.80445 -19.06544,-17.14295 -1.50939,30.31455 27.00384,43.92172 36.43455,22.63234 -1.0657,-0.0133 -2.13144,-0.0812 -3.19314,-0.21302"
     id="path12"
     inkscape:connector-curvature="0"
     style="fill:#ffffff;stroke-width:0.50246257"
     inkscape:export-filename="C:\Users\alex\sites\arizona-cardinals-logo-4.png"
     inkscape:export-xdpi="57.515984"
     inkscape:export-ydpi="57.515984" />
  <path
     d="M 158.87625,796.03123 C 126.11268,778.06519 86.071449,789.7314 34.907699,758.01756 c 5.068849,15.15525 36.737046,32.90367 36.737046,32.90367 L 43.6219,781.80599 c 7.136983,12.39124 36.349145,27.91737 36.349145,27.91737 l -26.134079,-8.44984 c 10.824549,17.98759 35.381401,30.12705 35.381401,30.12705 l -15.091965,-1.09181 c 1.952575,16.91245 25.307034,31.47483 26.547608,44.52714 10.56428,4.03933 24.17749,11.08189 34.7885,20.21017 20.28491,-9.97698 14.69149,-43.73389 -23.98556,-91.61802 53.19771,3.21624 51.73103,42.67606 82.26518,37.00291 -2.23848,-10.60013 -3.68355,-27.28629 -34.86537,-44.39973"
     id="path14"
     inkscape:connector-curvature="0"
     style="fill:#97233f;stroke-width:0.50246257"
     inkscape:export-filename="C:\Users\alex\sites\arizona-cardinals-logo-4.png"
     inkscape:export-xdpi="57.515984"
     inkscape:export-ydpi="57.515984" />
  <path
     d="m 214.9174,881.34498 c -7.448,-7.41795 -23.09417,-14.989 -42.12144,-17.27118 8.10474,-2.25208 17.33045,-7.2259 21.11198,-14.9634 8.06603,5.10603 19.30008,19.71052 21.00946,32.23409 z m -40.72308,10.3436 c 3.13336,-10.68079 -2.56658,-20.37628 -2.56658,-20.37628 16.67372,-1.63357 35.0744,6.10791 42.5224,12.41217 -11.64305,-2.35039 -27.58368,1.01506 -39.95582,7.96361 z"
     id="path16"
     inkscape:connector-curvature="0"
     style="fill:#ffb612;stroke-width:0.50246257"
     inkscape:export-filename="C:\Users\alex\sites\arizona-cardinals-logo-4.png"
     inkscape:export-xdpi="57.515984"
     inkscape:export-ydpi="57.515984" />
  <path
     d="m 178.49138,845.28062 c -6.83399,11.00488 -18.38761,7.938 -22.5063,-5.78373 l 8.33033,0.50736 c -7.30329,-4.37188 -13.9368,-10.80445 -19.06544,-17.14295 -1.50939,30.31455 27.00384,43.92172 36.43455,22.63234 -1.0657,-0.0133 -2.13144,-0.0812 -3.19314,-0.21302"
     id="path18"
     inkscape:connector-curvature="0"
     style="fill:#ffffff;stroke-width:0.50246257"
     inkscape:export-filename="C:\Users\alex\sites\arizona-cardinals-logo-4.png"
     inkscape:export-xdpi="57.515984"
     inkscape:export-ydpi="57.515984" />
  <g
     transform="matrix(2.8205505,0,0,-2.8205505,-399.31932,1956.0205)"
     id="g4">
    <path
       style="fill:#97233f"
       inkscape:connector-curvature="0"
       d="m 11.79,19.7206 c -6.253,0 -10.967,3.856 -10.967,8.957 1.2e-4,5.103 4.714,8.955 10.967,8.955 3.482,0 6.364,-1.055 8.148,-2.278 l -2.004,-3.49 c -3.351,2.064 -10.767,1.792 -10.767,-3.187 -10e-5,-4.975 7.416,-5.254 10.767,-3.19 l 2.004,-3.488 c -1.784,-1.217 -4.666,-2.279 -8.148,-2.279 z m 170.16,0 c -5.08,0 -8.49,2.265 -8.49,5.631 0,3.773 3.89,4.755 8.21,5.576 2.49,0.469 3.42,0.827 3.34,1.625 -0.1,0.979 -2.12,1.053 -3.23,1.013 -2.04,-0.081 -5,-0.444 -7.17,-1.701 l -2.01,3.49 c 3.05,1.682 6.61,2.278 9.91,2.278 5.19,0 9.01,-2.194 9.01,-5.725 0,-3.627 -3.9,-4.798 -8.12,-5.521 -2.92,-0.534 -3.53,-0.908 -3.46,-1.596 0.08,-0.807 1.6,-0.912 2.72,-0.889 1.85,0.047 4.33,0.453 6.2,1.586 l 2.01,-3.488 c -2.25,-1.495 -5.36,-2.279 -8.92,-2.279 z m -153.21,0.338 1.32,2.295 -8.59,14.941 h 5.473 l 1.281,-2.217 h 9.151 l 1.273,2.217 h 6.809 l -9.908,-17.236 z m 17.228,0 2.125,2.654 v 14.582 h 6.004 v -5.078 h 2.584 l 3.918,5.078 h 6.858 l -5.012,-5.912 c 2.423,-1.015 3.699,-2.882 3.699,-5.242 0,-3.604 -2.952,-6.082 -8.445,-6.082 z m 22.764,0 2.121,2.654 v 14.582 h 7.885 c 6.932,0 11.41,-3.365 11.41,-8.617 0,-5.253 -4.478,-8.619 -11.41,-8.619 z m 23.299,0 2.121,2.654 v 14.582 h 6.006 v -17.236 z m 11.387,0 2.44,2.552 v 14.684 h 5.55 v -9.068 l 8.87,9.068 h 5.18 v -17.236 h -5.54 v 9.066 l -8.87,-9.066 z m 31.95,0 1.32,2.295 -8.59,14.941 h 5.47 l 1.28,-2.217 h 9.15 l 1.28,2.217 h 6.8 l -9.91,-17.236 z m 17.23,0 2.12,2.654 v 14.582 h 15.57 v -4.029 h -9.57 v -13.207 z m -98.501,4.035 h 3.317 c 1.01,0 2.699,0.626 2.699,2.047 0,1.418 -1.689,2.045 -2.699,2.045 h -3.317 z m 22.764,0 h 1.959 c 3.186,0 5.166,2.102 5.18,4.584 -0.014,2.479 -1.994,4.588 -5.18,4.588 h -1.959 z m -44.049,3.049 2.44,4.244 h -4.895 z m 106.63,0 2.44,4.244 h -4.9 z"
       transform="matrix(0.8,0,0,-0.8,229.12,411.09)"
       id="path2"
       sodipodi:nodetypes="scscccccssscccccsscccccscccccccccccccccccccssccccsssccccccccccccccccccccccccccccccccccccccssscccscscccccccccc"
       inkscape:export-filename="C:\Users\alex\sites\arizona-cardinals-logo-4.png"
       inkscape:export-xdpi="57.515984"
       inkscape:export-ydpi="57.515984" />
    <path
       style="fill:#97233f;stroke-width:0.93493199"
       inkscape:connector-curvature="0"
       d="m 295.77973,412.23447 c -4.40353,0 -7.8525,-2.74141 -7.8525,-6.27611 0,-3.53862 3.44897,-6.28171 7.8525,-6.28171 4.40353,0 7.85343,2.74309 7.85343,6.28171 0,3.5347 -3.4499,6.27611 -7.85343,6.27611 z m -59.49533,-0.2356 0.92465,-1.60874 -6.02096,-10.47965 h 3.83696 l 0.89847,1.55572 h 6.41644 l 0.89473,-1.55572 h 4.77096 l -6.94748,12.08867 -4.77377,-1.9e-4 z m 12.08307,0 1.4884,-1.8607 v -10.22816 h 4.21093 v 3.56676 h 1.81285 l 2.74494,-3.56676 h 4.80929 l -3.51441,4.14708 c 1.69878,0.70868 2.59444,2.02441 2.59444,3.67942 0,2.52301 -2.07087,4.26198 -5.92372,4.26198 h -8.22272 z m 15.96301,0 1.48281,-1.8607 v -10.22816 h 4.21093 v 12.08867 l -5.69374,-1.9e-4 z m 9.07726,0 v -2.83032 h 6.13035 l -6.89886,-9.25817 h 13.4144 v 2.82911 h -6.13222 l 6.9026,9.25938 z m 31.1884,0 1.71092,-1.79133 V 399.9102 h 3.88932 v 6.36389 l 6.2173,-6.36389 h 3.63688 v 12.08867 l -3.88931,-1.9e-4 v -6.36006 l -6.2173,6.36006 h -5.34781 z m 22.40097,0 0.92558,-1.60874 -6.02096,-10.47965 h 3.83322 l 0.89754,1.55572 h 6.41363 l 0.89753,-1.55572 h 4.76816 l -6.94655,12.08867 -4.76815,-1.9e-4 z m -31.21738,-2.70429 c 1.98205,0 3.4686,-1.61575 3.4686,-3.33622 0,-1.727 -1.48655,-3.33948 -3.4686,-3.33948 -1.98206,0 -3.47795,1.61248 -3.47795,3.33948 0,1.72047 1.49589,3.33622 3.47795,3.33622 z m -41.71293,-0.12603 h 2.32424 c 0.70868,0 1.89417,-0.43942 1.89417,-1.43166 0,-0.9943 -1.18549,-1.43709 -1.89417,-1.43709 h -2.32424 z m -14.92805,-2.13829 1.7128,-2.9728 h -3.4312 z m 90.7099,0 1.71093,-2.9728 h -3.4312 z"
       id="path2-7"
       sodipodi:nodetypes="sssssccccccccccccccccccccssccccccccccccccccccccccccccccccccccccccccccssssscssscccccccccc"
       inkscape:export-filename="C:\Users\alex\sites\arizona-cardinals-logo-4.png"
       inkscape:export-xdpi="57.515984"
       inkscape:export-ydpi="57.515984" />
  </g>
  <path
     d="m 626.42444,512.21062 c -41.2829,-8.6949 -123.18572,-0.22412 -169.90175,98.63621 0,0 -79.88228,-95.39035 -190.87463,-112.15015 4.35599,-53.07544 -65.93832,-67.18463 -79.38745,-158.49724 0,0 -54.60897,-44.72977 -81.91344,-115.17101 l 14.53946,4.67248 c 0,0 -21.230939,-23.52148 -37.555395,-64.0623 l 15.370405,5.07728 c 0,0 -15.550369,-21.08378 -24.049373,-81.56272 188.393673,129.62852 287.642483,84.39315 402.227373,149.25157 77.77177,44.06701 96.29673,95.23311 102.80822,146.30906 0,0 57.57298,52.17676 48.7379,127.49418"
     id="path8-0"
     inkscape:connector-curvature="0"
     style="fill:#ffffff;stroke-width:1.32321227"
     inkscape:export-filename="C:\Users\alex\sites\arizona-cardinals-logo-5.png"
     inkscape:export-xdpi="69.22718"
     inkscape:export-ydpi="69.22718" />
  <path
     d="M 618.56456,501.16851 C 619.79914,437.06126 569.4681,391.52294 569.4681,391.52294 564.03367,350.99445 549.31558,292.38139 470.88219,249.10031 351.78384,183.43199 285.89058,237.06956 98.13733,122.01127 c 3.90743,21.51136 16.27946,51.27824 32.0429,69.76767 l -19.41153,-6.36862 c 14.11206,29.75619 36.71254,56.74857 48.546,65.51099 l -21.75888,-6.841 c 23.04904,56.59082 68.08191,90.11046 68.08191,90.11046 10.26151,86.64001 73.78495,101.40033 78.91637,154.68881 82.75633,12.83943 170.22724,101.50121 170.22724,101.50121 45.7964,-78.76565 109.65723,-94.03155 163.78322,-89.21228"
     id="path10-5"
     inkscape:connector-curvature="0"
     style="fill:#000000;stroke-width:1.32321227"
     inkscape:export-filename="C:\Users\alex\sites\arizona-cardinals-logo-5.png"
     inkscape:export-xdpi="69.22718"
     inkscape:export-ydpi="69.22718" />
  <path
     d="m 512.57924,389.6599 c -17.997,28.98085 -48.42293,20.90436 -59.26931,-15.23119 l 21.93754,1.33611 c -19.23287,-11.51314 -36.70193,-28.45302 -50.20796,-45.14518 -3.97491,79.83199 71.11337,115.66585 95.94871,59.60123 -2.80647,-0.035 -5.61304,-0.21383 -8.40898,-0.56097"
     id="path12-6"
     inkscape:connector-curvature="0"
     style="fill:#ffffff;stroke-width:1.32321227"
     inkscape:export-filename="C:\Users\alex\sites\arizona-cardinals-logo-5.png"
     inkscape:export-xdpi="69.22718"
     inkscape:export-ydpi="69.22718" />
  <path
     d="M 460.9237,259.96388 C 374.64233,212.65114 269.19559,243.37357 134.45819,159.85662 c 13.34858,39.91066 96.74534,86.65031 96.74534,86.65031 l -73.7969,-24.00457 c 18.79493,32.63177 95.72383,73.51912 95.72383,73.51912 l -68.82291,-22.25226 c 28.50596,47.36949 93.17531,79.3382 93.17531,79.3382 l -39.74401,-2.87523 c 5.14202,44.53817 66.64493,82.88752 69.9119,117.26018 27.82055,10.63739 63.67032,29.18366 91.61393,53.22257 53.41938,-26.27392 38.68937,-115.1712 -63.16488,-241.27187 140.09374,8.46983 136.23131,112.38545 216.6416,97.44547 -5.89494,-27.91495 -9.70047,-71.8572 -91.81636,-116.92466"
     id="path14-6"
     inkscape:connector-curvature="0"
     style="fill:#97233f;stroke-width:1.32321227"
     inkscape:export-filename="C:\Users\alex\sites\arizona-cardinals-logo-5.png"
     inkscape:export-xdpi="69.22718"
     inkscape:export-ydpi="69.22718" />
  <path
     d="m 608.5055,484.63374 c -19.61397,-19.53483 -60.81744,-39.47285 -110.92489,-45.48286 21.34346,-5.93075 45.63896,-19.02907 55.59743,-39.40543 21.24152,13.4465 50.82588,51.90676 55.32746,84.887 z m -107.24237,27.2394 c 8.25156,-28.12737 -6.75897,-53.66 -6.75897,-53.66 43.90948,-4.30194 92.36683,16.0849 111.9808,32.68688 -30.66144,-6.18965 -72.64036,2.67311 -105.22183,20.9718 z"
     id="path16-3"
     inkscape:connector-curvature="0"
     style="fill:#ffb612;stroke-width:1.32321227"
     inkscape:export-filename="C:\Users\alex\sites\arizona-cardinals-logo-5.png"
     inkscape:export-xdpi="69.22718"
     inkscape:export-ydpi="69.22718" />
  <path
     d="m 512.57924,389.6599 c -17.997,28.98085 -48.42293,20.90436 -59.26931,-15.23119 l 21.93754,1.33611 c -19.23287,-11.51314 -36.70193,-28.45302 -50.20796,-45.14518 -3.97491,79.83199 71.11337,115.66585 95.94871,59.60123 -2.80647,-0.035 -5.61304,-0.21383 -8.40898,-0.56097"
     id="path18-5"
     inkscape:connector-curvature="0"
     style="fill:#ffffff;stroke-width:1.32321227"
     inkscape:export-filename="C:\Users\alex\sites\arizona-cardinals-logo-5.png"
     inkscape:export-xdpi="69.22718"
     inkscape:export-ydpi="69.22718" />
</svg>
