<?xml version="1.0" encoding="UTF-8" standalone="no"?>
<svg
   xmlns:dc="http://purl.org/dc/elements/1.1/"
   xmlns:cc="http://creativecommons.org/ns#"
   xmlns:rdf="http://www.w3.org/1999/02/22-rdf-syntax-ns#"
   xmlns:svg="http://www.w3.org/2000/svg"
   xmlns="http://www.w3.org/2000/svg"
   xmlns:sodipodi="http://sodipodi.sourceforge.net/DTD/sodipodi-0.dtd"
   xmlns:inkscape="http://www.inkscape.org/namespaces/inkscape"
   viewBox="0 0 500 500"
   version="1.1"
   id="svg16"
   sodipodi:docname="chicago-bears-logo.svg"
   inkscape:version="0.92.3 (2405546, 2018-03-11)"
   inkscape:export-filename="C:\Users\alex\sites\chicago-bears-logo-0.png"
   inkscape:export-xdpi="786.43201"
   inkscape:export-ydpi="786.43201">
  <metadata
     id="metadata22">
    <rdf:RDF>
      <cc:Work
         rdf:about="">
        <dc:format>image/svg+xml</dc:format>
        <dc:type
           rdf:resource="http://purl.org/dc/dcmitype/StillImage" />
        <dc:title>Logos/Clubs/CHI/Alternate-1</dc:title>
      </cc:Work>
    </rdf:RDF>
  </metadata>
  <defs
     id="defs20" />
  <sodipodi:namedview
     pagecolor="#ffffff"
     bordercolor="#666666"
     borderopacity="1"
     objecttolerance="10"
     gridtolerance="10"
     guidetolerance="10"
     inkscape:pageopacity="0"
     inkscape:pageshadow="2"
     inkscape:window-width="1600"
     inkscape:window-height="838"
     id="namedview18"
     showgrid="false"
     inkscape:zoom="0.6675088"
     inkscape:cx="339.49323"
     inkscape:cy="181.0389"
     inkscape:window-x="-8"
     inkscape:window-y="-8"
     inkscape:window-maximized="1"
     inkscape:current-layer="g14" />
  <title
     id="title2">Logos/Clubs/CHI/Alternate-1</title>
  <desc
     id="desc4">Created with Sketch.</desc>
  <g
     fill="none"
     id="g14">
    <path
       d="m 36.01695,36.01695 h 427.9661 v 427.9661 H 36.01695 Z"
       id="path6"
       inkscape:connector-curvature="0"
       style="stroke-width:0.85593224" />
    <path
       d="m 740.5368,120.7913 c -42.95324,17.77514 -62.48733,44.73957 -71.28802,64.21973 -5.65942,12.65924 -11.21442,22.15667 -17.48241,29.90884 -6.4272,6.69168 -18.17658,14.07238 -25.04458,16.67442 l -1.28304,0.48617 -0.23282,4.67938 1.77435,0.35179 c 8.89485,1.76921 19.97489,8.4566 23.56809,13.03584 4.61861,4.6443 7.83435,7.85661 15.9366,22.22599 0.11384,0.17376 4.14785,6.56244 4.14785,6.56244 2.626,4.42175 5.34188,8.9967 12.61644,17.05102 5.59437,7.86174 32.38847,32.59048 61.54581,43.228 20.48588,10.1565 47.38868,15.1774 82.03682,15.27154 50.88688,0.29274 89.40555,-10.84038 124.88565,-36.07497 14.71261,-11.40016 19.46988,-15.99053 31.87319,-30.7271 8.31026,-9.8244 17.34377,-27.14847 17.73067,-46.28626 l 0.05,-2.14154 -71.99163,-0.0796 -0.3963,1.59631 c -5.85201,23.49962 -29.51939,38.15661 -43.10731,44.80378 -35.45614,15.0781 -80.10927,15.26212 -113.65239,0.41598 -31.35793,-15.71748 -48.02807,-36.97713 -46.85288,-59.82281 1.19403,-23.2865 21.01571,-45.54758 50.49059,-56.70038 57.01193,-20.89758 111.81384,-2.92986 132.512,16.51093 l 0.60429,0.56492 83.88478,-0.0796 -1.13497,-2.8648 c -17.25471,-43.7433 -79.65302,-68.40271 -107.17038,-73.48866 -61.60059,-14.106616 -114.80192,-3.737 -144.0183,10.6769"
       id="path8"
       inkscape:connector-curvature="0"
       style="fill:#0b162a;stroke-width:0.85593224"
       inkscape:export-filename="C:\Users\alex\sites\chicago-bears-logo-4.png"
       inkscape:export-xdpi="102.08273"
       inkscape:export-ydpi="102.08273" />
    <path
       d="m 664.59593,208.58511 c 4.38066,-6.92448 6.11992,-10.8301 8.5131,-16.24302 l 2.56694,-5.68082 c 7.72565,-16.4416 20.72383,-31.51029 37.57714,-43.56952 16.47155,-11.03895 34.71747,-19.88159 50.00955,-24.23829 66.45714,-19.311536 134.40533,-2.73641 163.86993,13.11546 11.64497,5.34357 43.15697,24.05511 55.90179,48.35759 H 912.0485 c -49.43008,-38.46473 -116.10977,-28.68485 -148.99384,-12.63012 -13.28577,7.38069 -21.00628,13.3337 -30.67403,23.64341 -15.00963,18.17143 -23.08193,49.12623 3.3056,76.86955 11.92742,11.60388 23.85569,19.46476 38.72152,25.56157 34.38024,14.25041 82.62657,12.66437 117.31407,-3.86625 22.16094,-11.5645 36.8727,-26.90537 42.82486,-44.42716 h 59.88102 c -2.121,15.21248 -6.55131,30.94538 -29.25662,52.93341 l -2.52757,2.26566 c -10.99616,9.92795 -26.06571,23.53471 -55.50036,34.28093 -50.20813,19.48531 -125.29735,17.2342 -167.42804,-4.99607 -0.0249,-0.0102 -2.64654,-1.33354 -2.64654,-1.33354 -9.46491,-4.73844 -22.43313,-11.22213 -38.77117,-26.4192 -11.40272,-10.46891 -19.34577,-20.81371 -29.33621,-38.17202 -10.89174,-19.93636 -24.52931,-27.20751 -31.86293,-30.29572 6.3921,-3.22173 18.88528,-10.89002 27.49767,-25.15585"
       id="path10"
       inkscape:connector-curvature="0"
       style="fill:#ffffff;stroke-width:0.85593224"
       inkscape:export-filename="C:\Users\alex\sites\chicago-bears-logo-4.png"
       inkscape:export-xdpi="102.08273"
       inkscape:export-ydpi="102.08273" />
    <path
       d="m 667.19197,219.6138 c 7.11623,-7.87629 12.73542,-28.11481 23.98408,-43.48563 15.97084,-22.51872 37.11065,-34.3109 52.83927,-41.83454 35.9714,-17.62108 87.6911,-22.64283 138.28526,-10.49802 18.35974,4.35242 36.72462,10.87548 49.83665,19.42026 13.12229,7.79668 28.48371,19.04362 37.10637,29.98843 h -54.04356 c -16.03589,-12.81843 -33.65183,-19.04363 -49.39071,-22.41943 -17.61167,-4.49536 -45.34643,-6.89453 -78.32465,0.98176 -19.48957,4.86769 -32.97821,11.61329 -46.09536,20.9866 -25.85259,18.37002 -54.3363,66.64802 -3.74642,108.63662 16.49124,13.938 30.35221,18.44363 45.71876,23.76754 28.48371,8.24348 64.08793,6.67198 84.69792,1.04594 31.10543,-8.24777 42.72043,-19.1181 52.83926,-27.7382 9.37075,-8.9967 17.24018,-19.87131 19.41511,-25.49222 l 44.37066,-0.0745 c -3.07707,16.56999 -15.06953,30.06291 -26.68453,41.30986 -13.30547,12.5454 -23.23599,19.1181 -42.8745,28.94249 -45.94131,22.03768 -113.39904,21.2896 -154.99478,6.22091 -21.36235,-7.80181 -27.35902,-11.32141 -43.47365,-22.4939 -13.11716,-10.56819 -21.73897,-17.54233 -34.1029,-36.66043 -5.6192,-9.37331 -8.24605,-14.6176 -14.61334,-23.23684 -4.49963,-4.87711 -7.4971,-9.37845 -15.36654,-13.12573 7.21465,-5.05598 11.14509,-8.80839 14.61846,-14.241"
       id="path12"
       inkscape:connector-curvature="0"
       style="fill:#c83803;stroke-width:0.85593224"
       inkscape:export-filename="C:\Users\alex\sites\chicago-bears-logo-4.png"
       inkscape:export-xdpi="102.08273"
       inkscape:export-ydpi="102.08273" />
    <g
       transform="matrix(2.1193083,0,0,-2.1193083,167.54369,1240.7342)"
       id="g4"
       style="fill:#c83803;fill-opacity:1"
       inkscape:export-filename="C:\Users\alex\sites\chicago-bears-logo-4.png"
       inkscape:export-xdpi="102.08273"
       inkscape:export-ydpi="102.08273">
      <path
         style="fill:#c83803;fill-opacity:1"
         inkscape:connector-curvature="0"
         d="m 172.98,1.0996 c -9.31,0 -15.94,2.9833 -15.94,9.2634 0,3.92 3.27,5.758 7.86,6.455 4.7,0.71 6.29,0.795 6.29,1.858 0,1.094 -1.14,1.119 -3.59,1.119 -2.22,0 -5.2,-0.742 -6.96,-1.133 -0.52,-0.115 -2.23,-0.658 -3.26,-1.049 v 7.584 c 6.09,2.487 11.12,2.823 15.49,2.823 9.44,0 17.81,-1.316 17.81,-8.18 0,-5.405 -3.99,-6.291 -9.02,-7.221 -4.75,-0.878 -6.44,-0.359 -6.45,-1.889 0,-1.4061 2.26,-1.1812 3.88,-1.1812 1.19,0 2.96,0.2154 4.02,0.3594 1.3,0.1748 4.47,0.8228 6.05,1.6658 V 3.8613 C 186.39,2.4506 181.34,1.0996 172.98,1.0996 Z M 0.81,1.6152 v 25.694 h 28.962 c 5.047,0 10.284,-1.977 10.284,-7.038 0,-3.364 -2.924,-5.607 -5.137,-6.115 2.99,-1.09 4.414,-3.718 4.414,-6.0994 0,-2.626 -1.869,-6.4414 -12.018,-6.4414 H 0.81 Z m 82.974,0 -10.73,25.694 h 15.771 l 1.004,-2.547 c 0.212,-0.549 0.538,-0.807 1.035,-0.807 h 6.313 c 0.555,0 0.974,0.155 1.185,0.774 l 0.858,2.58 h 16.571 l -9.96,-25.694 -22.047,2e-4 z m 32.907,0 v 25.694 h 15.72 l -0.01,-5.079 c 0.01,-0.633 0.25,-1.084 0.83,-1.084 h 0.74 c 0.48,0 0.99,0.151 1.44,1.004 l 2.75,5.159 h 17.73 l -6.47,-9.485 c 3.86,-0.95 5.54,-4.63 5.54,-7.8709 0,-5.8855 -5.4,-8.3379 -12.84,-8.3379 h -25.43 z m -75.028,0.002 v 25.694 h 30.824 v -7.887 l -13.586,-0.004 c -0.503,-0.002 -0.793,-0.389 -0.793,-0.887 v -0.322 c 0,-0.409 0.297,-0.973 0.762,-0.973 l 13.631,-0.006 v -6.037 l -13.615,-0.006 c -0.502,-0.002 -0.776,-0.517 -0.776,-1.017 V 9.9006 c 0,-0.4093 0.325,-1.0527 0.791,-1.0527 L 72.747,8.8459 V 1.6174 H 41.663 Z m -24.549,6.9453 1.963,0.0059 c 2.427,0 3.776,0.1627 3.776,1.5876 0,1.526 -1.17,1.528 -2.54,1.528 l -3.167,-0.006 c -0.502,0 -0.665,-0.135 -0.665,-0.633 V 9.2285 c 0,-0.4051 0.166,-0.666 0.633,-0.666 z m 116.18,0.5059 1.31,0.0136 c 2.43,0 3.97,0.3845 3.97,2.217 0,2.262 -2.44,2.156 -3.33,2.156 l -1.92,0.014 c -0.5,-0.002 -0.66,-0.135 -0.66,-0.633 V 9.7344 c 0,-0.4052 0.16,-0.666 0.63,-0.666 z M 94.381,11.768 c 0.155,0.003 0.311,0.19 0.43,0.568 l 1.095,3.685 c 0.175,0.486 -0.053,0.745 -0.55,0.745 H 93.25 c -0.407,0 -0.716,-0.31 -0.541,-0.76 l 1.254,-3.703 c 0.109,-0.358 0.263,-0.539 0.418,-0.535 z m -77.273,5.029 3.158,0.012 c 1.608,0 2.922,0.105 2.922,1.617 0,1.721 -1.161,1.74 -2.444,1.74 l -3.605,0.004 c -0.502,-0.002 -0.662,-0.137 -0.662,-0.635 v -2.072 c 0,-0.407 0.164,-0.666 0.631,-0.666 z"
         transform="matrix(0.8,0,0,-0.8,228.1,405.37)"
         id="path2" />
    </g>
    <path
       d="m 177.24813,141.84131 c -42.95324,17.77514 -62.48733,44.73957 -71.28802,64.21973 -5.65942,12.65924 -11.214415,22.15667 -17.482405,29.90884 -6.4272,6.69168 -18.17658,14.07238 -25.04458,16.67442 l -1.28304,0.48617 -0.23282,4.67938 1.77435,0.35179 c 8.89485,1.76921 19.97489,8.4566 23.56809,13.03584 4.61861,4.6443 7.83435,7.85661 15.936595,22.22599 0.11384,0.17376 4.14786,6.56244 4.14786,6.56244 2.626,4.42175 5.34188,8.9967 12.61643,17.05102 5.59437,7.86174 32.38847,32.59048 61.54581,43.228 20.48588,10.1565 47.38868,15.1774 82.03682,15.27154 50.88688,0.29274 89.40555,-10.84038 124.88565,-36.07497 14.71261,-11.40016 19.46988,-15.99053 31.87319,-30.7271 8.31026,-9.8244 17.34378,-27.14847 17.73067,-46.28626 l 0.05,-2.14154 -71.99164,-0.0796 -0.3963,1.59631 c -5.852,23.49962 -29.51939,38.15661 -43.10731,44.80378 -35.45614,15.0781 -80.10927,15.26212 -113.65239,0.41598 -31.35793,-15.71748 -48.02807,-36.97713 -46.85288,-59.82281 1.19403,-23.2865 21.01571,-45.54758 50.49059,-56.70038 57.01193,-20.89758 111.81384,-2.92986 132.512,16.51093 l 0.60429,0.56492 83.88479,-0.0796 -1.13498,-2.8648 c -17.2547,-43.7433 -79.65302,-68.40271 -107.17038,-73.48866 -61.60059,-14.10661 -114.80192,-3.737 -144.0183,10.6769"
       id="path8-9"
       inkscape:connector-curvature="0"
       style="fill:#0b162a;stroke-width:0.85593224"
       inkscape:export-filename="C:\Users\alex\sites\chicago-bears-logo-5.png"
       inkscape:export-xdpi="102.08273"
       inkscape:export-ydpi="102.08273" />
    <path
       d="m 101.30726,229.63512 c 4.38066,-6.92448 6.11992,-10.8301 8.5131,-16.24302 l 2.56694,-5.68082 c 7.72565,-16.4416 20.72383,-31.51029 37.57714,-43.56952 16.47155,-11.03895 34.71747,-19.88159 50.00955,-24.23829 66.45714,-19.31153 134.40533,-2.73641 163.86993,13.11546 11.64497,5.34357 43.15697,24.05511 55.90179,48.35759 H 348.75983 C 299.32975,162.91179 232.65006,172.69167 199.76599,188.7464 c -13.28577,7.38069 -21.00628,13.3337 -30.67403,23.64341 -15.00963,18.17143 -23.08193,49.12623 3.3056,76.86955 11.92742,11.60388 23.85569,19.46476 38.72152,25.56157 34.38024,14.25041 82.62657,12.66437 117.31407,-3.86625 22.16094,-11.5645 36.8727,-26.90537 42.82486,-44.42716 h 59.88102 c -2.121,15.21248 -6.55131,30.94538 -29.25662,52.93341 l -2.52757,2.26566 c -10.99616,9.92795 -26.06571,23.53471 -55.50036,34.28093 -50.20813,19.48531 -125.29735,17.2342 -167.42804,-4.99607 -0.0249,-0.0102 -2.64654,-1.33354 -2.64654,-1.33354 -9.46491,-4.73844 -22.43313,-11.22213 -38.77117,-26.4192 C 123.60601,312.7898 115.66296,302.445 105.67252,285.08669 94.780785,265.15033 81.143215,257.87918 73.809595,254.79097 c 6.3921,-3.22173 18.88528,-10.89002 27.497665,-25.15585"
       id="path10-8"
       inkscape:connector-curvature="0"
       style="fill:#ffffff;stroke-width:0.85593224"
       inkscape:export-filename="C:\Users\alex\sites\chicago-bears-logo-5.png"
       inkscape:export-xdpi="102.08273"
       inkscape:export-ydpi="102.08273" />
    <path
       d="m 103.9033,240.66381 c 7.11623,-7.87629 12.73542,-28.11481 23.98408,-43.48563 15.97084,-22.51872 37.11065,-34.3109 52.83927,-41.83454 35.9714,-17.62108 87.6911,-22.64283 138.28526,-10.49802 18.35974,4.35242 36.72462,10.87548 49.83665,19.42026 13.12229,7.79668 28.48371,19.04362 37.10637,29.98843 h -54.04355 c -16.03589,-12.81843 -33.65184,-19.04363 -49.39072,-22.41943 -17.61167,-4.49536 -45.34643,-6.89453 -78.32465,0.98176 -19.48957,4.86769 -32.97821,11.61329 -46.09536,20.9866 -25.85259,18.37002 -54.3363,66.64802 -3.74642,108.63662 16.49124,13.938 30.35221,18.44363 45.71876,23.76754 28.48371,8.24348 64.08793,6.67198 84.69792,1.04594 31.10544,-8.24777 42.72043,-19.1181 52.83927,-27.7382 9.37074,-8.9967 17.24018,-19.87131 19.4151,-25.49222 l 44.37066,-0.0745 c -3.07706,16.56999 -15.06953,30.06291 -26.68453,41.30986 -13.30547,12.5454 -23.23599,19.1181 -42.8745,28.94249 -45.94131,22.03768 -113.39904,21.2896 -154.99478,6.22091 -21.36235,-7.80181 -27.35902,-11.32141 -43.47365,-22.4939 -13.11716,-10.56819 -21.73897,-17.54233 -34.10289,-36.66043 -5.61921,-9.37331 -8.24605,-14.6176 -14.61335,-23.23684 -4.49963,-4.87711 -7.497095,-9.37845 -15.366535,-13.12573 7.21465,-5.05598 11.145085,-8.80839 14.618455,-14.241"
       id="path12-4"
       inkscape:connector-curvature="0"
       style="fill:#c83803;stroke-width:0.85593224"
       inkscape:export-filename="C:\Users\alex\sites\chicago-bears-logo-5.png"
       inkscape:export-xdpi="102.08273"
       inkscape:export-ydpi="102.08273" />
  </g>
</svg>
