<?xml version="1.0" encoding="UTF-8" standalone="no"?>
<svg
   xmlns:dc="http://purl.org/dc/elements/1.1/"
   xmlns:cc="http://creativecommons.org/ns#"
   xmlns:rdf="http://www.w3.org/1999/02/22-rdf-syntax-ns#"
   xmlns:svg="http://www.w3.org/2000/svg"
   xmlns="http://www.w3.org/2000/svg"
   xmlns:sodipodi="http://sodipodi.sourceforge.net/DTD/sodipodi-0.dtd"
   xmlns:inkscape="http://www.inkscape.org/namespaces/inkscape"
   viewBox="0 0 699.99996 699.99996"
   version="1.1"
   id="svg16"
   sodipodi:docname="detroit-lions-logo.svg"
   width="700"
   height="700"
   inkscape:version="0.92.3 (2405546, 2018-03-11)"
   inkscape:export-filename="C:\Users\alex\sites\detroit-lions-logo-0.png"
   inkscape:export-xdpi="561.73999"
   inkscape:export-ydpi="561.73999">
  <metadata
     id="metadata22">
    <rdf:RDF>
      <cc:Work
         rdf:about="">
        <dc:format>image/svg+xml</dc:format>
        <dc:type
           rdf:resource="http://purl.org/dc/dcmitype/StillImage" />
        <dc:title>Logos/Clubs/DET/Primary</dc:title>
      </cc:Work>
    </rdf:RDF>
  </metadata>
  <defs
     id="defs20" />
  <sodipodi:namedview
     pagecolor="#ffffff"
     bordercolor="#666666"
     borderopacity="1"
     objecttolerance="10"
     gridtolerance="10"
     guidetolerance="10"
     inkscape:pageopacity="0"
     inkscape:pageshadow="2"
     inkscape:window-width="1600"
     inkscape:window-height="838"
     id="namedview18"
     showgrid="false"
     units="px"
     inkscape:zoom="0.32"
     inkscape:cx="663.17532"
     inkscape:cy="206.19623"
     inkscape:window-x="-8"
     inkscape:window-y="-8"
     inkscape:window-maximized="1"
     inkscape:current-layer="g14" />
  <title
     id="title2">Logos/Clubs/DET/Primary</title>
  <desc
     id="desc4">Created with Sketch.</desc>
  <g
     id="g14"
     style="fill:none"
     transform="translate(100,100)">
    <path
       d="m 1132.3005,93.435088 c 0,0 5.994,-5.145 12.263,-5.032 6.284,0.098 10.621,2.205 12.982,4.719 0,0 4.996,-0.683 10.422,0.806 5.419,1.498 13.074,5.972 16.056,11.180992 2.978,5.218 3.324,11.215 0.229,16.889 0,0 1.026,3.858 -1.506,8.644 -2.555,4.797 -6.721,7.288 -6.721,7.288 0,0 -2.851,7.09 -10.288,10.386 -7.452,3.301 -17.236,-0.427 -17.236,-0.427 0,0 -5.541,1.08 -9.72,1.08 -4.211,-0.008 -10.087,-1.816 -11.892,-2.666 0,0 -4.991,7.326 -6.382,9.073 0,0 6.816,5.932 14.273,8.268 7.442,2.335 13.294,3.405 16.706,5.844 3.382,2.463 4.686,4.853 4.686,4.853 0,0 5.202,-0.81 10.196,0.368 5.004,1.174 10.842,5.106 14.677,10.331 3.831,5.217 6.17,11.912 4.574,18.286 -1.595,6.395 -5.241,8.719 -5.241,8.719 0,0 -1.777,5.873 -5.398,9.48 -3.607,3.641 -8.761,3.874 -8.761,3.874 0,0 -2.828,3.798 -10.168,4.963 -7.335,1.174 -12.588,-2.886 -12.588,-2.886 0,0 -5.798,0.657 -13.688,-1.794 -7.867,-2.438 -13.255,-10.508 -13.255,-10.508 0,0 -5.125,-2.465 -14.6,-2.9 -9.471,-0.431 -30.62,-4.687 -40.036,-10.165 0,0 -5.538,2.675 -22.319,3.544 0,0 -2.487,-7.581 -7.352,-11.382 0,0 -14.425,8.007 -18.984,10.122 -4.58,2.137 -13.048,5.824 -20.41599,6.271 0,0 -1.932,12.034 -5.449,18.532 -3.503,6.501 -10.248,11.33 -15.96,13.224 0,0 8.313,2.951 12.687,9.441 4.349,6.502 5.842,13.626 2.868,19.37 -2.985,5.749 -6.347,7.31 -6.347,7.31 0,0 -1.707,5.803 -8.423,8.817 -6.724,3.016 -15.174,1.419 -15.174,1.419 0,0 -4.679,2.467 -11.086,2.417 -6.417,-0.057 -14.457,-5.516 -14.457,-5.516 0,0 -21.034,1.925 -27.294,1.399 -6.256,-0.505 -13.666,-3.102 -17.198,-12.346 0,0 -3.843,3.21 -9.577,5.98 -5.743,2.767 -16.622,8.102 -24.438,13.671 l 0.26,4.156 c 0,0 11.425,4.305 12.157,16.007 0.751,11.71 -5.642,16.053 -7.456,17.294 0,0 -2.431,5.28102 -7.646,7.93602 -5.208,2.651 -10.966,1.429 -10.966,1.429 0,0 -12.84601,5.704 -22.63701,-3.667 -9.796,-9.35802 -7.024,-19.46802 -6.91,-21.92702 0.096,-2.438 0.809,-23.893 0.708,-24.889 0,0 -4.862,-6.502 -3.8,-13.848 1.064,-7.339 6.7,-11.925 9.353,-14.153 2.669,-2.24 5.86,-5.951 7.442,-11.595 1.592,-5.635 1.703,-17.148 2.237,-21.399 0.539,-4.258 0.761,-11.391 0.761,-11.391 0,0 -19.252,-5.311 -29.258,-16.488 -10.001,-11.18 -12.773,-19.27 -15.337,-30.324 -2.535,-11.067 -4.337,-22.251 -14.5,-28.525 0,0 -6.655,1.906 -14.301,-1.179 -7.655,-3.082 -12.343,-9.256 -17.229,-15.322 -4.896,-6.067 -22.322,-8.834 -28.514,-9.149 0,0 13.082,-14.48199 30.745,-20.653992 17.652,-6.163 26.053,-3.727 31.906,-0.423 5.855,3.301 10.453,8.856992 12.619,16.404992 0,0 11.512,4.981 19.395,14.249 7.869,9.25 11.59,17.448 14.153,27.556 2.55,10.122 5.76,22.38 26.05101,26.834 0,0 12.023,-12.03 16.58,-15.025 4.587,-2.968 10.319,-4.656 11.973,-5.142 1.643,-0.486 9.374,-3.003 9.374,-3.003 0,0 12.147,-9.912 14.126,-11.891 0,0 4.529,-8.051 7.399,-12.733 2.873,-4.682 7.368,-9.325 7.368,-9.325 0,0 -5.897,-10.964 -5.571,-22.96299 0,0 2.903,1.319 5.502,1.696 0,0 -0.178,-8.886002 5.575,-17.083002 5.74,-8.21 11.536,-13.347 11.536,-13.347 0,0 -0.438,-10.796 6.101,-21.026 0,0 -4.982,-7.988 -5.41,-13.095 0,0 8.294,-0.745 14.57,-2.555 6.282,-1.808 9.358,-3.078 12.553,-6.927 3.187,-3.826 10.84,-13.191 20.524,-17.773 9.691,-4.5729998 20.425,-6.2359998 28.13399,-5.6269998 0,0 -4.72799,-4.059 -9.95899,-5.75499996 0,0 8.91999,-6.57100004 26.47699,-8.44700004 0,0 0.131,-8.8990002 2.029,-13.5830002 0,0 23.312,15.9620002 35.001,20.5460002 11.703,4.584 20.203,6.066 26.27,9.054 6.042,2.9639998 10.339,8.4579998 11.326,11.8409998 0,0 6.533,2.512 11.533,6.029 4.993,3.509 7.891,11.981 7.891,11.981 0,0 9.448,3.771 19.238,9.726 9.776,5.958 21.785,18.521 21.785,18.521 0,0 -7.567,3.334 -13.992,12.627 0,0 -2.955,10.314 -7.828,15.395"
       id="path8"
       inkscape:connector-curvature="0"
       style="fill:#b0b7bc"
       inkscape:export-filename="C:\Users\alex\sites\detroit-lions-logo-4.png"
       inkscape:export-xdpi="80.15181"
       inkscape:export-ydpi="80.15181" />
    <path
       d="m 1118.6265,97.738088 c 0,0 4.405,-0.087 8.263,0.989 3.874,1.083 6.319,2.353002 6.319,2.353002 0,0 2.847,-1.808002 4.297,-3.063002 1.435,-1.276 5.759,-3.512 9.614,-2.887 3.874,0.63 6.607,3.391 7.322,4.568 0,0 3.301,0.2 6.358,0.029 3.061,-0.19 8.728,0.889002 13.218,4.492992 4.519,3.599 8.635,8.918 3.152,16.018 0,0 1.175,4.504 -0.446,7.74 -1.618,3.252 -5.804,5.021 -5.804,5.021 0,0 -2.576,7.681 -8.594,9.656 -6.028,1.99 -13.59,-1.722 -13.59,-1.722 0,0 -7.093,1.722 -12.229,1.368 -5.123,-0.367 -10.73,-4.699 -10.73,-4.699 0,0 -1.232,0.735 -2.39,2.435 -1.181,1.718 -10.008,14.098 -12.065,16.279 0,0 8.637,8.396 17.18,11.896 8.55,3.505 12.864,4.064 15.127,4.679 2.235,0.64 7.183,3.427 8.993,8.837 0,0 5.493,-1.368 9.08,-1.087 3.602,0.266 7.109,0.981 13.405,7.461 6.295,6.482 4.862,12.344 3.87,15.034 -0.987,2.684 -4.731,5.015 -4.731,5.015 0,0 -0.312,5.427 -3.554,8.311 -3.243,2.869 -7.634,2.376 -7.634,2.376 0,0 -1.72,3.28 -6.21,4.647 -4.51,1.352 -9.363,-1.004 -11.627,-2.799 0,0 -9.258,0.815 -15.275,-2.161 -6.015,-2.968 -8.847,-8.794 -8.847,-8.794 0,0 -10.21,-4.177 -20.831,-4.264 -10.611,-0.086 -31.165,-5.829 -37.899,-10.745 0,0 -10.22,4.659 -18.456,4.782 0,0 -2.543,-7.715 -11.451,-13.07 0,0 -19.088,10.584 -25.925,13.734 -6.83096,3.15 -18.86199,4.292 -20.62199,4.482 0,0 0.747,2.89 -0.14,7.576 -0.931,4.676 -3.791,13.868 -6.217,16.927 -2.443,3.059 -9.188,6.832 -13.137,8.276 -3.954,1.442 -8.898,2.707 -13.056,4.765 -4.124,2.076 -9.164,6.288 -11.369,8.276 0,0 6.369,1.613 8.289,1.529 1.915,-0.074 5.339,-1.98 7.866,-2.956 2.525,-1 9.62,-2.351 15.29,1.885 5.668,4.229 8.632,9.712 8.438,13.868 -0.16,4.134 -2.845,7.142 -6.805,9.19 0,0 -1.182,5.844 -6.122,7.638 -4.97,1.795 -13.199,0.167 -13.199,0.167 0,0 -3.906,2.537 -8.584,2.797 -4.675,0.277 -10.967,-3.774 -11.957,-4.311 -1.002,-0.549 -1.981,-1.078 -3.697,-1.078 -1.72,0 -20.229,1.532 -25.989,1.532 -5.751,0 -9.708,-2.802 -12.14,-7.295 -2.43,-4.506 0.977,-11.706 3.151,-14.571 2.145,-2.898 5.58,-6.858 6.01,-7.672 0.454,-0.81 0.557,-2.15 -0.617,-2.964 -1.171,-0.81 -4.926,-2.663 -4.926,-2.663 0,0 -5.69,11.401 -7.844,15.262 -2.165,3.869 -4.955,8.189 -10.344,11.521 -5.405,3.334 -16.835,8.381 -22.847,12.065 -6.037,3.684 -9.609,7.086 -9.609,7.086 0,0 0.062,10.848 0.389,12.184 0,0 5.431,1.071 7.603,2.957 2.162,1.9 4.308,4.958 4.217,9.187 -0.075,4.229 -0.641,9.205 -5.908,11.172 0,0 -1.471,5.477 -5.6,7.094 -4.142,1.62402 -8.376,0.186 -8.376,0.186 0,0 -5.655,2.86902 -11.595,1.61702 -5.93301,-1.257 -10.88301,-7.37002 -10.97401,-13.59502 -0.086,-6.218 0.981,-28.708 0.981,-30.164 0,-1.437 0,-2.963 -1.067,-4.936 -1.085,-1.982 -3.611,-6.927 -2.965,-10.085 0.627,-3.15 3.858,-6.845 6.828,-9.369 2.966,-2.515 6.577,-5.028 8.36901,-10.078 1.791,-5.024 3.321,-11.96 3.51,-17.28 0.181,-5.299 0.825,-22.581 1.99,-27.261 0,0 -22.32801,-4.957 -32.39801,-16.476 -10.068,-11.525 -11.783,-20.71 -14.66,-33.036 -2.88,-12.337 -6.555,-21.768 -18.282,-27.905 0,0 -6.284,3.062 -14.362,-0.446 -8.103,-3.513 -12.516,-12.694 -16.823,-15.947 -4.319,-3.231 -16.072,-5.091 -18.422,-5.024 0,0 14.003,-9.723 23.637,-12.60399 9.621,-2.877002 20.068,-3.776002 26.625,1.45099 6.56,5.2 7.549,14.216 7.549,14.216 0,0 13.501,5.58 21.331,15.205 7.828,9.638 10.144,18.626 11.68,24.661 1.536,6.031 6.282,18.088 13.895,23.408 7.61601,5.324 16.54401,7.561 21.19701,7.876 0,0 13.133,-13.729 17.634,-16.704 4.483,-2.969 9.527,-4.147 11.673,-4.771 2.168,-0.621 9.648,-3.103 9.648,-3.103 0,0 13.237,-11.405 15.78,-13.373 0,0 7.677,-13.31 9.834,-16.469 2.17,-3.144 7.962,-10.547 7.962,-10.547 0,0 -5.307,-6.061 -5.24,-13.907 0,0 3.127,0.622 5.106,0.428 0,0 -2.6,-4.407 -1.337,-10.621992 1.262,-6.21 7.99,-16.296 16.993,-24.044 0,0 -0.356,-6.56 1.525,-12.755 1.897,-6.223 5.733,-11.189 5.733,-11.189 0,0 -4.105,-5.082 -4.753,-9.067 0,0 7.755,-0.728 13.154,-2.517 5.392,-1.816 9.712,-5.64 9.712,-5.64 0,0 10.331,-14.268 22.92,-18.77 12.614,-4.502 25.45599,-3.111 25.45599,-3.111 0,0 6.37,-4.1469998 8.995,-5.0599998 0,0 -4.999,-5.631 -9.146,-7.36399996 0,0 9.712,-2.93500004 18.658,-2.24800004 0,0 0.164,-6.227 1.181,-9.8430002 0,0 15.592,11.25600024 22.703,14.3950002 7.101,3.15 20.675,7.654 25.276,9.0999998 4.583,1.436 12.363,4.427 14.006,12.738 0,0 7.563,3.185 10.544,4.81 2.97,1.626 6.032,5.497 6.655,7.118 0.613,1.609 1.241,3.61 2.015,4.857 0.778,1.259 2.109,2.15 3.373,2.592 1.264,0.462 13.76,6.04 19.53,10.36 5.742,4.337 13.586,11.797 13.586,11.797 0,0 -7.804,6.228 -9.724,9.101 0,0 -2.335,7.833 -6.11,13.402 -3.792,5.58 -9.44,7.758 -9.44,7.758 v 1.878"
       id="path10"
       inkscape:connector-curvature="0"
       style="fill:#ffffff"
       inkscape:export-filename="C:\Users\alex\sites\detroit-lions-logo-4.png"
       inkscape:export-xdpi="80.15181"
       inkscape:export-ydpi="80.15181" />
    <path
       d="m 1101.8845,156.57708 c 0,0 -20.466,20.634 -38.937,30.596 0,0 -8.607,4.068 -15.292,5.028 0,0 -5.257,-10.042 -15.77,-13.153 0,0 -22.267,-8.529 -54.46099,-1.821 0,0 30.62899,-2.241 45.97199,6.612 -6.992,3.872 -16.548,9.002 -21.616,10.982 -8.60399,3.352 -19.81699,3.119 -24.13699,3.835 0,0 2.157,7.646 1.911,10.037 -0.232,2.383 -2.619,14.353 -6.674,17.697 -4.07,3.336 -14.583,6.683 -20.074,8.612 -5.493,1.898 -17.685,9.552 -21.509,20.069 0,0 14.34,3.121 18.159,3.58 3.826,0.475 7.407,-1.671 10.044,-2.857 2.622,-1.207 5.962,-1.924 9.552,0.233 3.579,2.166 5.259,5.265 5.972,7.655 0.719,2.387 -1.9,4.53 -6.214,5.261 0,0 0.483,5.022 -2.141,6.208 -2.637,1.194 -9.084,0.486 -12.68,-0.722 0,0 -2.369,3.364 -7.395,3.364 -5.012,0 -8.367,-5.269 -13.616,-5.506 -5.255,-0.238 -21.742,1.912 -27.719,1.44 -5.977,-0.484 -6.447,-4.064 -5.253,-7.423 1.199,-3.335 8.598,-10.749 9.795,-14.105 1.034,-2.913 1.95,-8.007 -9.982,-12.756 0.514,-0.634 9.112,-11.253 22.621,-19.403 13.227,-7.966 26.36,-15.405 41.743,-20.305 -6.204,0.601 -15.71,2.913 -28.12,8.152 -18.651,7.901 -29.385,18.102 -29.385,18.102 0,0 1.38,-5.388 17.502,-19.723 l -0.167,0.115 c -22.038,10.044 -31.247,32.724 -31.412,33.075 -2.779,5.667 -10.468,21.113 -13.389,24.227 -3.575,3.822 -13.605,7.41 -21.007,11.706 -7.421,4.307 -16.977,9.813 -18.172,13.39 -1.197,3.593 0.26,19.835 0.718,20.807 0,0 8.371,0.712 10.033,2.862 1.67,2.149 1.452,6.45 0.47,7.651 -0.942,1.208 -4.531,1.208 -4.531,1.208 0,0 0.239,4.759 -2.152,6.197 -2.386,1.45 -7.64,-0.703 -7.64,-0.703 0,0 -1.44,2.153 -5.015,2.616 -3.579,0.486 -6.21301,-0.937 -7.88701,-3.577 -1.673,-2.632 -0.947,-6.217 -0.947,-9.095 0,-2.865 1.182,-22.95 0.705,-27.731 -0.463,-4.769 -4.537,-8.118 -3.819,-11.236 0.718,-3.098 9.55101,-8.133 12.41401,-13.389 2.877,-5.264 5.505,-12.193 6.21,-24.372 0.718,-12.197 0.718,-23.444 2.635,-29.653 0.245,-0.782 0.48,-1.522 0.693,-2.245 -7.763,-1.462 -24.38101,-6.037 -32.15101,-12.84 -8.747,-7.63 -12.65,-15.267 -14.517,-25.127 -1.86,-9.88 -5.847,-21.015 -9.85,-28.12 -4.178,-7.356 -16.939,-13.959 -16.939,-13.959 0,0 -5.695,4.591 -13.182,0.432 -8.371,-4.631 -9.233,-7.485 -12.164,-11.357 -2.607,-3.416 -7.716,-4.437 -9.103,-4.668 17.54,-6.842 26.223,2.588 26.223,2.588 0,0 -0.442,-4.742 -7.196,-6.485 -2.032,-0.541 -4.552,-1.151 -7.321,-1.406 1.323,-0.508 2.534,-0.916 3.426,-1.145 2.954,-0.739 9.913,-1.466 15.212,2.113 4.929,3.332 6.694,13.411 6.694,13.411 2.417,1.488 16.743,8.621 21.402,14.579 4.665,5.966 8.012,12.047 10.055,20.051 2.05,8.012 4.834,19.745 16.74,29.614 9.14101,7.555 22.63401,9.323 28.43401,9.733 0.235,-0.316 0.46,-0.627 0.712,-0.948 4.057,-5.264 16.25,-16.73 19.82,-18.396 3.584,-1.677 17.93,-5.281 19.605,-6.94 1.679,-1.66 15.775,-12.919 16.961,-14.588 1.201,-1.66 7.649,-13.148 11.467,-18.895 3.819,-5.733 13.388,-16.238 13.388,-16.238 0,0 -8.113,-0.254 -10.254,-3.84 0,0 8.852,-3.896 9.643,-8.915 0.455,-2.966 -1.587,-5.09899 -7.586,-2.632 0,0 0.774,-5.661992 5.794,-12.830992 5.035,-7.171 14.527,-15.133 18.403,-17.93 4.793,-3.461 6.453,-7.883 5.253,-10.275 -1.198,-2.403 -6.457,-2.641 -10.047,1.436 0,0 3.361,-10.046 9.567,-14.338 0,0 -4.55,-0.965 -6.206,-4.562 0,0 6.923,0.245 11.706,-2.394 4.783,-2.616 17.214,-10.498 21.977,-10.741 0,0 -3.824,-1.925 -9.789,0.243 0,0 9.151,-11.003 23.173,-13.157 14.03699,-2.153 26.51299,1.67 32.24599,-0.958 0,0 -2.626,-3.337 -8.842,-3.337 0,0 7.655,-4.555 12.434,-4.555 0,0 -4.059,-4.7819998 -9.807,-6.9369998 0,0 12.424,0.484 16.973,2.637 0,0 -3.121,-3.583 -2.625,-7.658 0,0 9.558,8.605 23.642,13.3939998 14.096,4.781 22.706,6.455 25.095,10.273 2.39,3.828 0.959,5.98 0.959,5.98 0,0 10.266,4.318 13.855,6.206 3.582,1.924 5.012,6.227 5.486,7.673 0.481,1.416 2.88,5.492 4.779,6.212 1.916,0.716 12.433,5.259 18.152,8.844 5.743,3.589 11.233,8.608 11.233,8.608 0,0 -5.489,3.099 -6.671,5.736 -1.205,2.624 -3.602,15.291 -13.874,18.639 0,0 3.101,-5.259 0.743,-10.514 0,0 -12.204,-0.721 -20.814,4.549 0,0 -1.548,10.282 3.947,13.161 5.493,2.862002 11.817,-5.765 12.546,-7.676 0,0 -0.182,4.845 0,8.112 l 1.466,0.237 c 0.347,3.448002 -0.273,8.393992 -0.273,8.393992 0,0 4.056,-3.111 10.759,-1.915 6.682,1.187 8.353,3.345 10.513,3.345 2.153,0 6.438,-2.864 7.862,-4.302 1.45,-1.43099 3.849,-2.39799 5.989,-1.67399 2.148,0.717 3.344,4.06899 3.344,4.06899 0,0 8.137,0.717 10.759,0.23 2.619,-0.482 7.873,2.399 9.309,3.587 1.431,1.199 3.113,3.117 2.616,4.558 -0.463,1.419 -3.82,3.577 -3.82,3.577 0,0 1.92,3.826 1.674,6.209 -0.235,2.396 -5.253,3.345 -5.253,3.345 0,0 -1.67,6.459 -4.775,8.122 -3.092,1.68 -11.951,-1.902 -11.951,-1.902 0,0 -5.26,1.902 -11.22,1.679 -5.972,-0.24 -9.329,-4.788 -9.329,-4.788 0,0 -4.533,-0.722 -8.131,2.392 -3.559,3.116 -10.968,16.739 -18.382,23.43 z m -50.051,-40.207 c 8.479,9.138 2.392,17.467 2.392,17.467 8.825,-1.842 33.8,-10.965 47.419,-21.968 0,0 -9.85,-5.257 -16.963,-5.658 -6.339,-0.361 -10.239,6.585 -10.676,13.435 -5.107,3.127 -12.408,4.579 -12.408,4.579 l 0.02,-0.131 c 0.177,-1.106 1.069,-9.312 -8.908,-14.433 -10.425,-5.355 -30.741,-8.79099 -52.683,3.086 21.942,-8.25 44.983,-3.708 51.807,3.624 z m -87.22999,-2.702 c 14.171,-3.356 23.089,-11.42999 30.63,-15.113992 8.64999,-4.234 20.16499,-8.121 35.30299,-5.88 0,0 -21.547,-9.054 -41.93299,1.779 -20.384,10.820992 -30.129,16.636992 -50.697,17.361992 0,0 11.744,5.388 26.697,1.852 z m 51.45099,-43.458992 c -21.25499,-3.876 -35.35999,9.781 -35.35999,9.781 0,0 15.997,-6.404 33.04599,-4.613 17.026,1.791 33.009,14.671 33.009,14.671 0,0 -9.447,-15.956 -30.695,-19.839 z m 71.866,-22.605 c -2.105,0 -9.646,1.729 -9.646,1.729 0,0 7.338,1.55 9.281,2.904 1.928,1.35 8.092,5.989 8.092,5.989 0,0 -1.531,-1.933 -1.168,-2.898 0.395,-0.959 3.092,-4.65 3.092,-4.65 -3.092,-0.191 -7.524,-3.075 -9.652,-3.075 z m 85.151,150.568992 c 0.725,3.106 -2.616,5.023 -5.483,5.023 0,0 0.723,6.691 -1.682,8.366 -2.386,1.667 -6.92,-0.728 -6.92,-0.728 0,0 -0.241,4.79 -3.823,5.98 -3.579,1.194 -7.883,-3.106 -7.883,-3.106 0,0 -8.373,1.446 -14.088,-1.194 -5.735,-2.628 -6.939,-7.882 -6.939,-7.882 0,0 -9.326,-4.298 -18.397,-5.252 -7.778,-0.833 -24.57,-1.683 -38.78,-8.465 5.889,-3.49 14.574,-8.944 21.383,-14.559 6.543,-5.403 12.451,-11.189 16.28,-15.157 4.297,3.905 10.668,9.201 15.94,11.64 8.831,4.059 15.292,5.743 18.148,6.208 2.859,0.471 5.024,3.593 5.726,5.26 0.727,1.673 3.599,4.297 6.944,4.068 3.348,-0.245 7.65,-2.154 11.465,0 3.811,2.15 7.406,6.683 8.109,9.798 z"
       id="path12"
       inkscape:connector-curvature="0"
       style="fill:#0076b6"
       inkscape:export-filename="C:\Users\alex\sites\detroit-lions-logo-4.png"
       inkscape:export-xdpi="80.15181"
       inkscape:export-ydpi="80.15181" />
    <g
       transform="matrix(2.7212884,0,0,-2.7212884,114.51649,1522.9675)"
       id="g4"
       inkscape:export-filename="C:\Users\alex\sites\detroit-lions-logo-4.png"
       inkscape:export-xdpi="80.15181"
       inkscape:export-ydpi="80.15181">
      <path
         style="fill:#0076b6"
         inkscape:connector-curvature="0"
         d="m 232.63,416.88 c 1.7986,-0.7946 3.5876,-2.6826 2.9203,-6.4719 l -5.9559,-33.732 h 29.288 l 1.8602,10.547 h -18.025 l 5.2293,29.657 h -15.317 z m 31.826,0 c 1.798,-0.7946 3.5876,-2.6826 2.9203,-6.4719 l -5.948,-33.732 h 15.332 c -1.798,0.79517 -3.5876,2.6824 -2.9203,6.4723 l 5.9441,33.732 h -15.328 z m 18.803,0 -5.952,-33.732 c -0.62765,-3.5598 1.7715,-6.4723 5.3312,-6.4723 h 25.293 l 5.9488,33.732 c 0.62763,3.5592 -1.7715,6.4719 -5.3312,6.4719 h -25.29 z m 31.175,0 c 1.7986,-0.7946 3.5876,-2.6826 2.9203,-6.4719 l -5.948,-33.732 h 10.548 l 5.2293,29.657 h 7.0367 c 1.2648,0 2.1179,-1.0352 1.8945,-2.3 l -4.8238,-27.357 h 13.022 l 1.8629,10.547 c -1.2653,0 -2.4017,0.45673 -2.075,2.3 l 3.6816,20.885 c 0.62765,3.5592 -1.772,6.4719 -5.3312,6.4719 h -28.017 z m 44.58,0 c -3.5598,0 -6.986,-2.9127 -7.6137,-6.4719 l -0.75273,-4.3102 c -0.98948,-5.6085 -0.37165,-8.0694 4.1781,-9.9473 4.7983,-1.9812 10.201,-4.3768 8.6875,-8.9277 h -14.764 l -1.8602,-10.547 h 32.23 c -1.798,0.79517 -3.5877,2.6824 -2.9199,6.4723 l 0.98828,5.6781 c 1.4764,8.4189 -7.2011,11.556 -10.324,12.898 -3.0868,1.3268 -3.4062,2.0072 -2.6914,4.6082 h 16.112 l 1.8602,10.548 h -23.13 z m -67.068,-10.548 h 8.3688 c 1.2653,0 2.1181,-1.0352 1.8953,-2.3 l -2.9668,-16.809 h -8.3762 c -1.2653,0 -2.1173,1.0347 -1.8945,2.3 z"
         id="path2" />
    </g>
    <path
       d="m 460.82479,173.95647 c 0,0 6.81504,-5.84975 13.94276,-5.72127 7.14477,0.11142 12.07584,2.50704 14.76025,5.3654 0,0 5.68034,-0.77656 11.84959,0.9164 6.16128,1.70319 14.86485,6.79004 18.25532,12.71254 3.38592,5.93275 3.77931,12.75121 0.26037,19.20242 0,0 1.16653,4.38647 -1.71229,9.82804 -2.90499,5.45409 -7.64163,8.2863 -7.64163,8.2863 0,0 -3.24153,8.06118 -11.69724,11.80866 -8.47276,3.75316 -19.59695,-0.4855 -19.59695,-0.4855 0,0 -6.3,1.22794 -11.05142,1.22794 -4.78782,-0.009 -11.46871,-2.06475 -13.52095,-3.03119 0,0 -5.67466,8.32951 -7.2562,10.31581 0,0 7.74965,6.74455 16.22809,9.40054 8.4614,2.65484 15.11499,3.8714 18.99436,6.6445 3.84526,2.80037 5.32788,5.51776 5.32788,5.51776 0,0 5.91456,-0.92096 11.59263,0.4184 5.68944,1.33482 12.32712,5.80541 16.68742,11.74612 4.35577,5.93162 7.01516,13.54369 5.20055,20.79078 -1.81349,7.27098 -5.95891,9.91332 -5.95891,9.91332 0,0 -2.02041,6.67747 -6.1374,10.77855 -4.10109,4.13974 -9.96107,4.40466 -9.96107,4.40466 0,0 -3.21537,4.31824 -11.5608,5.64281 -8.33973,1.33482 -14.31228,-3.28132 -14.31228,-3.28132 0,0 -6.5922,0.747 -15.56296,-2.03973 -8.9446,-2.77196 -15.07064,-11.94737 -15.07064,-11.94737 0,0 -5.82701,-2.80265 -16.59988,-3.29723 -10.76832,-0.49005 -34.81427,-5.32903 -45.52005,-11.55739 0,0 -6.2966,3.04142 -25.37622,4.02945 0,0 -2.82767,-8.61943 -8.35907,-12.94109 0,0 -16.40091,9.10379 -21.58439,11.5085 -5.20736,2.42972 -14.83529,6.62176 -23.21258,7.12999 0,0 -2.19664,13.68239 -6.19539,21.07048 -3.98284,7.39149 -11.65175,12.88196 -18.14618,15.0354 0,0 9.45171,3.35522 14.42485,10.7342 4.94471,7.39264 6.64222,15.49247 3.26086,22.02327 -3.39388,6.53649 -7.21641,8.31132 -7.21641,8.31132 0,0 -1.94082,6.59788 -9.57677,10.02473 -7.64504,3.42912 -17.2525,1.61337 -17.2525,1.61337 0,0 -5.31992,2.80493 -12.60454,2.74808 -7.296,-0.0648 -16.4373,-6.27158 -16.4373,-6.27158 0,0 -23.91519,2.18869 -31.03267,1.59064 -7.11294,-0.57418 -15.53795,-3.5269 -19.55376,-14.03713 0,0 -4.3694,3.6497 -10.88884,6.79912 -6.52966,3.14603 -18.89885,9.21181 -27.78547,15.54363 l 0.29561,4.72529 c 0,0 12.98998,4.89469 13.82225,18.1996 0.85387,13.31402 -6.41483,18.25191 -8.47731,19.66291 0,0 -2.764,6.00438 -8.69334,9.02305 -5.92138,3.01413 -12.4681,1.62475 -12.4681,1.62475 0,0 -14.60562,6.48532 -25.73778,-4.1693 -11.137835,-10.63984 -7.986132,-22.13469 -7.856517,-24.93053 0.10915,-2.77194 0.919816,-27.16581 0.804982,-28.29824 0,0 -5.527989,-7.39263 -4.320518,-15.74487 1.209745,-8.34429 7.617754,-13.55847 10.634153,-16.09165 3.0346,-2.54684 6.6627,-6.76616 8.46139,-13.18327 1.81007,-6.40687 1.93628,-19.4969 2.54343,-24.33019 0.61283,-4.84126 0.86524,-12.95132 0.86524,-12.95132 0,0 -21.889108,-6.03849 -33.265711,-18.7465 -11.370934,-12.71141 -14.522637,-21.90957 -17.43785,-34.47772 -2.882239,-12.58294 -4.931074,-25.2989 -16.486183,-32.4323 0,0 -7.566589,2.16707 -16.259924,-1.3405 -8.703568,-3.50417 -14.033722,-10.52387 -19.588997,-17.42078 -5.5666452,-6.89805 -25.379628,-10.04407 -32.419791,-10.40222 0,0 14.8739418,-16.4657 34.95639,-23.48313 20.069937,-7.00719 29.621691,-4.23751 36.276424,-0.48094 6.657008,3.75316 11.884832,10.0702 14.347527,18.65211 0,0 13.088893,5.66329 22.051708,16.20081 8.94688,10.51704 13.177576,19.83799 16.091647,31.33056 2.8993,11.5085 6.549,25.44557 29.61942,30.50968 0,0 13.66989,-13.67785 18.8511,-17.0831 5.21532,-3.37455 11.73248,-5.29377 13.61304,-5.84634 1.86806,-0.55257 10.65803,-3.41434 10.65803,-3.41434 0,0 13.81088,-11.26973 16.06096,-13.51981 0,0 5.14937,-9.15382 8.41251,-14.47715 3.26653,-5.32333 8.37725,-10.60232 8.37725,-10.60232 0,0 -6.70476,-12.46583 -6.33411,-26.10841 0,0 3.30065,1.49967 6.25565,1.92831 0,0 -0.20237,-10.10319 6.33866,-19.423 6.52625,-9.3346 13.11618,-15.17525 13.11618,-15.17525 0,0 -0.498,-12.27482 6.9367,-23.90611 0,0 -5.66442,-9.08218 -6.15105,-14.88873 0,0 9.43009,-0.84705 16.56577,-2.90498 7.1425,-2.05566 10.63984,-3.49962 14.27249,-7.87585 3.62355,-4.350071 12.32484,-14.997875 23.33534,-20.207513 11.01845,-5.199391 23.22278,-7.09018 31.98777,-6.397762 0,0 -5.37566,-4.614995 -11.3232,-6.543309 0,0 10.14189,-7.471084 30.10381,-9.604055 0,0 0.14895,-10.117968 2.30693,-15.443574 0,0 26.50524,18.148445 39.79537,23.360353 13.30605,5.211908 22.97038,6.896911 29.86842,10.294201 6.86962,3.370003 11.75522,9.61655 12.87741,13.462947 0,0 7.42788,2.856086 13.11277,6.854843 5.67694,3.989659 8.97189,13.622139 8.97189,13.622139 0,0 10.74218,4.28754 21.87319,11.05825 11.1151,6.77411 24.76907,21.05797 24.76907,21.05797 0,0 -8.60351,3.79069 -15.9086,14.35663 0,0 -3.35977,11.72679 -8.90027,17.50378"
       id="path8-8"
       inkscape:connector-curvature="0"
       style="fill:#b0b7bc;stroke-width:1.13697815"
       inkscape:export-filename="C:\Users\alex\sites\detroit-lions-logo-5.png"
       inkscape:export-xdpi="70.495445"
       inkscape:export-ydpi="70.495445" />
    <path
       d="m 445.27775,178.84889 c 0,0 5.00839,-0.0989 9.39485,1.12447 4.40466,1.23134 7.18457,2.67531 7.18457,2.67531 0,0 3.23697,-2.05566 4.88559,-3.48257 1.63156,-1.45078 6.54785,-3.99307 10.9309,-3.28245 4.40466,0.71629 7.51202,3.85549 8.32496,5.19371 0,0 3.75316,0.2274 7.2289,0.0329 3.4803,-0.21603 9.92356,1.01077 15.02859,5.10843 5.138,4.09199 9.8178,10.13958 3.58375,18.21212 0,0 1.33595,5.12095 -0.5071,8.80021 -1.83962,3.69745 -6.59902,5.70876 -6.59902,5.70876 0,0 -2.92885,8.73313 -9.77118,10.97867 -6.85371,2.26258 -15.45153,-1.95788 -15.45153,-1.95788 0,0 -8.06459,1.95788 -13.90411,1.55539 -5.82474,-0.41728 -12.19978,-5.34266 -12.19978,-5.34266 0,0 -1.40075,0.83568 -2.71738,2.76853 -1.34276,1.95334 -11.37887,16.02913 -13.71764,18.50887 0,0 9.82008,9.54607 19.53329,13.5255 9.72116,3.98511 14.62608,4.62068 17.19907,5.31992 2.54114,0.72766 8.16691,3.89642 10.22484,10.04748 0,0 6.24542,-1.55539 10.32376,-1.23591 4.09539,0.30244 8.08278,1.11538 15.24119,8.483 7.15728,7.36989 5.52799,14.03486 4.40011,17.09333 -1.1222,3.05165 -5.37904,5.70194 -5.37904,5.70194 0,0 -0.35474,6.17038 -4.04083,9.44944 -3.68722,3.26198 -8.67968,2.70145 -8.67968,2.70145 0,0 -1.95561,3.72929 -7.06064,5.28354 -5.12777,1.5372 -10.64552,-1.14153 -13.21965,-3.1824 0,0 -10.52614,0.92664 -17.36734,-2.45702 -6.83892,-3.37454 -10.05884,-9.99858 -10.05884,-9.99858 0,0 -11.60855,-4.74916 -23.68439,-4.84807 -12.06448,-0.0978 -35.43392,-6.62744 -43.09034,-12.21683 0,0 -11.61992,5.29718 -20.98407,5.43703 0,0 -2.89133,-8.77179 -13.01954,-14.86031 0,0 -21.70263,12.03378 -29.47616,15.61526 -7.76669,3.58148 -21.44571,4.87991 -23.44679,5.09594 0,0 0.84932,3.28586 -0.15918,8.61375 -1.05853,5.31651 -4.31028,15.76761 -7.06859,19.24563 -2.77764,3.47801 -10.44655,7.76783 -14.93648,9.40962 -4.49562,1.63952 -10.11684,3.07781 -14.84439,5.4177 -4.68889,2.36037 -10.41927,7.14933 -12.92631,9.40964 0,0 7.24142,1.83394 9.42442,1.73843 2.17731,-0.0842 6.07032,-2.25121 8.94346,-3.36091 2.87087,-1.13698 10.93774,-2.67303 17.3844,2.14321 6.44439,4.80828 9.8144,11.04233 9.59382,15.76761 -0.18191,4.70027 -3.2347,8.1203 -7.73713,10.44883 0,0 -1.34391,6.6445 -6.96058,8.68424 -5.65078,2.04088 -15.00698,0.18988 -15.00698,0.18988 0,0 -4.44104,2.88451 -9.75982,3.18012 -5.31537,0.31494 -12.46923,-4.29095 -13.59485,-4.9015 -1.13925,-0.62421 -2.25234,-1.22567 -4.2034,-1.22567 -1.9556,0 -22.99994,1.74185 -29.54893,1.74185 -6.53876,0 -11.03778,-3.18581 -13.80291,-8.29425 -2.76286,-5.12323 1.11083,-13.30947 3.58262,-16.56691 2.43881,-3.29497 6.34433,-7.7974 6.83324,-8.7229 0.51618,-0.92095 0.63329,-2.44451 -0.70152,-3.37001 -1.3314,-0.92094 -5.60076,-3.02776 -5.60076,-3.02776 0,0 -6.4694,12.96268 -8.91845,17.35255 -2.46156,4.39897 -5.63373,9.31072 -11.76091,13.09913 -6.14537,3.79069 -19.14102,9.52901 -25.97653,13.71764 -6.86394,4.18863 -10.92523,8.05663 -10.92523,8.05663 0,0 0.0705,12.33394 0.44228,13.85294 0,0 6.17493,1.2177 8.64445,3.36205 2.45815,2.16026 4.8981,5.63713 4.79463,10.44541 -0.0852,4.80828 -0.72879,10.46589 -6.71726,12.70232 0,0 -1.67249,6.22723 -6.36708,8.06573 -4.70936,1.84645 -9.52333,0.21148 -9.52333,0.21148 0,0 -6.42961,3.26198 -13.18326,1.83848 -6.74569,-1.42917 -12.37373,-8.37952 -12.4772,-15.45721 -0.0978,-7.06973 1.11538,-32.64037 1.11538,-34.29581 0,-1.63384 0,-3.36887 -1.21316,-5.61213 -1.233621,-2.25348 -4.105628,-7.87584 -3.371139,-11.46642 0.712885,-3.58148 4.386459,-7.78262 7.763289,-10.65235 3.37227,-2.8595 7.4779,-5.71672 9.51537,-11.45846 2.03632,-5.71218 3.77591,-13.59826 3.99079,-19.64698 0.20579,-6.02485 0.93801,-25.67411 2.26259,-30.99516 0,0 -25.386451,-5.63601 -36.835821,-18.73285 -11.447112,-13.10368 -13.39703,-23.54683 -16.668115,-37.56122 -3.274498,-14.0269 -7.452892,-24.74974 -20.786235,-31.72737 0,0 -7.144771,3.48143 -16.329281,-0.50709 -9.212933,-3.99421 -14.230418,-14.4328 -19.127382,-18.13139 -4.9106092,-3.67358 -18.2735162,-5.78836 -20.9454102,-5.71218 0,0 15.921103,-11.05485 26.8747502,-14.33046 10.938868,-3.27109 22.816878,-4.29323 30.272044,1.64974 7.458576,5.91229 8.583048,16.16328 8.583048,16.16328 0,0 15.350342,6.34434 24.252897,17.28775 8.900265,10.9582 11.533506,21.17736 13.279905,28.03902 1.746398,6.85712 7.1425,20.56566 15.79831,26.61438 8.65923,6.05328 18.81016,8.59669 24.10052,8.95484 0,0 14.93195,-15.60956 20.04948,-18.99208 5.09708,-3.37569 10.832,-4.71505 13.27194,-5.42452 2.46497,-0.70606 10.96958,-3.52804 10.96958,-3.52804 0,0 15.05018,-12.96724 17.94151,-15.20481 0,0 8.72859,-15.13318 11.18104,-18.7249 2.46725,-3.57465 9.05262,-11.9917 9.05262,-11.9917 0,0 -6.03394,-6.89123 -5.95776,-15.81196 0,0 3.55533,0.7072 5.80541,0.48662 0,0 -2.95615,-5.01066 -1.52014,-12.07696 1.43486,-7.06064 9.08446,-18.5282 19.32067,-27.33751 0,0 -0.40476,-7.45859 1.73389,-14.50217 2.15685,-7.07541 6.5183,-12.72165 6.5183,-12.72165 0,0 -4.6673,-5.77812 -5.40406,-10.30898 0,0 8.81727,-0.82772 14.95581,-2.86177 6.13059,-2.06476 11.04233,-6.41256 11.04233,-6.41256 0,0 11.74612,-16.222398 26.05954,-21.341076 14.34185,-5.118679 28.94295,-3.537139 28.94295,-3.537139 0,0 7.24255,-4.715034 10.22712,-5.753097 0,0 -5.68376,-6.402326 -10.3988,-8.372709 0,0 11.04233,-3.337031 21.21373,-2.555927 0,0 0.18647,-7.079963 1.34278,-11.191275 0,0 17.72776,12.797825 25.81281,16.3668 8.07368,3.581478 23.50702,8.70243 28.73827,10.346489 5.21076,1.632702 14.05645,5.033402 15.92451,14.482826 0,0 8.59896,3.621279 11.9883,5.468868 3.37682,1.84873 6.85825,6.24997 7.56658,8.09301 0.69697,1.8294 1.41099,4.10449 2.29102,5.52231 0.88456,1.43145 2.39788,2.4445 3.83503,2.94704 1.43713,0.52529 15.64481,6.86735 22.20517,11.7791 6.52853,4.93107 15.44699,13.41293 15.44699,13.41293 0,0 -8.87298,7.0811 -11.05598,10.34763 0,0 -2.65484,8.90597 -6.94693,15.2378 -4.31142,6.34434 -10.73308,8.82067 -10.73308,8.82067 v 2.13525"
       id="path10-0"
       inkscape:connector-curvature="0"
       style="fill:#ffffff;stroke-width:1.13697815"
       inkscape:export-filename="C:\Users\alex\sites\detroit-lions-logo-5.png"
       inkscape:export-xdpi="70.495445"
       inkscape:export-ydpi="70.495445" />
    <path
       d="m 426.24246,245.74754 c 0,0 -23.26939,23.4604 -44.27052,34.78697 0,0 -9.78597,4.62523 -17.38667,5.71673 0,0 -5.9771,-11.41753 -17.93014,-14.95467 0,0 -25.3171,-9.69728 -61.921,-2.07044 0,0 34.82453,-2.54796 52.26919,7.5177 -7.94975,4.40238 -18.81472,10.23508 -24.57692,12.4863 -9.7826,3.81114 -22.53153,3.54623 -27.44328,4.36031 0,0 2.45247,8.69333 2.17277,11.41184 -0.26378,2.70943 -2.97775,16.31905 -7.58819,20.12111 -4.62751,3.79296 -16.58056,7.59842 -22.82371,9.79166 -6.24542,2.15798 -20.10745,10.86041 -24.45526,22.81801 0,0 16.30427,3.54851 20.64639,4.07038 4.35008,0.54006 8.4216,-1.89989 11.41981,-3.24834 2.98116,-1.37234 6.77867,-2.18755 10.86042,0.26491 4.06924,2.4627 5.97937,5.98619 6.79003,8.70357 0.81748,2.71396 -2.16026,5.15051 -7.06519,5.98164 0,0 0.54916,5.7099 -2.43427,7.05836 -2.99821,1.35755 -10.32831,0.55257 -14.41688,-0.82089 0,0 -2.6935,3.82479 -8.40795,3.82479 -5.69853,0 -9.5131,-5.99074 -15.4811,-6.26021 -5.97481,-0.27059 -24.72017,2.17391 -31.51589,1.63725 -6.79572,-0.55029 -7.3301,-4.62068 -5.97255,-8.43979 1.36323,-3.79181 9.77574,-12.22138 11.1367,-16.03707 1.17564,-3.31202 2.21711,-9.10379 -11.34931,-14.5033 0.58441,-0.72084 10.36014,-12.79441 25.71958,-22.06078 15.03881,-9.05717 29.97074,-17.51515 47.46087,-23.08635 -7.05381,0.68333 -17.86192,3.31202 -31.97182,9.26865 -21.20578,8.98326 -33.4101,20.58158 -33.4101,20.58158 0,0 1.56903,-6.12604 19.89939,-22.42462 l -0.18987,0.13076 c -25.05673,11.4198 -35.52716,37.20646 -35.71476,37.60554 -3.15967,6.44326 -11.9019,24.00503 -15.22301,27.54558 -4.06469,4.34553 -15.46858,8.425 -23.8845,13.30946 -8.43752,4.89697 -19.30247,11.15717 -20.66117,15.22414 -1.36096,4.08516 0.29562,22.55196 0.81636,23.6571 0,0 9.51764,0.80953 11.40729,3.25403 1.89876,2.44337 1.6509,7.33351 0.53439,8.69902 -1.07103,1.37347 -5.15165,1.37347 -5.15165,1.37347 0,0 0.27174,5.41088 -2.44678,7.04585 -2.71282,1.64863 -8.68651,-0.79928 -8.68651,-0.79928 0,0 -1.63725,2.44791 -5.70194,2.97433 -4.06925,0.55257 -7.06405,-1.06535 -8.96735,-4.06698 -1.90217,-2.99253 -1.07672,-7.06859 -1.07672,-10.34081 0,-3.25744 1.34391,-26.09365 0.80157,-31.52954 -0.52642,-5.42225 -5.15847,-9.22999 -4.34212,-12.77509 0.81635,-3.52235 10.85928,-9.24705 14.11445,-15.223 3.27108,-5.98506 6.25906,-13.86318 7.06063,-27.71043 0.81635,-13.86772 0.81635,-26.65532 2.99594,-33.71482 0.27855,-0.88911 0.54575,-1.73048 0.78792,-2.55251 -8.82636,-1.66226 -27.72066,-6.86393 -36.554983,-14.5988 C 84.1689,281.07572 79.731274,272.39261 77.60852,261.18201 75.493741,249.94867 70.960609,237.28841 66.409285,229.21019 61.65899,220.84657 47.150012,213.33911 47.150012,213.33911 c 0,0 -6.47509,5.21986 -14.987646,0.49117 -9.517643,-5.26534 -10.497719,-8.51028 -13.830201,-12.91266 -2.964103,-3.88392 -8.7729242,-5.04477 -10.3499132,-5.30741 19.9425962,-7.77921 29.8149782,2.9425 29.8149782,2.9425 0,0 -0.502545,-5.39155 -8.181695,-7.37331 -2.31034,-0.61511 -5.175524,-1.30866 -8.323816,-1.59859 1.504221,-0.57758 2.881101,-1.04147 3.895286,-1.30184 3.358634,-0.84022 11.270865,-1.66681 17.295712,2.40243 5.604166,3.78842 7.610931,15.24802 7.610931,15.24802 2.748077,1.69182 19.036426,9.80189 24.333607,16.576 5.304019,6.78322 9.109485,13.69718 11.432331,22.79755 2.330805,9.10948 5.496153,22.44964 19.033014,33.67048 10.39312,8.58987 25.73436,10.60004 32.32884,11.0662 0.26719,-0.35928 0.52301,-0.71288 0.80953,-1.07786 4.61272,-5.98505 18.4759,-19.02164 22.53491,-20.91584 4.07492,-1.90671 20.38602,-6.00439 22.29045,-7.89063 1.909,-1.88739 17.93584,-14.68862 19.28429,-16.58624 1.36551,-1.88738 8.69675,-14.94899 13.03773,-21.4832 4.34212,-6.5183 15.22186,-18.46225 15.22186,-18.46225 0,0 -9.2243,-0.28879 -11.65857,-4.366 0,0 10.06453,-4.42967 10.96388,-10.13615 0.51733,-3.37228 -1.80439,-5.79744 -8.62511,-2.99253 0,0 0.88002,-6.43756 6.58764,-14.58856 5.72469,-8.15327 16.51688,-17.2059 20.92381,-20.38603 5.44954,-3.93508 7.33692,-8.9628 5.97255,-11.68245 -1.3621,-2.73215 -7.34147,-3.00276 -11.42322,1.6327 0,0 3.82138,-11.42208 10.87747,-16.30199 0,0 -5.17325,-1.09719 -7.05609,-5.1869 0,0 7.8713,0.27856 13.30947,-2.72193 5.43817,-2.97433 19.57194,-11.93599 24.98737,-12.21227 0,0 -4.3478,-2.18869 -11.12988,0.27628 0,0 10.40448,-12.510173 26.34719,-14.959223 15.9598,-2.447912 30.14474,1.898754 36.66304,-1.089226 0,0 -2.98571,-3.794097 -10.05317,-3.794097 0,0 8.70357,-5.178933 14.13719,-5.178933 0,0 -4.615,-5.43702 -11.15034,-7.887206 0,0 14.12581,0.550296 19.29793,2.998208 0,0 -3.54851,-4.073789 -2.98457,-8.706976 0,0 10.86723,9.7837 26.88044,15.228676 16.02684,5.435892 25.81622,7.339192 28.53246,11.680175 2.71738,4.352349 1.09036,6.799132 1.09036,6.799132 0,0 11.67222,4.90947 15.75284,7.05609 4.07265,2.18754 5.69853,7.07996 6.23746,8.72402 0.54689,1.60997 3.2745,6.2443 5.43362,7.06292 2.17844,0.81407 14.13605,5.97937 20.63842,10.05544 6.52967,4.08061 12.77168,9.7871 12.77168,9.7871 0,0 -6.24088,3.5235 -7.58478,6.52171 -1.37006,2.98343 -4.0954,17.38554 -15.77444,21.19214 0,0 3.52578,-5.97937 0.84478,-11.95419 0,0 -13.87568,-0.81975 -23.66506,5.17212 0,0 -1.76005,11.69041 4.48765,14.96377 6.24542,3.25403 13.43567,-6.55468 14.26453,-8.72745 0,0 -0.20693,5.50866 0,9.22317 l 1.66681,0.26946 c 0.39453,3.9203 -0.3104,9.54379 -0.3104,9.54379 0,0 4.61158,-3.53714 12.23275,-2.17732 7.59728,1.3496 9.49717,3.80319 11.95305,3.80319 2.44791,0 7.31986,-3.2563 8.93893,-4.89128 1.64861,-1.627 4.37622,-2.72645 6.80935,-1.90329 2.44223,0.81522 3.80206,4.62636 3.80206,4.62636 0,0 9.25159,0.81521 12.23275,0.2615 2.97775,-0.54802 8.95143,2.72762 10.58413,4.07835 1.62702,1.36323 3.53941,3.54395 2.97433,5.18234 -0.52642,1.61337 -4.34326,4.06698 -4.34326,4.06698 0,0 2.183,4.35007 1.90331,7.05949 -0.26719,2.7242 -5.97255,3.80319 -5.97255,3.80319 0,0 -1.89875,7.34375 -5.42907,9.23454 -3.51554,1.91012 -13.58802,-2.16254 -13.58802,-2.16254 0,0 -5.98051,2.16254 -12.7569,1.90899 -6.79003,-0.27287 -10.60687,-5.44385 -10.60687,-5.44385 0,0 -5.15392,-0.8209 -9.24477,2.71965 -4.04651,3.54282 -12.47038,19.03188 -20.89993,26.6394 z m -56.9069,-45.71449 c 9.64044,10.38971 2.71966,19.8596 2.71966,19.8596 10.03383,-2.09431 38.42986,-12.46697 53.91437,-24.97714 0,0 -11.19924,-5.97709 -19.28656,-6.43302 -7.20731,-0.41045 -11.64153,7.487 -12.13839,15.2753 -5.80654,3.55533 -14.10762,5.20623 -14.10762,5.20623 l 0.0227,-0.14895 c 0.20124,-1.2575 1.21543,-10.58754 -10.1282,-16.41 -11.853,-6.08852 -34.95184,-9.99517 -59.89942,3.50871 24.94758,-9.38007 51.14469,-4.21592 58.90342,4.1204 z m -99.17863,-3.07211 c 16.11211,-3.8157 26.25169,-12.99565 34.82564,-17.18428 9.83489,-4.81397 22.9272,-9.2334 40.13877,-6.68543 0,0 -24.49846,-10.2942 -47.67694,2.02269 -23.17616,12.30322 -34.25601,18.91589 -57.64137,19.74019 0,0 13.35266,6.12604 30.3539,2.10569 z M 328.65562,147.549 c -24.1665,-4.40693 -40.20358,11.1208 -40.20358,11.1208 0,0 18.18824,-7.28122 37.57261,-5.24489 19.3582,2.03632 37.53052,16.68062 37.53052,16.68062 0,0 -10.74103,-18.14164 -34.89955,-22.55653 z m 81.71008,-25.70139 c -2.39334,0 -10.96729,1.96584 -10.96729,1.96584 0,0 8.34315,1.76231 10.55229,3.30178 2.19209,1.53493 9.20042,6.80936 9.20042,6.80936 0,0 -1.74071,-2.19778 -1.32799,-3.29496 0.44911,-1.09036 3.51554,-5.28695 3.51554,-5.28695 -3.51554,-0.21716 -8.55462,-3.49621 -10.97411,-3.49621 z m 96.81482,171.19366 c 0.82431,3.53146 -2.97433,5.71105 -6.23405,5.71105 0,0 0.82203,7.60752 -1.9124,9.51196 -2.71282,1.89534 -7.86788,-0.82772 -7.86788,-0.82772 0,0 -0.27402,5.44612 -4.34668,6.79912 -4.06924,1.35756 -8.96279,-3.53145 -8.96279,-3.53145 0,0 -9.51992,1.64407 -16.01775,-1.35755 -6.52057,-2.98798 -7.88949,-8.96166 -7.88949,-8.96166 0,0 -10.60346,-4.88673 -20.91699,-5.97141 -8.84341,-0.94711 -27.93555,-1.91353 -44.09201,-9.62452 6.69566,-3.96806 16.57032,-10.16914 24.31201,-16.55327 7.43924,-6.14309 14.15651,-12.72165 18.51,-17.23318 4.88559,4.4399 12.12928,10.46134 18.12343,13.23443 10.04065,4.61499 17.38667,6.52967 20.63388,7.05836 3.25062,0.53552 5.71217,4.08516 6.51034,5.98051 0.82658,1.90216 4.09198,4.88559 7.89518,4.62522 3.80659,-0.27856 8.69787,-2.44905 13.03545,0 4.33302,2.44451 8.42046,7.59843 9.21975,11.14011 z"
       id="path12-4"
       inkscape:connector-curvature="0"
       style="fill:#0076b6;stroke-width:1.13697815"
       inkscape:export-filename="C:\Users\alex\sites\detroit-lions-logo-5.png"
       inkscape:export-xdpi="70.495445"
       inkscape:export-ydpi="70.495445" />
  </g>
</svg>
