<?xml version="1.0" encoding="UTF-8" standalone="no"?>
<svg
   xmlns:dc="http://purl.org/dc/elements/1.1/"
   xmlns:cc="http://creativecommons.org/ns#"
   xmlns:rdf="http://www.w3.org/1999/02/22-rdf-syntax-ns#"
   xmlns:svg="http://www.w3.org/2000/svg"
   xmlns="http://www.w3.org/2000/svg"
   xmlns:sodipodi="http://sodipodi.sourceforge.net/DTD/sodipodi-0.dtd"
   xmlns:inkscape="http://www.inkscape.org/namespaces/inkscape"
   viewBox="0 0 700 700"
   version="1.1"
   id="svg16"
   sodipodi:docname="houston-texans-logo.svg"
   width="700"
   height="700"
   inkscape:export-filename="C:\Users\alex\sites\houston-texans-logo-0.png"
   inkscape:export-xdpi="561.73712"
   inkscape:export-ydpi="561.73712"
   inkscape:version="0.92.3 (2405546, 2018-03-11)">
  <metadata
     id="metadata22">
    <rdf:RDF>
      <cc:Work
         rdf:about="">
        <dc:format>image/svg+xml</dc:format>
        <dc:type
           rdf:resource="http://purl.org/dc/dcmitype/StillImage" />
        <dc:title>Logos/Clubs/HOU/Primary</dc:title>
      </cc:Work>
    </rdf:RDF>
  </metadata>
  <defs
     id="defs20" />
  <sodipodi:namedview
     pagecolor="#ffffff"
     bordercolor="#666666"
     borderopacity="1"
     objecttolerance="10"
     gridtolerance="10"
     guidetolerance="10"
     inkscape:pageopacity="0"
     inkscape:pageshadow="2"
     inkscape:window-width="1600"
     inkscape:window-height="838"
     id="namedview18"
     showgrid="false"
     inkscape:zoom="0.236"
     inkscape:cx="510.37522"
     inkscape:cy="299.44011"
     inkscape:window-x="-8"
     inkscape:window-y="-8"
     inkscape:window-maximized="1"
     inkscape:current-layer="g6" />
  <title
     id="title2">Logos/Clubs/HOU/Primary</title>
  <desc
     id="desc4">Created with Sketch.</desc>
  <g
     id="g14"
     style="fill:none"
     transform="translate(0,200)">
    <path
       d="m 466.52543,2.51823 c 104.84973,79.846481 25.0583,91.799461 -56.82362,103.46045 0,0 -34.55224,-9.538199 -94.42603,-39.300389 C 179.48519,-0.81075004 222.23663,-32.61197 328.95907,-51.853528 158.15196,-126.31645 15.789553,3.329535 172.8392,129.39762 l -43.09487,30.82718 c 35.39944,21.71615 108.74591,67.27126 98.09006,137.03147 l -36.4034,26.03594 111.17384,50.41336 87.72619,-39.78025 c 0.6366,-38.63389 69.63696,-58.69991 99.32616,-137.28635 C 653.09075,159.11554 611.46413,15.252599 466.52423,2.519427"
       id="path8"
       inkscape:connector-curvature="0"
       style="fill:#ffffff;stroke-width:1.19661427"
       inkscape:export-filename="C:\Users\alex\sites\houston-texans-logo-5.png"
       inkscape:export-xdpi="137.14767"
       inkscape:export-ydpi="137.14767" />
    <path
       d="m 340.1151,241.02737 -31.51762,-35.8733 -36.18562,5.39913 16.72508,-27.57239 -31.51044,-35.89603 41.85876,18.85146 16.68798,-27.57957 9.12658,39.21066 41.85039,18.82154 -36.20117,5.41349 9.16486,39.22501 z M 391.81961,113.34026 C 186.66368,34.049016 173.07852,-31.001327 301.1342,-53.482119 140.98413,-97.026912 47.570431,19.120056 206.0273,129.88225 l -42.5181,30.41434 c 45.14825,30.18221 92.99368,74.88891 76.7628,145.24145 l -21.42418,15.3047 82.28518,37.32838 C 377.70913,274.2382 417.76101,192.69014 391.81841,113.34026 Z"
       id="path10"
       inkscape:connector-curvature="0"
       style="fill:#03202f;stroke-width:1.19661427"
       inkscape:export-filename="C:\Users\alex\sites\houston-texans-logo-5.png"
       inkscape:export-xdpi="137.14767"
       inkscape:export-ydpi="137.14767" />
    <path
       d="m 495.96453,15.010883 c 70.40878,55.160328 21.52111,90.404197 -64.31682,99.979507 21.71616,91.60321 -44.87064,175.50621 -115.36917,240.47399 l 64.63871,-29.30509 c 4.78048,-37.23025 70.36331,-56.59267 101.43939,-139.20452 145.96539,-32.5886 122.1432,-137.41319 13.60789,-171.943887"
       id="path12"
       inkscape:connector-curvature="0"
       style="fill:#a71930;stroke-width:1.19661427"
       inkscape:export-filename="C:\Users\alex\sites\houston-texans-logo-5.png"
       inkscape:export-xdpi="137.14767"
       inkscape:export-ydpi="137.14767" />
    <g
       transform="matrix(4.2663676,0,0,-4.2663676,-955.59573,2145.2302)"
       id="g8">
      <g
         transform="translate(0.72308,0.72308)"
         id="g6">
        <path
           d="m 520.66925,518.26045 c 24.57588,-18.71533 5.87345,-21.517 -13.31897,-24.25024 0,0 -8.09875,2.23567 -22.13265,9.21168 -31.82815,15.81885 -21.80758,23.27278 3.20724,27.78284 -40.03572,17.45347 -73.40425,-12.93444 -36.59316,-42.48372 l -10.10106,-7.22563 c 8.29732,-5.09008 25.4891,-15.7678 22.99146,-32.119 l -8.53264,-6.1026 26.05819,-11.81646 20.56227,9.32415 c 0.14922,9.05545 16.32231,13.75876 23.2812,32.17874 38.30743,8.79517 28.55051,42.51542 -5.42216,45.49996"
           id="path8-5"
           inkscape:connector-curvature="0"
           style="fill:#ffffff;stroke-width:0.28047612"
           inkscape:export-filename="C:\Users\alex\sites\houston-texans-logo-3.png"
           inkscape:export-xdpi="106.61569"
           inkscape:export-ydpi="106.61569" />
        <path
           d="m 491.03975,462.35595 -7.38746,8.4084 -8.4816,-1.26551 3.92022,6.46273 -7.38578,8.41372 9.81133,-4.41862 3.91152,6.46441 2.1392,-9.19064 9.80937,-4.41161 -8.48525,-1.26887 2.14817,-9.19401 z m 12.11909,29.92877 c -48.08679,18.58519 -51.27103,33.83243 -21.25588,39.10173 -37.5378,10.20653 -59.43317,-17.01732 -22.29224,-42.97903 l -9.96588,-7.12886 c 10.58236,-7.07446 21.79692,-17.55332 17.99254,-34.04336 l -5.02164,-3.58729 19.28694,-8.74945 c 17.94879,19.67316 27.33661,38.78733 21.25588,57.38626 z"
           id="path10-4"
           inkscape:connector-curvature="0"
           style="fill:#03202f;stroke-width:0.28047612"
           inkscape:export-filename="C:\Users\alex\sites\houston-texans-logo-3.png"
           inkscape:export-xdpi="106.61569"
           inkscape:export-ydpi="106.61569" />
        <path
           d="m 527.56952,515.33228 c 16.50322,-12.92911 5.04437,-21.18997 -15.07531,-23.43434 5.09008,-21.47101 -10.51729,-41.13715 -27.04154,-56.36504 l 15.15076,6.86886 c 1.1205,8.72645 16.49255,13.26484 23.77652,32.62835 34.21304,7.63849 28.62932,32.20847 3.18957,40.30217"
           id="path12-1"
           inkscape:connector-curvature="0"
           style="fill:#a71930;stroke-width:0.28047612"
           inkscape:export-filename="C:\Users\alex\sites\houston-texans-logo-3.png"
           inkscape:export-xdpi="106.61569"
           inkscape:export-ydpi="106.61569" />
        <path
           style="fill:#03202f;fill-opacity:1;stroke-width:0.775442"
           inkscape:connector-curvature="0"
           d="m 413.18144,414.07192 3.59704,-4.44211 h 6.39135 v -9.58834 h 7.53939 l 0.002,9.58834 h 5.86887 l 3.59704,4.44211 h -26.99546 z m 30.26473,-1.64323 v -4.86164 h -3.02756 l 3.02756,-2.66558 v -4.86016 h 15.22115 l 2.26577,2.79585 h -11.01826 v 2.06431 h 8.75241 l 2.15666,2.66558 h -10.90892 v 2.06283 h 8.75241 l 2.26577,2.79888 h -17.48699 z m 20.80045,0 7.47123,-6.58668 -7.2092,-5.8007 h 6.67756 l 3.72367,2.99321 3.39714,-2.99274 h 8.15764 l -7.29093,6.42159 7.41361,5.96579 h -6.67756 l -3.92568,-3.15932 -3.58339,3.15932 h -8.153 z m 32.50033,0 -4.02563,-7.25163 h -4.13768 l 2.78065,-2.45055 -1.49179,-2.68528 h 6.04301 l 1.20861,2.5005 h 7.08956 l 1.21162,-2.5005 h 7.26218 l -1.507,2.72011 2.73825,2.41565 h -4.08318 l -4.02415,7.25161 h -9.06414 z m 16.95194,0 3.438,-2.43536 v -9.95202 h 5.43716 l -0.002,6.09754 8.60276,-6.09754 h 5.80371 l -0.003,12.38769 h -5.43717 v -6.09599 l -8.6011,6.09599 h -9.23861 z m 39.07529,0 c -4.61628,0 -10.30019,-0.93163 -10.29864,-4.31495 0,-4.08332 11.06556,-2.59339 11.06245,-4.20585 0,-1.36113 -5.22834,-1.40138 -9.15099,-0.67244 l -2.58533,-3.19413 h 8.14525 c 4.61628,0 10.30175,0.9596 10.3002,4.34673 7.8e-4,4.08209 -11.06556,2.56261 -11.06634,4.17258 0,1.36113 5.23106,1.40263 9.15255,0.67246 l 2.58532,3.19567 h -8.14369 z m -52.10583,-2.55959 2.27182,-4.69204 h -4.54362 z"
           id="path2-7"
           inkscape:export-filename="C:\Users\alex\sites\houston-texans-logo-4.png"
           inkscape:export-xdpi="106.61569"
           inkscape:export-ydpi="106.61569" />
        <path
           style="fill:#a71930;fill-opacity:1;stroke-width:0.96930248"
           inkscape:connector-curvature="0"
           d="m 520.6365,422.29433 v -2.35018 l -3.31046,2.35018 h -3.55676 l 1.31961,-0.93882 7.9e-4,-3.83204 h 2.09505 v 2.34774 l 3.31035,-2.34774 h 2.2359 v 4.7708 h -2.09505 m -7.76295,-2.39669 c 7.7e-4,-1.56222 -1.95557,-2.49857 -4.36245,-2.49857 -2.40551,0 -4.35982,0.93633 -4.36234,2.49857 0.002,1.52577 1.96691,2.51989 4.36234,2.51989 2.39418,0 4.36245,-0.99412 4.36245,-2.51989 z m -4.36245,1.16007 c -1.02804,0 -1.66526,-0.54171 -1.66526,-1.19021 0,-0.6925 0.68496,-1.17015 1.66526,-1.17015 0.98031,0 1.66779,0.47761 1.66779,1.17015 0,0.6485 -0.63848,1.19021 -1.66779,1.19021 z m -34.60022,-1.16007 c 0.002,-1.56222 -1.95304,-2.49857 -4.36108,-2.49857 -2.40426,0 -4.36109,0.93633 -4.36487,2.49857 0.004,1.52577 1.97069,2.51989 4.36487,2.51989 2.39543,0 4.36108,-0.99412 4.36108,-2.51989 z m -4.35982,1.16007 c -1.02804,0 -1.66652,-0.54171 -1.66652,-1.19021 7.7e-4,-0.6925 0.68497,-1.17015 1.66526,-1.17015 0.98035,0 1.66526,0.47761 1.66526,1.17015 7.8e-4,0.6485 -0.63594,1.19021 -1.664,1.19021 z m 14.00544,1.23662 -0.004,-2.5953 c 0.004,-1.3925 -1.64015,-2.29996 -3.80432,-2.29996 -2.16425,0 -3.80684,0.90741 -3.80684,2.29996 v 1.65654 l -1.32086,0.93882 h 3.79297 l -7.8e-4,-2.53996 c 0,-0.58943 0.58691,-1.05693 1.33599,-1.05693 0.74908,0 1.33599,0.46754 1.33599,1.05693 v 2.53996 h 2.4721 z m 8.94221,-3.09672 c 0,-1.30459 -2.1881,-1.67408 -3.96522,-1.67408 h -3.13705 l 0.99915,1.22918 c 1.50689,-0.27903 3.52158,-0.26645 3.52158,0.25889 0,0.62087 -4.26057,0.0465 -4.26057,1.61873 0,1.30333 2.18811,1.664 3.96522,1.664 h 3.13705 l -0.99789,-1.23294 c -1.50815,0.28405 -3.52284,0.26768 -3.52032,-0.25765 -0.002,-0.61835 4.25805,-0.0327 4.25805,-1.60623 z m -28.32497,1.42401 -1.61872,-1.42644 -7.8e-4,-1.67156 h -2.48975 v 1.67156 h -2.96103 l 7.8e-4,-1.67156 h -2.48849 l -0.004,1.67156 -1.61748,1.42644 h 1.62126 l -0.004,1.67281 h 2.49228 v -1.67281 h 2.95976 v 1.67281 h 2.48976 v -1.67281 h 1.61999 z m 39.36533,1.67281 -0.95391,-1.17887 h -2.47463 v -3.59194 h -2.58649 v 3.59194 h -2.47589 l -0.95265,1.17887 h 9.44362 z"
           id="path4-0"
           inkscape:export-filename="C:\Users\alex\sites\houston-texans-logo-4.png"
           inkscape:export-xdpi="106.61569"
           inkscape:export-ydpi="106.61569" />
      </g>
    </g>
  </g>
</svg>
