<?xml version="1.0" encoding="UTF-8" standalone="no"?>
<svg
   xmlns:dc="http://purl.org/dc/elements/1.1/"
   xmlns:cc="http://creativecommons.org/ns#"
   xmlns:rdf="http://www.w3.org/1999/02/22-rdf-syntax-ns#"
   xmlns:svg="http://www.w3.org/2000/svg"
   xmlns="http://www.w3.org/2000/svg"
   xmlns:sodipodi="http://sodipodi.sourceforge.net/DTD/sodipodi-0.dtd"
   xmlns:inkscape="http://www.inkscape.org/namespaces/inkscape"
   viewBox="0 0 700 700"
   version="1.1"
   id="svg21"
   sodipodi:docname="minnesota-vikings-logo.svg"
   width="700"
   height="700"
   inkscape:export-filename="C:\Users\suitedoalex\sites\minnesota-vikings-logo-0.png"
   inkscape:export-xdpi="561.73712"
   inkscape:export-ydpi="561.73712"
   inkscape:version="0.92.4 (5da689c313, 2019-01-14)">
  <metadata
     id="metadata27">
    <rdf:RDF>
      <cc:Work
         rdf:about="">
        <dc:format>image/svg+xml</dc:format>
        <dc:type
           rdf:resource="http://purl.org/dc/dcmitype/StillImage" />
        <dc:title>Logos/Clubs/MIN/Primary</dc:title>
      </cc:Work>
    </rdf:RDF>
  </metadata>
  <defs
     id="defs25" />
  <sodipodi:namedview
     pagecolor="#ffffff"
     bordercolor="#666666"
     borderopacity="1"
     objecttolerance="10"
     gridtolerance="10"
     guidetolerance="10"
     inkscape:pageopacity="0"
     inkscape:pageshadow="2"
     inkscape:window-width="1600"
     inkscape:window-height="837"
     id="namedview23"
     showgrid="false"
     inkscape:zoom="0.472"
     inkscape:cx="250"
     inkscape:cy="250"
     inkscape:window-x="-8"
     inkscape:window-y="-8"
     inkscape:window-maximized="1"
     inkscape:current-layer="g19" />
  <title
     id="title2">Logos/Clubs/MIN/Primary</title>
  <desc
     id="desc4">Created with Sketch.</desc>
  <g
     id="g19"
     style="fill:none"
     transform="translate(0,200)">
    <path
       d="m 326.68213,247.40135 c -3.17122,12.44996 -2.63185,15.98265 -2.41519,19.52675 -8.66525,-6.04595 -31.05191,-17.42515 -32.09416,-46.2409 -0.48463,-13.3337 0.58726,-25.29332 3.08341,-33.8263 -0.41051,0.49832 -0.89172,1.0662 -1.36267,1.62267 -28.67892,34.51048 -61.40025,32.1831 -91.33922,35.26081 -4.43354,0.45499 -21.06731,3.81207 -25.4484,4.76196 10.66765,-11.40885 29.12706,-28.17604 41.17677,-36.40341 23.29435,-15.89941 63.78122,-32.48301 63.78122,-32.48301 -18.30889,10.07582 -33.11246,26.41311 -33.11246,26.41311 11.39175,-7.71081 51.17163,-30.68359 51.17163,-30.68359 -10.61633,10.11003 -40.86774,36.76717 -58.80832,48.63215 22.82796,-10.76115 42.14034,-24.71404 52.54799,-34.55496 13.01897,-12.2983 32.56967,-24.16441 41.41395,-28.73137 4.33662,4.27276 10.61177,8.18632 16.2244,10.4966 -15.01453,10.57071 -25.02991,16.59386 -29.30951,30.88542 0,0 10.98579,-14.09771 26.8202,-22.73217 2.97508,-1.62267 6.19875,-3.62392 9.5068,-5.89771 3.56007,0.84041 11.2857,1.54855 15.06812,1.54855 l 0.9362,-0.39455 c -0.61235,0.46639 -2.13239,1.33645 -2.76526,1.79485 -30.25597,22.19395 -57.94396,28.02324 -60.50396,73.1683 0,0 3.82575,-29.41784 27.10186,-44.33316 13.1866,-8.44631 36.83331,-19.68183 52.67228,-35.83553 12.13409,-5.54991 19.76735,-15.04303 23.7174,-28.24332 l 0.089,-0.41051 c 3.91926,-0.38657 7.82028,-0.8883 11.91743,-1.25092 -0.46981,4.76879 -1.50864,11.2435 -3.83032,17.86873 -2.83824,8.86024 -7.60818,18.72397 -16.01914,29.0039 -15.13312,18.48565 -33.40096,30.06554 -52.41913,54.81265 -19.01817,24.75282 -23.06287,49.9743 -23.06287,49.9743 -4.23855,-30.78394 10.43616,-50.35858 10.43616,-50.35858 -2.23273,1.76748 -11.68594,12.8924 -15.1753,26.61038 z m -66.82245,-25.87488 c 14.79217,-3.7026 28.15665,-19.69324 28.15665,-19.69324 -1.56451,5.4051 -0.39797,21.91571 -0.39797,21.91571 0,0 -5.77341,2.27835 -12.81143,2.27835 -7.03802,0 -15.52881,-4.44266 -15.52881,-4.44266 l 0.58156,-0.057 z m 96.19125,73.54232 c -3.33542,8.95147 -5.63885,17.24726 -6.49751,20.47777 -9.92188,-5.94788 -25.1485,-13.88333 -30.73034,-22.58165 -7.48731,-11.66998 -7.41205,-26.95134 -7.41205,-26.95134 3.70602,3.27498 13.21169,8.59341 21.91685,13.42036 7.10644,3.94549 18.70572,12.58794 22.72191,15.63486 z m -18.57801,-19.19378 c 0.32385,-5.86236 2.4323,-16.89604 8.45544,-30.59692 6.75636,-15.35548 23.99336,-34.19804 23.99336,-34.19804 5.73692,5.94446 13.2573,18.08539 10.26397,33.91296 -2.99332,15.81844 -10.55133,21.22924 -18.25187,36.41139 -1.32505,2.61702 -2.57711,5.39597 -3.74138,8.19658 -4.80528,-3.80979 -13.51501,-9.24567 -20.72066,-13.72597 z m -33.28236,-178.5425 0.38314,0.0981 -0.54621,0.0912 c -7.81115,1.37864 -15.91879,3.28297 -22.77892,5.063 0.3056,-2.72079 0.67164,-5.45185 1.10838,-8.1293 0.13684,-0.74349 0.2885,-1.49382 0.45157,-2.24642 3.00016,0.73094 6.04937,1.42995 9.10199,2.13923 2.75272,0.63857 5.51228,1.28285 8.23307,1.96704 l 4.04698,1.0183 z m 153.27312,19.50508 c 4.01277,-2.66833 18.04206,-1.601 22.7185,-1.06733 4.68327,0.53481 20.31698,2.93859 28.06998,1.20303 7.74274,-1.73556 11.22298,-3.33884 11.22298,-3.33884 0,0 -1.87126,14.15815 -16.83903,15.22776 -14.96777,1.06962 -16.97016,-2.53948 -28.19542,-4.0082 0,0 3.33884,-2.00582 9.35514,-3.20315 0,0 -10.42932,-1.471 -18.31231,0.53139 -7.88186,2.00581 -11.08956,5.34465 -11.08956,5.34465 0,0 -0.93506,-8.01983 3.07086,-10.68931 z M 308.84646,29.961574 c 0,0 1.20532,-1.538284 1.4197,-1.866695 6.43821,-9.732586 13.4386,-19.395614 16.93367,-24.09371 2.43229,-3.277265 4.28758,-6.532863 5.7164,-9.554698 4.02189,-8.518151 4.58862,-15.179869 4.58862,-15.179869 37.15488,1.70477 81.66821,18.005569 117.68391,52.114664 15.93361,15.090926 26.47582,32.911764 33.29149,48.103034 -6.63664,-1.07873 -20.42988,-2.70596 -35.97922,-2.80859 -17.43541,-0.11973 -38.34308,2.243 -42.31594,2.71281 l -0.002,-0.0183 c -0.0627,-0.61805 -0.14596,-1.22698 -0.23718,-1.83362 l -0.0775,-0.53139 c -0.0741,-0.47779 -0.16649,-0.95102 -0.25771,-1.42311 l 0.0262,-0.006 c -2.23387,-17.065946 -14.86286,-33.380429 -30.89112,-40.155039 -5.75859,-2.68088 -17.88356,-6.708471 -30.53763,-7.846505 -6.39717,-0.730942 -13.26984,-0.659102 -21.60897,0.223501 -3.57488,0.377444 -7.04942,0.825588 -10.45896,1.260048 -2.47677,0.318148 -4.90336,0.626033 -7.2946,0.903129 z M 355.9198,346.66233 c 0,0 -8.43719,-4.38223 -14.33262,-12.8867 -4.6217,-6.6697 -5.03335,-14.86172 -4.99458,-18.10249 5.9456,3.4255 12.75898,6.81224 16.73982,9.28216 4.37425,2.71053 7.92405,5.39255 10.56046,7.63555 -4.19408,7.43371 -7.97308,14.07148 -7.97308,14.07148 z M 331.57978,135.57981 c -27.99587,7.63212 -87.63775,32.87869 -122.50858,57.29283 -15.04873,10.53879 -31.47154,27.1794 -41.47552,37.44794 -9.79645,3.02411 -22.17,8.2114 -27.91377,10.72238 13.40554,-14.73629 40.56442,-41.138 62.70591,-56.01568 66.84639,-44.91244 122.1106,-52.17054 126.23056,-53.00183 l 1.22014,1.05707 c 0.55305,0.85637 1.14259,1.68196 1.7424,2.49843 z m 162.27705,72.28569 c -17.24042,11.35867 -28.19428,38.43773 -28.19428,38.43773 4.42556,-30.05072 23.74363,-51.04163 23.74363,-51.04163 -14.43296,8.4178 -24.94324,24.52019 -30.52394,60.40019 -6.3755,41.04107 -18.14241,56.78768 -18.14241,56.78768 l 1.22698,-4.15987 c 4.94212,-22.17456 4.14048,-32.59704 8.14983,-59.32146 4.00934,-26.71985 15.76941,-43.02179 15.76941,-43.02179 -14.6998,10.28906 -22.61244,32.28801 -25.38911,64.26586 -3.06516,35.26423 -11.51034,47.74612 -11.51034,47.74612 5.14054,-17.62129 2.95798,-37.18909 3.75392,-50.28332 0.80392,-13.09652 1.3832,-30.90253 8.72797,-47.737 7.35275,-16.83447 24.41756,-33.09307 42.32734,-41.24176 17.9018,-8.15211 32.19223,-4.1382 32.19223,-4.1382 9.43724,8.84884 10.01994,18.16635 10.01994,18.16635 0,0 -14.91075,3.78813 -32.15117,15.13882 z M 343.36037,354.90795 c -1.76977,-5.95701 0.89401,-8.22395 2.40492,-10.18302 0,0 3.95576,3.48823 8.04721,5.57044 0,0 -2.23844,6.0699 -3.96716,11.55139 -2.68088,-1.40259 -5.39939,-3.28525 -6.48383,-6.93767 z m -2.34905,34.45917 c 0,0 1.36838,2.4779 2.83825,4.47231 1.82108,2.46308 1.43223,4.80187 0.12429,6.28086 -1.30908,1.48583 -3.40954,1.69906 -4.91704,-0.0776 -1.51206,-1.77319 -0.42762,-7.72449 1.9545,-10.67562 z m 35.42274,-118.58247 c 1.22356,2.30799 4.50766,8.13158 5.43702,15.4467 1.35697,10.65168 -2.82684,22.34903 -8.28211,32.25494 -1.48469,2.69115 -5.20895,6.12121 -7.10872,9.49654 -1.46644,-1.63179 -4.0504,-4.07662 -8.41096,-7.1281 -0.90655,-0.62946 -1.98301,-1.32163 -3.16893,-2.05941 3.96487,-15.85722 13.263,-36.09324 17.02946,-41.18589 1.19162,-1.60784 3.22481,-4.7745 4.50424,-6.82478 z m -29.18408,109.32881 c 3.16666,2.13923 6.51804,6.92513 6.75865,9.25138 0.3649,3.51103 -5.10177,6.28085 -5.10177,6.28085 0,0 0.76287,-3.85084 -3.22253,-6.79742 -5.82131,-4.31495 -7.86703,-6.00147 -3.64444,-13.263 0,0 2.0423,2.38668 5.21123,4.52819 z m 14.1992,-34.72372 c 4.83494,-8.70174 11.7327,-17.99417 11.7327,-17.99417 0,0 4.22373,13.11248 0.69445,24.06634 -3.52585,10.95501 -12.20935,20.62488 -12.20935,20.62488 0,0 -4.05382,-5.68447 -7.22275,-7.82028 -0.27938,-0.19043 -0.5884,-0.37745 -0.90883,-0.56104 1.51548,-4.26363 4.54301,-12.24356 7.91492,-18.31459 z m -11.28227,21.47213 c 4.33548,2.06853 7.43029,4.95808 9.04269,8.36306 1.60899,3.40156 0.16877,6.52717 -2.74131,8.57175 0,0 -1.54513,-4.15873 -5.64228,-6.2398 -4.09487,-2.08222 -7.95255,-3.87137 -8.90928,-8.01642 -0.9533,-4.14162 1.63863,-7.63668 1.63863,-7.63668 0,0 2.28063,2.88841 6.61155,4.95923 z"
       id="Combined-Shape"
       inkscape:connector-curvature="0"
       style="fill:#ffc62f;stroke-width:1.1403147"
       inkscape:export-filename="C:\Users\suitedoalex\sites\minnesota-vikings-logo-4.png"
       inkscape:export-xdpi="88.62748"
       inkscape:export-ydpi="88.62748" />
    <path
       d="M 329.63668,97.87188 C 316.61429,93.93551 297.8983,90.4165 281.27365,85.6956 247.70963,76.29484 224.66159,56.061098 212.77609,25.554258 c -7.81914,-20.055856 -7.99247,-38.233613 -7.90467,-42.6033 0.007,-0.626032 -0.0296,-1.798276 -0.0262,-2.200807 0.18359,-14.058941 2.07309,-27.079054 3.66725,-36.444459 l 0.18701,-1.141455 0.0262,2.002392 c -0.0513,9.732587 0.61805,18.298631 0.85295,20.961266 l 0.0182,0.262272 c 0.0365,0.388848 0.30332,-1.998971 0.48121,-3.196302 0.65112,-4.337757 1.39575,-8.636744 1.82565,-13.004149 0.43332,-4.34688 1.41627,-9.539873 1.60328,-13.902718 0.0764,-1.676262 0.14938,-3.362788 0.10149,-5.041331 0.48349,0.287359 0.67962,1.915729 0.77883,2.377556 0.38657,1.813101 1.21444,16.076157 1.46074,20.958985 0.10035,1.949938 0.1357,3.901017 0.15965,5.849815 0.0114,0.973829 0.0411,1.930553 0.19613,2.894119 0.0331,0.25543 0.11631,0.532527 0.17561,0.807342 0.0467,0.225783 0.76629,-6.354974 1.30338,-9.822671 0.45385,-2.916925 1.18251,-5.876042 1.16084,-8.851123 0,-0.258851 -0.0798,-0.58156 -0.0353,-0.836991 0.0764,-0.439021 0.71042,1.456182 1.03427,4.937563 0.22236,3.934086 0.39112,8.015272 0.84611,11.861554 l 0.35008,3.04236 c 3.18033,27.928589 19.91787,53.374712 42.53602,64.771018 18.25302,10.233184 35.28932,8.049482 53.32796,5.738064 3.36507,-0.43332 6.79741,-0.873482 10.32327,-1.245224 7.89668,-0.834711 14.35542,-0.90655 20.38084,-0.223502 13.29037,1.199611 25.5784,5.725521 29.61968,7.822559 13.4865,6.057352 24.06178,19.790163 26.26829,34.231109 l 0.009,0.38657 c 0.57244,2.62386 0.86778,5.34237 0.86778,8.13842 l -0.003,0.10149 c -0.0912,-0.53139 -0.13912,-1.04909 -0.25771,-1.59302 -0.0661,4.67871 -1.01602,9.13962 -2.66378,13.2459 1.34443,-4.15987 1.78802,-9.03016 0.56446,-14.71006 -0.0707,5.32071 -1.29996,10.34037 -3.4084,14.88339 1.26233,-4.07093 1.77889,-8.43833 1.3661,-12.93916 -0.82559,-9.11225 -5.25343,-17.0363 -11.75665,-22.572527 5.20896,5.568157 7.73019,14.397617 8.48394,22.654637 1.7424,19.34886 -13.73281,32.03144 -30.33237,34.89363 l -0.34666,0.0855 c 1.4254,0.25315 6.9582,1.01374 12.47391,-0.74234 2.44711,-0.17219 5.69815,-0.72182 8.99594,-2.31712 1.22128,-0.59069 2.76412,-1.47329 4.41986,-2.62957 -6.88978,6.36638 -16.07844,10.28564 -26.19873,10.28564 -13.36449,0 -25.11885,-6.79285 -32.04741,-17.10814 9.6368,1.20645 19.07861,3.12218 19.07861,3.12218 -8.69034,-6.70049 -23.09252,-10.91965 -23.09252,-10.91965 l -0.0148,0.0468 z M 323.76862,-2.44275 c -4.52249,6.949078 -11.20131,16.397726 -16.41711,23.745914 -6.2934,-4.726604 -16.79912,-14.09429 -21.63405,-26.871517 -7.47134,-19.751391 -4.95923,-38.592812 -6.26033,-49.136162 -0.37744,-3.030957 -0.85523,-6.73812 -1.45162,-10.683609 1.65118,5.449564 3.82234,13.251598 4.40162,18.248457 0,0 -0.4835,-14.192357 -2.4437,-23.002429 0,0 4.89081,13.705443 5.87376,21.532563 0,0 0.64086,-7.581953 -0.0764,-15.681608 0.92708,3.108498 1.74924,6.37892 2.36387,9.822671 3.85199,21.380902 10.18415,36.305341 35.64282,52.02458 z"
       id="path9"
       inkscape:connector-curvature="0"
       style="fill:#ffffff;stroke-width:1.1403147"
       inkscape:export-filename="C:\Users\suitedoalex\sites\minnesota-vikings-logo-4.png"
       inkscape:export-xdpi="88.62748"
       inkscape:export-ydpi="88.62748" />
    <path
       d="m 479.19124,137.97333 c 1.34443,1.6067 3.74251,5.07554 3.87593,6.28085 0.0171,0.14938 0.002,0.47551 -0.0262,0.91795 v 0.002 l -0.0274,0.317 -0.006,0.0513 c -0.16877,1.84731 -1.05708,10.44414 -3.03894,12.84108 -0.29192,0.47779 -0.62147,0.93848 -1.03655,1.3547 -2.27493,2.12782 -6.25463,4.15074 -13.77044,9.36198 -8.28553,5.74947 -14.83321,17.50383 -14.83321,17.50383 0,0 2.35475,-11.10667 7.47704,-17.4548 6.34699,-7.86247 14.61769,-13.05888 19.72174,-15.77397 l 2.29318,-10.24459 c -1.75723,-1.17338 -3.96716,-2.37413 -6.10525,-2.75728 -4.43696,-0.78112 -11.91401,-0.67963 -16.49123,-2.1723 l 0.0559,-0.0924 c 5.47922,-0.66822 8.68692,-2.27036 16.83561,-3.61023 8.14983,-1.33417 14.43296,1.07189 14.43296,1.07189 -5.48149,0.26798 -9.35742,2.40379 -9.35742,2.40379 z m 26.5089,-4.41188 c 0,0 3.40612,7.78493 3.24305,13.46256 -0.15964,5.67534 1.61811,9.56724 3.72769,11.18876 2.11187,1.61925 4.22031,1.94538 5.51799,2.92377 1.30452,0.96927 1.30452,3.88961 0.6534,6.31963 -0.6534,2.43115 -2.43572,2.75728 -4.38109,2.27036 -1.81424,-0.44928 -11.30508,-1.73556 -21.60897,0.15737 -0.54621,-1.90661 -1.49039,-6.26603 0.56218,-8.42579 2.67518,-2.79605 7.88527,-2.53378 9.88653,-2.13239 0,0 -4.2682,-2.00467 -8.013,-2.00467 -3.74251,0 -6.81908,2.54062 -7.88755,5.34465 -0.79252,2.08564 -0.10947,6.37664 0.29192,8.45088 -11.20131,3.29779 -27.24212,12.04514 -40.40135,28.94118 -14.27788,18.32258 -17.50954,41.19501 -17.50954,41.19501 0,0 -15.05899,2.96482 -22.85304,-8.60823 -10.45327,-15.52083 -6.52374,-33.72253 -6.52374,-33.72253 0,0 -6.18963,2.92035 -11.08843,1.64319 -1.71731,-0.44814 -2.93631,-1.57819 -3.80066,-2.91692 8.14868,-7.241 16.8185,-14.04184 25.41875,-23.88275 4.45407,0.98979 8.45772,2.06283 10.64142,2.73105 4.81441,1.46759 9.82951,5.53737 11.16368,9.94355 1.33873,4.41187 2.00125,19.37508 2.00125,19.37508 2.70597,-10.40765 3.13929,-15.6588 3.4027,-18.60537 0.27368,-2.93631 -0.0353,-10.36546 -5.67534,-15.50942 -3.0435,-2.77553 -11.66314,-5.35378 -15.08067,-7.24898 13.04862,-17.96566 16.63377,-45.494 16.63377,-45.494 l -0.0114,-0.78226 c 1.32961,-0.14482 2.19853,-0.2828 2.23388,-0.41963 2.40606,-0.13912 10.94702,-1.18023 13.31659,-1.22356 0,0 -3.57032,10.53651 -0.48691,18.32258 0,0 7.95027,-5.35036 19.30895,-4.5396 11.35411,0.81419 29.52845,6.32533 37.31566,3.24534 z M 398.06583,233.79626 c 5.39825,7.92062 12.63697,14.65646 24.26362,14.65646 1.6831,0 3.67979,-0.0297 5.85323,-0.0855 -0.95558,6.02314 -1.42539,12.51495 -1.65802,17.22673 -2.52351,0.84042 -4.76651,1.65232 -6.5511,2.40151 -11.29368,4.7152 -32.31196,15.85151 -32.31196,15.85151 l -0.71612,0.43104 c -1.731,-11.97901 -5.63886,-21.81992 -5.63886,-21.81992 0,0 7.54091,-19.60885 4.71977,-31.66426 -3.70717,-15.83555 -9.77364,-24.25678 -9.77364,-24.25678 0.66594,-0.70927 1.33303,-1.37636 2.00239,-2.05599 3.97628,5.4108 10.7087,5.56588 10.7087,5.56588 0,0 3.71286,15.83669 9.10199,23.7482 z m 115.37363,14.40445 c 5.72894,0.16991 10.99947,-0.25315 10.99947,-0.25315 -1.6831,1.34671 -6.23296,1.18023 -8.76104,1.51776 -2.52693,0.33639 -18.19258,0.84155 -37.23812,3.7083 -3.44831,0.51429 -7.21135,1.18821 -11.11236,1.9545 1.21101,-3.27156 2.3365,-5.61262 3.73339,-7.80773 l 0.1699,-0.002 c 13.98482,0 36.47525,0.7184 42.20876,0.8826 z m 6.70847,-23.14839 c 4.00592,1.60443 6.27857,3.06973 7.74844,11.35526 1.46986,8.28438 -3.20771,8.01527 -5.47922,7.88755 -2.26922,-0.13455 -8.87393,-0.17788 -19.03299,-1.38206 -10.15678,-1.19961 -28.29919,-1.67056 -28.29919,-1.67056 8.67209,-23.99222 38.91324,-37.02716 38.91324,-37.02716 0.53709,6.94338 -4.67757,19.6385 -4.67757,19.6385 0,0 6.81566,-0.40367 10.82729,1.20075 z"
       id="path11"
       inkscape:connector-curvature="0"
       style="fill:#e9bf9b;stroke-width:1.1403147"
       inkscape:export-filename="C:\Users\suitedoalex\sites\minnesota-vikings-logo-4.png"
       inkscape:export-xdpi="88.62748"
       inkscape:export-ydpi="88.62748" />
    <path
       d="m 491.49866,85.44473 c -4.79046,-0.89173 -20.0513,-3.1963 -38.99648,-3.32402 -17.21648,-0.11631 -37.97819,2.03546 -42.07306,2.49045 l -0.003,0.0718 c -0.024,25.60463 -22.06851,43.88045 -42.59874,44.18491 -31.00515,0.46297 -42.41971,-24.52018 -42.65575,-25.99461 -2.20993,-0.64428 -4.57038,-1.28742 -7.0175,-1.9431 -4.11881,0.50288 -8.52271,1.13462 -13.14441,1.94994 -8.54323,1.50408 -17.36813,3.61024 -24.55097,5.47921 -0.3421,3.79155 -0.89059,9.89109 -0.91225,10.41108 -1.02173,21.55879 0.33639,20.05471 0.33639,20.05471 6.25349,-2.44483 29.31749,-8.3585 29.31749,-8.3585 6.75409,-1.57136 14.77506,-3.25902 24.16555,-4.9923 6.60242,13.30405 20.31357,22.45051 36.17421,22.45051 19.80498,0 36.26315,-14.25621 39.70918,-33.0543 43.2852,-4.6981 63.74587,-4.83151 90.47713,-1.27715 -2.80403,-14.89365 -8.22623,-28.15095 -8.22623,-28.15095"
       id="path13"
       inkscape:connector-curvature="0"
       style="fill:#4f2683;stroke-width:1.1403147"
       inkscape:export-filename="C:\Users\suitedoalex\sites\minnesota-vikings-logo-4.png"
       inkscape:export-xdpi="88.62748"
       inkscape:export-ydpi="88.62748" />
    <path
       d="m 488.54296,135.57296 c 0,0 -6.27515,-2.40606 -14.42042,-1.07303 -8.16351,1.33189 -11.36551,2.94201 -16.84473,3.60909 l -0.0559,0.0924 c 4.57266,1.49837 12.05198,1.38776 16.49351,2.16546 2.14493,0.38885 4.35144,1.59188 6.10867,2.75728 l -2.29546,10.25257 c -5.10861,2.72079 -13.38387,7.90352 -19.71604,15.76827 -0.48121,0.59068 -0.94418,1.23952 -1.36838,1.92257 -0.20411,0.2771 -0.38884,0.57358 -0.55533,0.88831 -0.24289,0.38884 -0.46297,0.77769 -0.66594,1.1654 -0.25886,0.46297 -0.50174,0.94418 -0.74007,1.44364 -0.2406,0.48121 -0.46297,0.96242 -0.66594,1.44364 -0.90655,2.03318 -1.62951,4.07092 -2.16546,5.79394 l -0.18473,0.59068 c -0.40709,1.34899 -0.70129,2.4608 -0.88831,3.22025 l -0.0741,0.2942 -0.0559,0.2235 -0.0741,0.35122 -0.0183,0.0946 c 0.11061,-0.18701 0.68533,-1.22355 1.6489,-2.72193 l 0.70015,-1.07303 c 1.85073,-2.77553 4.66617,-6.62523 8.01755,-9.91846 0.46297,-0.46297 0.9419,-0.9248 1.4254,-1.35128 0.98067,-0.8712 1.97844,-1.68424 3.01727,-2.40606 7.51581,-5.21808 11.49551,-7.2353 13.77044,-9.36198 0.40937,-0.42762 0.74235,-0.89059 1.03883,-1.35242 1.98072,-2.4072 2.86903,-11.01088 3.0378,-12.84222 v -0.0559 l 0.0353,-0.31472 c 0.0182,-0.31473 0.0182,-0.57358 0.0182,-0.74007 v -0.18473 c -0.12999,-1.20303 -2.53606,-4.68213 -3.86909,-6.27287 0,0 3.86909,-2.14607 9.3483,-2.40606 z m 0,0 c 0,0 -6.27515,-2.40606 -14.42042,-1.07303 -8.16351,1.33189 -11.36551,2.94201 -16.84473,3.60909 l -0.0559,0.0924 c 4.57266,1.49837 12.05198,1.38776 16.49351,2.16546 2.14493,0.38885 4.35144,1.59188 6.10867,2.75728 l -2.29546,10.25257 c -5.10861,2.72079 -13.38387,7.90352 -19.71604,15.76827 -0.48121,0.59068 -0.94418,1.23952 -1.36838,1.92257 -0.20411,0.2771 -0.38884,0.57358 -0.55533,0.88831 -0.24289,0.38884 -0.46297,0.77769 -0.66594,1.1654 -0.25886,0.46297 -0.50174,0.94418 -0.74007,1.44364 -0.2406,0.48121 -0.46297,0.96242 -0.66594,1.44364 -0.90655,2.03318 -1.62951,4.07092 -2.16546,5.79394 l -0.18473,0.59068 c -0.40709,1.34899 -0.70129,2.4608 -0.88831,3.22025 l -0.0741,0.2942 -0.0559,0.2235 -0.0741,0.35122 -0.0183,0.0946 c 0.11061,-0.18701 0.68533,-1.22355 1.6489,-2.72193 l 0.70015,-1.07303 c 1.85073,-2.77553 4.66617,-6.62523 8.01755,-9.91846 0.46297,-0.46297 0.9419,-0.9248 1.4254,-1.35128 0.98067,-0.8712 1.97844,-1.68424 3.01727,-2.40606 7.51581,-5.21808 11.49551,-7.2353 13.77044,-9.36198 0.40937,-0.42762 0.74235,-0.89059 1.03883,-1.35242 1.98072,-2.4072 2.86903,-11.01088 3.0378,-12.84222 v -0.0559 l 0.0353,-0.31472 c 0.0182,-0.31473 0.0182,-0.57358 0.0182,-0.74007 v -0.18473 c -0.12999,-1.20303 -2.53606,-4.68213 -3.86909,-6.27287 0,0 3.86909,-2.14607 9.3483,-2.40606 z m 0,0 c 0,0 -6.27515,-2.40606 -14.42042,-1.07303 -8.16351,1.33189 -11.36551,2.94201 -16.84473,3.60909 l -0.0559,0.0924 c 4.57266,1.49837 12.05198,1.38776 16.49351,2.16546 2.14493,0.38885 4.35144,1.59188 6.10867,2.75728 l -2.29546,10.25257 c -5.10861,2.72079 -13.38387,7.90352 -19.71604,15.76827 -0.48121,0.59068 -0.94418,1.23952 -1.36838,1.92257 -0.20411,0.2771 -0.38884,0.57358 -0.55533,0.88831 -0.24289,0.38884 -0.46297,0.77769 -0.66594,1.1654 -0.25886,0.46297 -0.50174,0.94418 -0.74007,1.44364 -0.2406,0.48121 -0.46297,0.96242 -0.66594,1.44364 -0.90655,2.03318 -1.62951,4.07092 -2.16546,5.79394 l -0.18473,0.59068 c -0.40709,1.34899 -0.70129,2.4608 -0.88831,3.22025 l -0.0741,0.2942 -0.0559,0.2235 -0.0741,0.35122 -0.0183,0.0946 c 0.11061,-0.18701 0.68533,-1.22355 1.6489,-2.72193 l 0.70015,-1.07303 c 1.85073,-2.77553 4.66617,-6.62523 8.01755,-9.91846 0.46297,-0.46297 0.9419,-0.9248 1.4254,-1.35128 0.98067,-0.8712 1.97844,-1.68424 3.01727,-2.40606 7.51581,-5.21808 11.49551,-7.2353 13.77044,-9.36198 0.40937,-0.42762 0.74235,-0.89059 1.03883,-1.35242 1.98072,-2.4072 2.86903,-11.01088 3.0378,-12.84222 v -0.0559 l 0.0353,-0.31472 c 0.0182,-0.31473 0.0182,-0.57358 0.0182,-0.74007 v -0.18473 c -0.12999,-1.20303 -2.53606,-4.68213 -3.86909,-6.27287 0,0 3.86909,-2.14607 9.3483,-2.40606 z m 0,0 c 0,0 -6.27515,-2.40606 -14.42042,-1.07303 -8.16351,1.33189 -11.36551,2.94201 -16.84473,3.60909 l -0.0559,0.0924 c 4.57266,1.49837 12.05198,1.38776 16.49351,2.16546 2.14493,0.38885 4.35144,1.59188 6.10867,2.75728 l -2.29546,10.25257 c -5.10861,2.72079 -13.38387,7.90352 -19.71604,15.76827 -0.48121,0.59068 -0.94418,1.23952 -1.36838,1.92257 -0.20411,0.2771 -0.38884,0.57358 -0.55533,0.88831 -0.24289,0.38884 -0.46297,0.77769 -0.66594,1.1654 -0.25886,0.46297 -0.50174,0.94418 -0.74007,1.44364 -0.2406,0.48121 -0.46297,0.96242 -0.66594,1.44364 -0.90655,2.03318 -1.62951,4.07092 -2.16546,5.79394 l -0.18473,0.59068 c -0.40709,1.34899 -0.70129,2.4608 -0.88831,3.22025 l -0.0741,0.2942 -0.0559,0.2235 -0.0741,0.35122 -0.0183,0.0946 c 0.11061,-0.18701 0.68533,-1.22355 1.6489,-2.72193 l 0.70015,-1.07303 c 1.85073,-2.77553 4.66617,-6.62523 8.01755,-9.91846 0.46297,-0.46297 0.9419,-0.9248 1.4254,-1.35128 0.98067,-0.8712 1.97844,-1.68424 3.01727,-2.40606 7.51581,-5.21808 11.49551,-7.2353 13.77044,-9.36198 0.40937,-0.42762 0.74235,-0.89059 1.03883,-1.35242 1.98072,-2.4072 2.86903,-11.01088 3.0378,-12.84222 v -0.0559 l 0.0353,-0.31472 c 0.0182,-0.31473 0.0182,-0.57358 0.0182,-0.74007 v -0.18473 c -0.12999,-1.20303 -2.53606,-4.68213 -3.86909,-6.27287 0,0 3.86909,-2.14607 9.3483,-2.40606 z m -14.42042,-1.07303 c -8.16351,1.33189 -11.36551,2.94201 -16.84473,3.60909 l -0.0559,0.0924 c 4.57266,1.49837 12.05198,1.38776 16.49351,2.16546 2.14493,0.38885 4.35144,1.59188 6.10867,2.75728 l -2.29546,10.25257 c -5.10861,2.72079 -13.38387,7.90352 -19.71604,15.76827 -0.48121,0.59068 -0.94418,1.23952 -1.36838,1.92257 -0.20411,0.2771 -0.38884,0.57358 -0.55533,0.88831 -0.24289,0.38884 -0.46297,0.77769 -0.66594,1.1654 -0.25886,0.46297 -0.50174,0.94418 -0.74007,1.44364 -0.2406,0.48121 -0.46297,0.96242 -0.66594,1.44364 -0.90655,2.03318 -1.62951,4.07092 -2.16546,5.79394 l -0.18473,0.59068 c -0.40709,1.34899 -0.70129,2.4608 -0.88831,3.22025 l -0.0741,0.2942 -0.0559,0.2235 -0.0741,0.35122 -0.0183,0.0946 c 0.11061,-0.18701 0.68533,-1.22355 1.6489,-2.72193 l 0.70015,-1.07303 c 1.85073,-2.77553 4.66617,-6.62523 8.01755,-9.91846 0.46297,-0.46297 0.9419,-0.9248 1.4254,-1.35128 0.98067,-0.8712 1.97844,-1.68424 3.01727,-2.40606 7.51581,-5.21808 11.49551,-7.2353 13.77044,-9.36198 0.40937,-0.42762 0.74235,-0.89059 1.03883,-1.35242 1.98072,-2.4072 2.86903,-11.01088 3.0378,-12.84222 v -0.0559 l 0.0353,-0.31472 c 0.0182,-0.31473 0.0182,-0.57358 0.0182,-0.74007 v -0.18473 c -0.12999,-1.20303 -2.53606,-4.68213 -3.86909,-6.27287 0,0 3.86909,-2.14607 9.3483,-2.40606 0,0 -6.27515,-2.40607 -14.42042,-1.07304 z m 48.29461,109.79292 c -2.27721,-0.12999 -8.8648,-0.16648 -19.02957,-1.38776 -10.16248,-1.18593 -28.30489,-1.666 -28.30489,-1.666 8.66525,-23.98082 38.9121,-37.02944 38.9121,-37.02944 0.53709,6.93996 -4.66617,19.6328 -4.66617,19.6328 0,0 6.81338,-0.38657 10.81246,1.20417 4.01733,1.61013 6.2934,3.07201 7.75757,11.3621 1.46074,8.29009 -3.20429,8.01299 -5.4815,7.88299 z m -6.73812,5.16335 c -2.53606,0.3535 -18.196,0.85181 -37.24382,3.71971 -3.44261,0.5177 -7.20222,1.18478 -11.10666,1.94309 1.20303,-3.25674 2.33194,-5.60693 3.73681,-7.78949 l 0.16648,-0.0205 c 13.97798,0 36.46841,0.72182 42.20647,0.88602 5.71982,0.16649 10.99378,-0.25771 10.99378,-0.25771 -1.68425,1.34899 -6.21814,1.18251 -8.7542,1.51776 z m -56.79337,6.20103 c -6.38463,41.04335 -18.13899,56.7911 -18.13899,56.7911 l 1.22356,-4.16329 c 4.94212,-22.17 4.14504,-32.58792 8.14299,-59.31233 4.01732,-26.71986 15.77283,-43.02522 15.77283,-43.02522 -14.6998,10.29134 -22.62156,32.29599 -25.39823,64.27156 -2.9614,34.14216 -10.97667,46.9479 -11.47499,47.70735 5.10747,-17.60076 2.92263,-37.15944 3.73681,-50.23999 0.79594,-13.10222 1.36952,-30.90595 8.71885,-47.74612 7.34933,-16.84017 24.41756,-33.08737 42.33418,-41.2486 17.89953,-8.14185 32.18995,-4.1268 32.18995,-4.1268 9.42242,8.84542 10.01424,18.15381 10.01424,18.15381 0,0 -14.90163,3.79383 -32.15345,15.15592 -17.23586,11.34157 -28.19428,38.43545 -28.19428,38.43545 4.42556,-30.05299 23.75161,-51.05645 23.75161,-51.05645 -14.43866,8.42008 -24.95236,24.52019 -30.52622,60.40361 z m -32.35529,9.93556 c -2.53606,0.83243 -4.77564,1.64662 -6.55339,2.40721 -11.2914,4.7152 -32.31994,15.85721 -32.31994,15.85721 l -0.72182,0.4242 c -1.72188,-11.98927 -5.62746,-21.8165 -5.62746,-21.8165 0,0 7.53178,-19.61569 4.71977,-31.66312 -3.70261,-15.84011 -9.77136,-24.2602 -9.77136,-24.2602 0.6648,-0.72182 1.32961,-1.38776 1.99783,-2.0537 3.9797,5.40395 10.69957,5.57043 10.69957,5.57043 0,0 3.72085,15.82187 9.1077,23.7425 5.40509,7.91834 12.64267,14.65646 24.2659,14.65646 1.68424,0 3.68549,-0.0353 5.84981,-0.0946 -0.9419,6.03454 -1.42311,12.51153 -1.64547,17.23015 z m -52.94254,52.88894 c -1.47898,2.70141 -5.21808,6.12577 -7.10872,9.49312 -1.46074,-1.62837 -4.05154,-4.07092 -8.40184,-7.12469 -0.90655,-0.63059 -1.99897,-1.31364 -3.18376,-2.0537 3.9797,-15.8595 13.27213,-36.08526 17.02946,-41.19273 1.2019,-1.61013 3.23964,-4.7745 4.51679,-6.80996 1.22128,2.29659 4.49854,8.1236 5.42334,15.43302 1.36952,10.65966 -2.81316,22.35473 -8.27641,32.25494 z m 0.27938,32.97676 c -3.51901,10.95501 -12.19909,20.63514 -12.19909,20.63514 0,0 -4.05382,-5.68333 -7.22161,-7.8294 -0.27596,-0.18359 -0.59068,-0.3706 -0.90541,-0.55648 1.49951,-4.27275 4.53503,-12.24926 7.9058,-18.31801 4.82924,-8.69718 11.73384,-17.98733 11.73384,-17.98733 0,0 4.22031,13.10222 0.68533,24.05722 z m -17.40234,32.32907 c 0,0 -1.53487,-4.14391 -5.64342,-6.23638 -4.09259,-2.07082 -7.94343,-3.86795 -8.90358,-8.013 -0.96242,-4.14504 1.62951,-7.64239 1.62951,-7.64239 0,0 2.29546,2.90553 6.62637,4.96151 4.3332,2.07082 7.42459,4.95809 9.03357,8.36307 1.61013,3.40498 0.16649,6.53058 -2.74131,8.56833 z m -7.55003,11.86155 c 0,0 0.75717,-3.8497 -3.23963,-6.79171 -5.81219,-4.33206 -7.86703,-6.01402 -3.62848,-13.26985 0,0 2.0366,2.38896 5.20097,4.51907 3.16552,2.14493 6.51576,6.93996 6.75637,9.25251 0.3706,3.51445 -5.09037,6.28998 -5.09037,6.28998 z m -4.9444,4.47802 c -1.3125,1.48013 -3.40612,1.70249 -4.9216,-0.0741 -1.49951,-1.77661 -0.4242,-7.73476 1.96248,-10.67791 0,0 1.36952,2.48018 2.83254,4.46205 1.83249,2.4608 1.44364,4.80985 0.12772,6.28998 z m 9.83065,-49.83746 c 0,0 -2.21905,6.07332 -3.96145,11.54911 -2.6843,-1.38776 -5.38685,-3.27499 -6.47927,-6.92285 -1.77661,-5.95473 0.88831,-8.23307 2.40606,-10.19442 0,0 3.94321,3.49735 8.03352,5.56816 z m -17.21533,-34.62224 c 5.94218,3.42323 12.77038,6.80996 16.75236,9.29015 4.36855,2.7014 7.92291,5.38456 10.55134,7.62414 -4.18496,7.44056 -7.97765,14.08289 -7.97765,14.08289 0,0 -8.42236,-4.38793 -14.32691,-12.8981 -4.6274,-6.66172 -5.03677,-14.85944 -4.998,-18.09794 z M 318.8151,292.96149 c -7.47819,-11.65858 -7.40407,-26.9445 -7.40407,-26.9445 3.7026,3.27498 13.21625,8.58657 21.91457,13.41694 7.10986,3.94207 18.69774,12.58338 22.71507,15.63714 -3.332,8.95489 -5.62745,17.24726 -6.49751,20.46751 -9.90478,-5.9399 -25.13824,-13.87877 -30.72806,-22.57709 z m 61.36375,-47.9662 c -2.98078,15.82186 -10.54905,21.22582 -18.25188,36.39998 -1.31592,2.62729 -2.57255,5.40396 -3.73909,8.20001 -4.79388,-3.81435 -13.51273,-9.23655 -20.71496,-13.71457 0.31473,-5.86578 2.42659,-16.89604 8.46114,-30.60947 6.75637,-15.33951 23.98994,-34.19575 23.98994,-34.19575 5.73807,5.93989 13.25388,18.09793 10.25485,33.92094 z m -88.00037,-24.31607 c -0.49945,-13.32344 0.57358,-25.2785 3.07315,-33.82744 -0.40709,0.50174 -0.8883,1.07304 -1.35127,1.62837 -28.69146,34.51276 -61.40025,32.1831 -91.35062,35.27107 -4.42442,0.44587 -21.06503,3.81208 -25.45182,4.75626 10.68019,-11.41797 29.13618,-28.18402 41.18703,-36.39999 22.56455,-15.39425 61.252,-31.459 63.65921,-32.43967 -18.25188,10.10546 -32.98589,26.36977 -32.98589,26.36977 11.03255,-7.47476 48.71995,-29.25705 51.05303,-30.60604 -10.69957,10.19441 -40.81642,36.71243 -58.6977,48.55688 22.8234,-10.77027 42.14946,-24.72545 52.55255,-34.56864 13.01327,-12.28803 32.56055,-24.14959 41.40825,-28.71997 4.33205,4.27504 10.62545,8.17948 16.23352,10.49204 -15.01224,10.56615 -25.02649,16.59956 -29.32091,30.88542 0,0 10.99491,-14.10113 26.82248,-22.74358 2.9785,-1.61012 6.20103,-3.60681 9.51593,-5.88516 3.55208,0.83129 11.29025,1.55425 15.06355,1.55425 l 0.92594,-0.40938 c -0.60893,0.46297 -2.12669,1.33417 -2.75614,1.79714 -30.20808,22.17114 -57.86527,27.99929 -60.4937,72.98585 0.38885,-2.53492 4.90564,-29.94239 27.09958,-44.15413 13.17976,-8.43833 36.81962,-19.67271 52.66316,-35.82641 12.12496,-5.55219 19.76963,-15.04531 23.71284,-28.23875 l 0.0924,-0.4071 c 3.92382,-0.38884 7.83054,-0.8883 11.92085,-1.2589 -0.46297,4.77449 -1.51776,11.25148 -3.83146,17.85733 -2.83254,8.86366 -7.60818,18.72738 -16.01344,29.01872 -15.13996,18.48565 -33.41008,30.05072 -52.42027,54.81151 -19.02957,24.74141 -23.064,49.96518 -23.064,49.96518 -4.13022,-29.94239 9.64364,-49.27985 10.40309,-50.31639 -2.29546,1.83362 -11.68025,12.93687 -15.14338,26.57389 -3.16324,12.45452 -2.62843,15.98835 -2.42317,19.52561 -8.66297,-6.05279 -31.04279,-17.41603 -32.07934,-46.2466 z m -4.55327,3.072 c 0,0 -5.7757,2.27607 -12.80916,2.27607 -7.05285,0 -15.53109,-4.43924 -15.53109,-4.43924 l 0.57358,-0.0593 c 14.78988,-3.70146 28.15551,-19.68639 28.15551,-19.68639 -1.55539,5.40395 -0.38884,21.90886 -0.38884,21.90886 z m -120.02383,6.56708 c -9.79189,3.01841 -22.1757,8.22053 -27.91377,10.71667 13.40212,-14.73172 40.55758,-41.13799 62.69565,-56.01568 66.84297,-44.91243 122.1163,-52.16712 126.24424,-52.99955 l 1.20532,1.0548 c 0.55191,0.87006 1.14601,1.68424 1.73784,2.49842 -27.98789,7.64239 -87.62977,32.8844 -122.50402,57.29284 -15.04873,10.54791 -31.46812,27.18396 -41.46412,37.45364 z M 212.7681,25.557679 c -7.81115,-20.060417 -7.97764,-38.232473 -7.90466,-42.599879 0.0183,-0.629453 -0.0182,-1.8131 -0.0182,-2.201947 0.18473,-14.064642 2.07309,-27.091598 3.66497,-36.455863 0.0741,-0.370602 0.12999,-0.758309 0.18473,-1.128912 l 0.0365,1.998972 c -0.0559,9.733727 0.61121,18.302052 0.85182,20.966968 l 0.0182,0.258851 c 0.0365,0.388847 0.29648,-1.998972 0.48121,-3.202004 0.6477,-4.329775 1.38777,-8.642445 1.81424,-13.009851 0.44473,-4.34916 1.4254,-9.53075 1.61013,-13.898156 0.0741,-1.684245 0.14824,-3.36849 0.0924,-5.033349 0.49946,0.277096 0.68533,1.906606 0.79594,2.368433 0.37061,1.813101 1.20304,16.080719 1.44364,20.966968 0.11061,1.943096 0.14824,3.886192 0.16649,5.847534 0.0182,0.962425 0.0365,1.924851 0.20411,2.887277 0.0183,0.258851 0.11061,0.537088 0.16649,0.814184 0.0741,0 0.75945,-6.421112 1.2954,-9.826092 0.46297,-2.923767 1.18478,-5.885164 1.16654,-8.845421 0,-0.258852 -0.0741,-0.591824 -0.0365,-0.83243 0.0741,-0.443582 0.72182,1.443638 1.03655,4.922739 0.22236,3.942068 0.38884,8.012992 0.85181,11.861554 l 0.35122,3.053763 c 3.18376,27.925168 19.91788,53.370151 42.5383,64.768737 18.25188,10.233185 35.28134,8.049482 53.3291,5.736924 3.35024,-0.425338 6.79399,-0.870061 10.31072,-1.239523 7.90467,-0.832429 14.36455,-0.90655 20.38085,-0.240606 13.29037,1.203032 25.58182,5.736923 29.6174,7.828261 13.4922,6.05165 24.06406,19.800425 26.28311,34.234529 v 0.38885 c 0.57586,2.62728 0.87234,5.34807 0.87234,8.14184 v 0.0924 c -0.0947,-0.53709 -0.14824,-1.03655 -0.26113,-1.59188 -0.0718,4.68213 -1.01488,9.1419 -2.66378,13.25046 1.33303,-4.16329 1.77661,-9.03015 0.55534,-14.71234 -0.0559,5.32983 -1.2954,10.34493 -3.40612,14.87882 1.26004,-4.07092 1.77661,-8.43832 1.36837,-12.93573 -0.83129,-9.10427 -5.25685,-17.0249 -11.75208,-22.577088 5.20098,5.570438 7.7359,14.397618 8.47824,22.669458 1.74012,19.3386 -13.73509,32.01434 -30.32097,34.88223 l -0.3535,0.0924 c 1.42768,0.24061 6.96163,1.0183 12.47847,-0.74006 2.44369,-0.18473 5.70157,-0.72182 8.99594,-2.33195 1.22128,-0.57357 2.75614,-1.46188 4.42442,-2.62728 -6.88636,6.36638 -16.08642,10.28906 -26.21355,10.28906 -13.36335,0 -25.11772,-6.79171 -32.04057,-17.09902 9.64364,1.20303 19.08317,3.1085 19.08317,3.1085 -8.69832,-6.69935 -23.09936,-10.91852 -23.09936,-10.91852 v 0.0559 C 316.61433,93.93332 297.89948,90.41773 281.27711,85.69911 247.71651,76.29835 224.67075,56.053206 212.76814,25.556628 Z m 72.95164,-31.126032 c -7.47818,-19.74569 -4.96037,-38.583689 -6.25691,-49.131601 -0.38884,-3.034377 -0.87006,-6.735839 -1.46188,-10.696152 1.666,5.458686 3.83146,13.268702 4.40504,18.264421 0,0 -0.48122,-14.157008 -2.42545,-22.964799 0.27709,0.814185 4.90563,13.898157 5.84981,21.484671 0,0 0.6477,-7.587655 -0.0741,-15.673627 0.92594,3.108498 1.75837,6.384623 2.36957,9.826093 3.84971,21.374059 10.18073,36.307621 35.65194,52.018878 -4.53503,6.939955 -11.21727,16.395445 -16.41939,23.742493 -6.29339,-4.718622 -16.80824,-14.082887 -21.63861,-26.870377 z m 47.20219,0.01825 c 4.01733,-8.512449 4.59091,-15.192413 4.59091,-15.192413 37.14917,1.720735 81.66934,18.00557 117.67136,52.129489 15.9416,15.081803 26.49065,32.902647 33.30289,48.096197 -6.64576,-1.07303 -20.43558,-2.7014 -35.98491,-2.81315 -17.4377,-0.11061 -38.33625,2.23957 -42.31594,2.72079 v -0.0183 c -0.0741,-0.61121 -0.14597,-1.22127 -0.24061,-1.83248 l -0.0741,-0.53709 c -0.0741,-0.48122 -0.16649,-0.94419 -0.25885,-1.42539 h 0.0182 c -2.22133,-17.062539 -14.86286,-33.383864 -30.8763,-40.157334 -5.75631,-2.683161 -17.88128,-6.717594 -30.54333,-7.846506 -6.40629,-0.740064 -13.27212,-0.665944 -21.60212,0.222362 -3.59085,0.370602 -7.05285,0.832429 -10.45897,1.258907 -2.48019,0.314727 -4.90563,0.629454 -7.3117,0.90655 0,0 1.22128,-1.536004 1.42539,-1.868976 6.44164,-9.733726 13.43861,-19.393333 16.93938,-24.09371 2.42089,-3.274984 4.29215,-6.532863 5.71754,-9.548996 z M 281.25769,102.57682 c 0.29648,-2.72079 0.66594,-5.44044 1.09242,-8.1236 0.14824,-0.74007 0.29648,-1.49838 0.46297,-2.23958 2.99903,0.72182 6.05279,1.42539 9.10769,2.12782 2.73904,0.6477 5.49746,1.2954 8.21825,1.97959 1.36952,0.33297 2.72079,0.66594 4.05382,1.0183 l 0.38885,0.0924 -0.55534,0.0924 c -7.81115,1.36952 -15.91879,3.27499 -22.76866,5.0516 z m 218.46492,11.01088 c -26.73012,-3.55322 -47.18394,-3.42323 -90.48056,1.27715 -3.44261,18.80151 -19.89963,33.06913 -39.70575,33.06913 -15.8652,0 -29.56152,-9.16015 -36.16965,-22.46534 -9.38479,1.73898 -17.41831,3.42322 -24.17467,4.99686 0,0 -23.06401,5.92165 -29.30267,8.3642 0,0 -1.36952,1.49838 -0.35122,-20.06041 0.0365,-0.51771 0.57358,-6.62523 0.92594,-10.39967 7.1817,-1.86898 16.0123,-3.97856 24.54527,-5.49632 4.6274,-0.81419 9.03358,-1.44364 13.14213,-1.9431 2.4437,0.6477 4.81327,1.2954 7.01522,1.9431 0.2406,1.48013 11.662,26.46328 42.66716,26.00032 20.52794,-0.31473 42.57479,-18.57915 42.59303,-44.19062 v -0.0741 c 4.09259,-0.44358 24.85772,-2.60904 42.07534,-2.48019 18.95545,0.13 34.20944,2.42431 39.00218,3.31262 0,0 5.42334,13.2687 8.21825,28.14639 z m 8.53183,3.38673 c 7.73932,-1.73898 11.21956,-3.33086 11.21956,-3.33086 0,0 -1.87012,14.15701 -16.84473,15.2118 -14.95637,1.07304 -16.95534,-2.53492 -28.192,-3.9968 0,0 3.35024,-2.01722 9.36655,-3.20201 0,0 -10.43959,-1.48012 -18.326,0.51771 -7.86703,2.01721 -11.08842,5.34807 -11.08842,5.34807 0,0 -0.92594,-8.01299 3.07314,-10.6779 4.01733,-2.68317 18.04777,-1.61013 22.71051,-1.07304 4.6867,0.53709 20.32725,2.94201 28.08139,1.20303 z m 4.42557,41.2315 c 2.11072,1.62495 4.2203,1.9602 5.5157,2.92377 1.2954,0.97839 1.2954,3.9033 0.6477,6.32875 -0.6477,2.42202 -2.4437,2.755 -4.38679,2.27378 -1.81424,-0.46296 -11.29368,-1.73898 -21.60213,0.14824 -0.55533,-1.9066 -1.49951,-6.25462 0.55534,-8.42008 2.66605,-2.77553 7.79519,-2.53492 9.82951,-2.14607 -0.48121,-0.22236 -4.44267,-1.99897 -7.96168,-1.99897 -3.73681,0 -6.80996,2.5543 -7.88413,5.35035 -0.79594,2.08906 -0.11061,6.38234 0.29648,8.45544 -11.19903,3.29437 -27.24782,12.04742 -40.40934,28.94233 -14.27218,18.32029 -17.49128,41.19159 -17.49128,41.19159 0,0 -15.06926,2.96253 -22.86217,-8.60368 -10.45669,-15.52653 -6.51804,-33.73393 -6.51804,-33.73393 0,0 -6.19875,2.92377 -11.08842,1.64547 -1.7196,-0.44358 -2.94316,-1.57249 -3.8098,-2.92376 8.16124,-7.2353 16.82421,-14.02702 25.43244,-23.87021 4.44039,0.97839 8.43947,2.05256 10.62546,2.73675 4.81327,1.46189 9.82951,5.53167 11.18078,9.93785 1.33303,4.40389 1.99897,19.37508 1.99897,19.37508 2.70027,-10.41905 3.12789,-15.65538 3.38788,-18.61677 0.2771,-2.92377 -0.0365,-10.36318 -5.66394,-15.50714 -3.05605,-2.77553 -11.662,-5.34808 -15.08865,-7.23758 13.05204,-17.9668 16.6429,-45.50312 16.6429,-45.50312 -0.0183,-0.25885 -0.0183,-0.51771 -0.0183,-0.7777 1.33417,-0.14824 2.20081,-0.27709 2.23958,-0.42533 2.40606,-0.13 10.94018,-1.18479 13.30975,-1.22128 0,0 -3.57032,10.52967 -0.48121,18.3203 0,0 7.94115,-5.34808 19.30667,-4.5339 11.34727,0.81419 29.52275,6.32875 37.31794,3.2385 0,0 3.40612,7.79063 3.23963,13.47168 -0.14824,5.6628 1.62723,9.56496 3.7391,11.17964 z m 19.93384,73.0212 c -0.73893,-4.53389 -5.2922,-8.58657 -7.56941,-9.08831 -2.27721,-0.49832 -8.08939,-2.01494 -8.08939,-2.01494 4.29442,-12.11926 4.29442,-19.70806 4.29442,-19.70806 3.79497,-2.01949 11.36324,-5.05045 11.36324,-5.05045 -2.51554,-13.39984 -11.62323,-23.76302 -11.62323,-23.76302 0.75945,-2.77553 2.53378,-7.56827 2.53378,-9.34488 0,-1.77661 -3.29323,-4.79274 -6.82821,-7.06881 -3.53611,-2.27607 -4.03557,-6.3105 -4.03557,-11.12149 0,-4.79274 -2.01722,-10.86264 -2.77667,-11.12149 -0.75945,-0.24061 9.01305,-3.33086 12.05085,-11.93567 3.03552,-8.58657 3.10964,-15.56302 3.10964,-15.56302 -4.03558,5.88516 -19.84376,8.30947 -19.84376,8.30947 -1.25891,-13.39755 -12.01207,-56.608642 -55.47745,-95.76591 -43.4631,-39.157268 -117.5254,-46.245465 -117.5254,-46.245465 0.11061,2.183703 -0.16649,4.774498 -0.81419,7.624145 -0.6112,3.682076 -1.68424,8.031237 -3.55436,11.547967 -0.11061,0.204117 -0.25885,0.462968 -0.40709,0.703574 -10.21836,-5.532807 -20.95442,-12.97222 -25.8783,-21.669401 -9.53303,-16.840168 -8.34825,-31.330147 -13.40212,-43.209946 -8.27413,-19.449209 -20.21436,-30.015364 -23.76758,-33.106754 -2.0366,-1.77661 -2.72079,-2.36844 -3.77672,-1.51776 -1.03655,0.83243 -0.35122,2.03546 0.49945,3.29437 0.79594,1.18478 8.23764,15.526521 11.0143,34.993975 2.77667,19.449208 -0.90655,50.149902 8.20001,69.857962 5.66394,12.268646 15.03049,21.984128 21.30564,27.572811 0.22236,0.184731 0.44472,0.388847 0.6477,0.573578 l 2.0366,2.017217 C 291.305,31.6481 279.21767,31.185132 266.37088,23.96808 245.71294,13.568409 229.86712,-10.618807 226.9616,-36.212031 l -0.35122,-3.072008 c -0.81418,-7.014076 -0.48121,-14.027012 -0.79593,-21.059333 -0.2771,-6.384622 -0.98068,-12.749859 -2.09134,-19.042116 -0.48121,-2.775526 -1.05479,-5.514562 -1.72188,-8.253598 l -0.0182,-0.09237 c -0.2771,-1.666 -0.75945,-3.312615 -1.24066,-4.940984 -0.31473,-1.073036 -0.66595,-2.146072 -1.01831,-3.238494 -0.81418,-2.386679 -1.87011,-4.682136 -3.22139,-6.865836 -1.6295,-2.62728 -3.42436,-5.18159 -5.5157,-7.45766 -1.24066,-1.35127 -2.57255,-2.62728 -4.07206,-3.68207 0,0 -1.38776,-0.87006 -2.33195,-0.37061 0,0 -1.24066,0.87006 0.0741,3.57147 0,0 0.33297,0.53709 0.72181,1.46188 0.22237,0.51771 0.46297,1.1654 0.68533,1.90661 0.20412,0.66594 0.37061,1.38776 0.49946,2.16546 1.03655,5.55219 1.77661,17.506109 -2.61018,40.323807 l -0.0365,0.07412 c -0.38885,3.312614 -0.81418,6.625228 -1.38776,9.918457 -1.81424,10.677908 -3.57261,22.798313 -3.86909,35.382827 0,0.555333 0.0741,2.183703 0.0559,2.516674 -0.13,11.195611 2.01721,84.588545 77.93025,107.701585 -0.35122,1.57249 -0.68533,3.09025 -0.92594,4.55214 -5.128,32.36555 -3.23963,46.00485 -3.23963,46.00485 l 0.0365,0.33298 c -15.53109,5.84753 -33.09764,13.73053 -51.60837,24.31607 -20.71382,11.34385 -43.186,26.77687 -65.17697,47.8362 -4.12794,3.97856 -7.99703,7.883 -11.662,11.76919 -0.8883,0.92479 -1.77661,1.86898 -2.66605,2.8143 l -0.16649,0.18359 c -11.60612,12.491 -20.36146,24.00134 -26.71073,33.36561 34.30067,-24.75852 87.88976,-32.18083 104.27152,-33.14553 17.1777,-0.99778 34.57776,-3.93751 34.57776,-3.93751 0,0 6.794,3.62506 14.90164,5.40167 9.20006,2.03546 18.82545,-0.8883 18.82545,-0.8883 3.462,17.80259 15.97467,29.23881 19.2508,31.80908 -0.85182,5.35035 0.0182,23.00357 6.03454,32.81255 6.47927,10.56616 17.1777,17.69085 17.1777,17.69085 0,0 -0.74006,9.56724 1.77661,16.41483 2.51782,6.84645 8.36649,13.08283 8.36649,13.08283 0,0 -2.66605,4.47801 -3.01727,10.10433 -0.35122,5.62517 3.01727,8.75077 3.01727,8.75077 0,0 -3.05376,3.92497 -3.5726,6.97873 -0.50174,3.07201 1.38776,7.67774 1.38776,7.67774 0,0 -1.85073,3.36963 -2.38782,5.96042 -0.55533,2.60904 1.00006,5.81219 1.00006,5.81219 -1.24067,2.42203 -4.9216,13.80351 0.49945,18.37389 5.4051,4.57038 12.14322,-3.96031 12.14322,-3.96031 2.07309,-0.61121 5.97753,-3.18262 7.82826,-6.0699 2.27835,-3.53497 2.27835,-6.8282 2.27835,-6.8282 0,0 2.90666,-1.88951 5.42219,-6.69935 2.07652,-3.90444 1.77889,-6.47699 1.77889,-6.47699 0,0 11.75437,-12.34277 14.19806,-27.75868 2.0902,-13.13871 -1.00119,-25.2614 -1.00119,-25.2614 0,0 8.83173,-13.4329 8.42464,-28.79294 6.0163,-4.20206 20.52795,-13.61992 38.59509,-20.64996 0.51885,10.3609 2.14722,19.33631 -1.09242,35.99175 -4.05382,20.72636 -22.50867,35.88343 -22.50867,35.88343 25.78366,-2.77553 42.98188,-25.52139 49.79412,-41.95218 5.57158,-13.39984 10.6437,-32.34959 12.99503,-40.93616 25.1542,-4.88511 48.12812,-6.18051 55.75455,-7.32652 10.10661,-1.5189 12.64267,-3.77673 12.88328,-7.56827 0.25885,-3.79497 -0.75945,-10.62432 -1.52004,-15.17645 z m -44.07203,-95.65417 c 0,0 -6.27515,-2.40606 -14.42042,-1.07303 -8.16351,1.33189 -11.36551,2.94201 -16.84473,3.60909 l -0.0559,0.0924 c 4.57266,1.49837 12.05198,1.38776 16.49351,2.16546 2.14493,0.38885 4.35144,1.59188 6.10867,2.75728 l -2.29546,10.25257 c -5.10861,2.72079 -13.38387,7.90352 -19.71604,15.76827 -0.48121,0.59068 -0.94418,1.23952 -1.36838,1.92257 -0.20411,0.2771 -0.38884,0.57358 -0.55533,0.88831 -0.24289,0.38884 -0.46297,0.77769 -0.66594,1.1654 -0.25886,0.46297 -0.50174,0.94418 -0.74007,1.44364 -0.2406,0.48121 -0.46297,0.96242 -0.66594,1.44364 -0.90655,2.03318 -1.62951,4.07092 -2.16546,5.79394 l -0.18473,0.59068 c -0.40709,1.34899 -0.70129,2.4608 -0.88831,3.22025 l -0.0741,0.2942 -0.0559,0.2235 -0.0741,0.35122 -0.0182,0.0946 c 0.11061,-0.18701 0.68533,-1.22355 1.6489,-2.72193 l 0.70015,-1.07303 c 1.85073,-2.77553 4.66617,-6.62523 8.01755,-9.91846 0.46297,-0.46297 0.9419,-0.9248 1.4254,-1.35128 0.98067,-0.8712 1.97844,-1.68424 3.01727,-2.40606 7.51581,-5.21808 11.49551,-7.2353 13.77044,-9.36198 0.40937,-0.42762 0.74235,-0.89059 1.03883,-1.35242 1.98072,-2.4072 2.86903,-11.01088 3.0378,-12.84222 v -0.0559 l 0.0353,-0.31472 c 0.0182,-0.31473 0.0182,-0.57358 0.0182,-0.74007 v -0.18473 c -0.12999,-1.20303 -2.53606,-4.68213 -3.86909,-6.27287 0,0 3.86909,-2.14607 9.3483,-2.40606 z m 0,0 c 0,0 -6.27515,-2.40606 -14.42042,-1.07303 -8.16351,1.33189 -11.36551,2.94201 -16.84473,3.60909 l -0.0559,0.0924 c 4.57266,1.49837 12.05198,1.38776 16.49351,2.16546 2.14493,0.38885 4.35144,1.59188 6.10867,2.75728 l -2.29546,10.25257 c -5.10861,2.72079 -13.38387,7.90352 -19.71604,15.76827 -0.48121,0.59068 -0.94418,1.23952 -1.36838,1.92257 -0.20411,0.2771 -0.38884,0.57358 -0.55533,0.88831 -0.24289,0.38884 -0.46297,0.77769 -0.66594,1.1654 -0.25886,0.46297 -0.50174,0.94418 -0.74007,1.44364 -0.2406,0.48121 -0.46297,0.96242 -0.66594,1.44364 -0.90655,2.03318 -1.62951,4.07092 -2.16546,5.79394 l -0.18473,0.59068 c -0.40709,1.34899 -0.70129,2.4608 -0.88831,3.22025 l -0.0741,0.2942 -0.0559,0.2235 -0.0741,0.35122 -0.0182,0.0946 c 0.11061,-0.18701 0.68533,-1.22355 1.6489,-2.72193 l 0.70015,-1.07303 c 1.85073,-2.77553 4.66617,-6.62523 8.01755,-9.91846 0.46297,-0.46297 0.9419,-0.9248 1.4254,-1.35128 0.98067,-0.8712 1.97844,-1.68424 3.01727,-2.40606 7.51581,-5.21808 11.49551,-7.2353 13.77044,-9.36198 0.40937,-0.42762 0.74235,-0.89059 1.03883,-1.35242 1.98072,-2.4072 2.86903,-11.01088 3.0378,-12.84222 v -0.0559 l 0.0353,-0.31472 c 0.0182,-0.31473 0.0182,-0.57358 0.0182,-0.74007 v -0.18473 c -0.12999,-1.20303 -2.53606,-4.68213 -3.86909,-6.27287 0,0 3.86909,-2.14607 9.3483,-2.40606 z m 0,0 c 0,0 -6.27515,-2.40606 -14.42042,-1.07303 -8.16351,1.33189 -11.36551,2.94201 -16.84473,3.60909 l -0.0559,0.0924 c 4.57266,1.49837 12.05198,1.38776 16.49351,2.16546 2.14493,0.38885 4.35144,1.59188 6.10867,2.75728 l -2.29546,10.25257 c -5.10861,2.72079 -13.38387,7.90352 -19.71604,15.76827 -0.48121,0.59068 -0.94418,1.23952 -1.36838,1.92257 -0.20411,0.2771 -0.38884,0.57358 -0.55533,0.88831 -0.24289,0.38884 -0.46297,0.77769 -0.66594,1.1654 -0.25886,0.46297 -0.50174,0.94418 -0.74007,1.44364 -0.2406,0.48121 -0.46297,0.96242 -0.66594,1.44364 -0.90655,2.03318 -1.62951,4.07092 -2.16546,5.79394 l -0.18473,0.59068 c -0.40709,1.34899 -0.70129,2.4608 -0.88831,3.22025 l -0.0741,0.2942 -0.0559,0.2235 -0.0741,0.35122 -0.0182,0.0946 c 0.11061,-0.18701 0.68533,-1.22355 1.6489,-2.72193 l 0.70015,-1.07303 c 1.85073,-2.77553 4.66617,-6.62523 8.01755,-9.91846 0.46297,-0.46297 0.9419,-0.9248 1.4254,-1.35128 0.98067,-0.8712 1.97844,-1.68424 3.01727,-2.40606 7.51581,-5.21808 11.49551,-7.2353 13.77044,-9.36198 0.40937,-0.42762 0.74235,-0.89059 1.03883,-1.35242 1.98072,-2.4072 2.86903,-11.01088 3.0378,-12.84222 v -0.0559 l 0.0353,-0.31472 c 0.0182,-0.31473 0.0182,-0.57358 0.0182,-0.74007 v -0.18473 c -0.12999,-1.20303 -2.53606,-4.68213 -3.86909,-6.27287 0,0 3.86909,-2.14607 9.3483,-2.40606 z m 0,0 c 0,0 -6.27515,-2.40606 -14.42042,-1.07303 -8.16351,1.33189 -11.36551,2.94201 -16.84473,3.60909 l -0.0559,0.0924 c 4.57266,1.49837 12.05198,1.38776 16.49351,2.16546 2.14493,0.38885 4.35144,1.59188 6.10867,2.75728 l -2.29546,10.25257 c -5.10861,2.72079 -13.38387,7.90352 -19.71604,15.76827 -0.48121,0.59068 -0.94418,1.23952 -1.36838,1.92257 -0.20411,0.2771 -0.38884,0.57358 -0.55533,0.88831 -0.24289,0.38884 -0.46297,0.77769 -0.66594,1.1654 -0.25886,0.46297 -0.50174,0.94418 -0.74007,1.44364 -0.2406,0.48121 -0.46297,0.96242 -0.66594,1.44364 -0.90655,2.03318 -1.62951,4.07092 -2.16546,5.79394 l -0.18473,0.59068 c -0.40709,1.34899 -0.70129,2.4608 -0.88831,3.22025 l -0.0741,0.2942 -0.0559,0.2235 -0.0741,0.35122 -0.0182,0.0946 c 0.11061,-0.18701 0.68533,-1.22355 1.6489,-2.72193 l 0.70015,-1.07303 c 1.85073,-2.77553 4.66617,-6.62523 8.01755,-9.91846 0.46297,-0.46297 0.9419,-0.9248 1.4254,-1.35128 0.98067,-0.8712 1.97844,-1.68424 3.01727,-2.40606 7.51581,-5.21808 11.49551,-7.2353 13.77044,-9.36198 0.40937,-0.42762 0.74235,-0.89059 1.03883,-1.35242 1.98072,-2.4072 2.86903,-11.01088 3.0378,-12.84222 v -0.0559 l 0.0353,-0.31472 c 0.0182,-0.31473 0.0182,-0.57358 0.0182,-0.74007 v -0.18473 c -0.12999,-1.20303 -2.53606,-4.68213 -3.86909,-6.27287 0,0 3.86909,-2.14607 9.3483,-2.40606 z m 0,0 c 0,0 -6.27515,-2.40606 -14.42042,-1.07303 -8.16351,1.33189 -11.36551,2.94201 -16.84473,3.60909 l -0.0559,0.0924 c 4.57266,1.49837 12.05198,1.38776 16.49351,2.16546 2.14493,0.38885 4.35144,1.59188 6.10867,2.75728 l -2.29546,10.25257 c -5.10861,2.72079 -13.38387,7.90352 -19.71604,15.76827 -0.48121,0.59068 -0.94418,1.23952 -1.36838,1.92257 -0.20411,0.2771 -0.38884,0.57358 -0.55533,0.88831 -0.24289,0.38884 -0.46297,0.77769 -0.66594,1.1654 -0.25886,0.46297 -0.50174,0.94418 -0.74007,1.44364 -0.2406,0.48121 -0.46297,0.96242 -0.66594,1.44364 -0.90655,2.03318 -1.62951,4.07092 -2.16546,5.79394 l -0.18473,0.59068 c -0.40709,1.34899 -0.70129,2.4608 -0.88831,3.22025 l -0.0741,0.2942 -0.0559,0.2235 -0.0741,0.35122 -0.0182,0.0946 c 0.11061,-0.18701 0.68533,-1.22355 1.6489,-2.72193 l 0.70015,-1.07303 c 1.85073,-2.77553 4.66617,-6.62523 8.01755,-9.91846 0.46297,-0.46297 0.9419,-0.9248 1.4254,-1.35128 0.98067,-0.8712 1.97844,-1.68424 3.01727,-2.40606 7.51581,-5.21808 11.49551,-7.2353 13.77044,-9.36198 0.40937,-0.42762 0.74235,-0.89059 1.03883,-1.35242 1.98072,-2.4072 2.86903,-11.01088 3.0378,-12.84222 v -0.0559 l 0.0353,-0.31472 c 0.0182,-0.31473 0.0182,-0.57358 0.0182,-0.74007 v -0.18473 c -0.12999,-1.20303 -2.53606,-4.68213 -3.86909,-6.27287 0,0 3.86909,-2.14607 9.3483,-2.40606 z m 0,0 c 0,0 -6.27515,-2.40606 -14.42042,-1.07303 -8.16351,1.33189 -11.36551,2.94201 -16.84473,3.60909 l -0.0559,0.0924 c 4.57266,1.49837 12.05198,1.38776 16.49351,2.16546 2.14493,0.38885 4.35144,1.59188 6.10867,2.75728 l -2.29546,10.25257 c -5.10861,2.72079 -13.38387,7.90352 -19.71604,15.76827 -0.48121,0.59068 -0.94418,1.23952 -1.36838,1.92257 -0.20411,0.2771 -0.38884,0.57358 -0.55533,0.88831 -0.24289,0.38884 -0.46297,0.77769 -0.66594,1.1654 -0.25886,0.46297 -0.50174,0.94418 -0.74007,1.44364 -0.2406,0.48121 -0.46297,0.96242 -0.66594,1.44364 -0.90655,2.03318 -1.62951,4.07092 -2.16546,5.79394 l -0.18473,0.59068 c -0.40709,1.34899 -0.70129,2.4608 -0.88831,3.22025 l -0.0741,0.2942 -0.0559,0.2235 -0.0741,0.35122 -0.0182,0.0946 c 0.11061,-0.18701 0.68533,-1.22355 1.6489,-2.72193 l 0.70015,-1.07303 c 1.85073,-2.77553 4.66617,-6.62523 8.01755,-9.91846 0.46297,-0.46297 0.9419,-0.9248 1.4254,-1.35128 0.98067,-0.8712 1.97844,-1.68424 3.01727,-2.40606 7.51581,-5.21808 11.49551,-7.2353 13.77044,-9.36198 0.40937,-0.42762 0.74235,-0.89059 1.03883,-1.35242 1.98072,-2.4072 2.86903,-11.01088 3.0378,-12.84222 v -0.0559 l 0.0353,-0.31472 c 0.0182,-0.31473 0.0182,-0.57358 0.0182,-0.74007 v -0.18473 c -0.12999,-1.20303 -2.53606,-4.68213 -3.86909,-6.27287 0,0 3.86909,-2.14607 9.3483,-2.40606 z"
       id="path15"
       inkscape:connector-curvature="0"
       style="fill:#000000;stroke-width:1.1403147"
       inkscape:export-filename="C:\Users\suitedoalex\sites\minnesota-vikings-logo-4.png"
       inkscape:export-xdpi="88.62748"
       inkscape:export-ydpi="88.62748" />
    <path
       d="m 534.13503,246.40358 c -0.24061,3.79154 -2.77667,6.04937 -12.88328,7.56827 -7.62642,1.14601 -30.60034,2.44141 -55.75455,7.32652 -2.35133,8.58657 -7.42231,27.53632 -12.99502,40.93616 -6.81225,16.43079 -24.01047,39.17551 -49.79413,41.95218 0,0 18.45485,-15.15821 22.50867,-35.88343 3.23964,-16.65544 1.61013,-25.62971 1.09243,-35.99175 -18.06601,7.03004 -32.5788,16.4479 -38.5951,20.64996 0.40709,15.36004 -8.42464,28.79294 -8.42464,28.79294 0,0 3.09139,12.12269 1.00119,25.2614 -2.44369,15.41477 -14.19806,27.75868 -14.19806,27.75868 0,0 0.29763,2.57255 -1.77889,6.47699 -2.51553,4.80984 -5.42219,6.69935 -5.42219,6.69935 0,0 0,3.29437 -2.27835,6.8282 -1.85073,2.88728 -5.75517,5.45869 -7.82826,6.0699 0,0 -6.73812,8.53069 -12.14321,3.96031 -5.4222,-4.57038 -1.74012,-15.95186 -0.49946,-18.37389 0,0 -1.55539,-3.20315 -1.00006,-5.81219 0.53709,-2.59079 2.38782,-5.96042 2.38782,-5.96042 0,0 -1.8895,-4.60573 -1.38776,-7.67774 0.51884,-3.05376 3.5726,-6.97873 3.5726,-6.97873 0,0 -3.36849,-3.1256 -3.01727,-8.75077 0.35122,-5.62518 3.01727,-10.10433 3.01727,-10.10433 0,0 -5.84981,-6.23638 -8.36649,-13.08283 -2.51781,-6.84645 -1.77661,-16.41483 -1.77661,-16.41483 0,0 -10.69957,-7.12469 -17.1777,-17.69085 -6.0163,-9.80784 -6.88636,-27.4622 -6.03454,-32.81255 -3.27613,-2.57027 -15.78994,-14.00649 -19.2508,-31.80908 0,0 -9.62539,2.92376 -18.82545,0.8883 -8.10764,-1.77661 -14.90164,-5.40167 -14.90164,-5.40167 0,0 -17.40006,2.94087 -34.57776,3.93751 -16.38176,0.96356 -69.97085,8.38701 -104.27152,33.14553 6.34927,-9.36427 15.10461,-20.87461 26.71073,-33.36561 l 0.16649,-0.18359 c 0.8883,-0.94532 1.77661,-1.88951 2.66605,-2.8143 3.66498,-3.88619 7.53406,-7.79063 11.662,-11.76919 21.99097,-21.05933 44.46316,-36.49235 65.17697,-47.8362 18.51073,-10.58554 36.07728,-18.46854 51.60837,-24.31607 l -0.0365,-0.33298 c 0,0 -1.88836,-13.63816 3.23963,-46.00485 0.24061,-1.46189 0.57358,-2.97965 0.92594,-4.55214 C 200.73891,67.62275 198.5917,-5.770188 198.7217,-16.965799 c 0.0182,-0.332971 -0.0559,-1.961341 -0.0559,-2.516674 0.29648,-12.583373 2.05485,-24.704919 3.86909,-35.382827 0.57358,-3.294369 1.00006,-6.606983 1.38776,-9.918457 l 0.0365,-0.07412 c 4.38679,-22.817698 3.64673,-34.771617 2.61018,-40.323813 -0.12999,-0.77769 -0.29648,-1.49837 -0.49945,-2.16545 -0.22237,-0.74007 -0.46297,-1.38777 -0.68533,-1.90661 -0.38885,-0.9248 -0.72182,-1.46188 -0.72182,-1.46188 -1.31479,-2.70141 -0.0741,-3.57147 -0.0741,-3.57147 0.94418,-0.49946 2.33194,0.3706 2.33194,0.3706 1.49951,1.05479 2.83254,2.33195 4.07206,3.68208 2.09134,2.27607 3.88734,4.83037 5.51571,7.45766 1.35127,2.1837 2.40606,4.478013 3.22139,6.865832 0.35121,1.091281 0.70357,2.165458 1.0183,3.238494 0.48121,1.628369 0.96242,3.274984 1.24066,4.940984 l 0.0182,0.09237 c 0.66595,2.739036 1.24067,5.478072 1.72188,8.253598 1.11067,6.292257 1.81424,12.657494 2.09134,19.042116 0.31472,7.032321 -0.0182,14.045257 0.79594,21.059333 l 0.35121,3.072008 c 2.90671,25.593218 18.75138,49.779294 39.40932,60.180105 12.84679,7.217052 24.93412,7.68002 37.92915,6.458743 l -2.0366,-2.017217 c -0.20412,-0.184731 -0.42534,-0.388847 -0.6477,-0.573578 -6.27515,-5.588683 -15.6417,-15.304165 -21.30564,-27.572811 -9.1077,-19.70806 -5.42334,-50.408754 -8.2,-69.857962 -2.77667,-19.467454 -10.21837,-33.809195 -11.0143,-34.993975 -0.85182,-1.25891 -1.53601,-2.4608 -0.49946,-3.29437 1.05479,-0.85182 1.74012,-0.25885 3.77672,1.51776 3.55436,3.09025 15.49346,13.657545 23.76758,33.106754 5.05387,11.880939 3.86909,26.369778 13.40212,43.209946 4.92388,8.697181 15.65994,16.136594 25.8783,21.669401 0.14824,-0.240606 0.29648,-0.499457 0.40709,-0.703574 1.87012,-3.51559 2.94316,-7.864751 3.55437,-11.547967 0.64769,-2.849647 0.92593,-5.440442 0.81418,-7.624145 0,0 74.0623,7.087057 117.5254,46.245465 43.46538,39.157268 54.21854,82.36721 55.47745,95.76591 0,0 15.80819,-2.42431 19.84376,-8.30947 0,0 -0.0741,6.97645 -3.10964,15.56302 -3.0378,8.60481 -12.80915,11.69506 -12.05085,11.93567 0.75945,0.25885 2.77667,6.32875 2.77667,11.12149 0,4.81099 0.49946,8.84542 4.03558,11.12149 3.53611,2.27607 6.8282,5.2922 6.8282,7.06881 0,1.77661 -1.77547,6.56935 -2.53378,9.34488 0,0 9.10769,10.36318 11.62323,23.76302 0,0 -7.56941,3.03096 -11.36324,5.05045 0,0 0,7.5888 -4.29442,19.70806 0,0 5.81218,1.51776 8.08939,2.01494 2.27721,0.50174 6.83049,4.55442 7.56941,9.08831 0.76059,4.55213 1.77889,11.38034 1.52004,15.17645 z m 4.84976,-16.06476 c -1.16655,-7.05056 -7.55231,-13.21282 -12.5332,-14.32349 -0.35008,-0.0741 -0.81305,-0.16649 -1.31251,-0.2942 1.2954,-4.66503 1.92372,-8.38702 2.23844,-10.99378 2.87131,-1.31364 6.22384,-2.68316 7.6652,-3.25902 l 4.90563,-1.97844 -0.98067,-5.18159 c -2.0195,-10.69616 -7.62642,-19.54158 -10.83071,-23.90898 1.15172,-3.64559 1.83477,-6.01402 1.83477,-8.02896 0,-4.10969 -3.29437,-8.31061 -9.77364,-12.47504 -0.51884,-0.33069 -1.11067,-1.27715 -1.11067,-5.73693 0,-0.0741 -0.0741,-4.25679 -1.16654,-8.51244 3.51673,-2.38668 7.92063,-6.31051 10.08837,-12.41689 2.16545,-6.14402 2.98078,-11.58446 3.29437,-14.74883 0.16648,-1.72074 -0.0764,-5.84754 -0.0764,-5.84754 l -0.6648,-7.95711 c 0,0 -3.99794,3.18262 -6.21814,4.8851 -0.5941,0.44359 -1.03882,0.7777 -1.28057,0.9248 -0.31473,0.24061 -0.6648,0.46297 -0.99777,0.66594 -1.63065,0.98067 -3.44261,1.75837 -4.22031,2.16546 -1.7424,0.94418 -4.38679,1.9431 -7.29459,2.75728 C 506.3695,84.44125 491.04253,46.597626 453.98344,13.213772 409.40968,-26.943553 335.78982,-34.381826 332.68246,-34.696553 l -6.9046,-0.647698 c 0,0 -0.14824,10.344935 -0.79822,13.286947 l -0.0718,0.332972 c -0.24061,1.425393 -0.51885,2.775526 -0.85296,4.034434 -8.38359,-5.237466 -14.23341,-10.547912 -17.06481,-15.563016 -5.2386,-9.252514 -6.94109,-17.746719 -8.5706,-25.944441 -1.14716,-5.811044 -2.25783,-11.325606 -4.51679,-16.655437 -5.96043,-13.990522 -14.53103,-25.926198 -25.47121,-35.456948 -1.98073,-1.70249 -3.99795,-3.4791 -7.10758,-3.4791 -1.24067,0 -3.0914,0.31473 -4.96037,1.8131 -1.33303,1.09128 -5.33097,5.12572 -0.87006,11.7327 0.0741,0.11061 7.34933,13.416943 10.07012,32.477304 0.90655,6.272871 1.09242,14.008766 1.29539,22.188244 0.4071,16.561932 0.88831,35.308706 7.4417,49.520449 2.88728,6.236381 6.60812,11.843309 10.49546,16.710172 0.38884,0.481213 1.87011,2.035462 2.12896,2.350189 0.66595,0.777694 1.35128,1.554249 2.01722,2.294313 -7.16346,-0.611209 -13.30975,-2.49843 -19.41728,-5.921655 l -0.25885,-0.14824 C 250.45893,8.75286 236.02026,-13.417139 233.35535,-36.955516 l -0.35122,-3.072008 c -0.49946,-4.163289 -0.53709,-8.382454 -0.59182,-12.842225 -0.0183,-2.534919 -0.0559,-5.14396 -0.16649,-7.772385 -0.29648,-6.587598 -1.0183,-13.268702 -2.18484,-19.856301 -0.48122,-2.775526 -1.07418,-5.570437 -1.72188,-8.309473 l -0.0559,-0.204117 c -0.35122,-2.017216 -0.90655,-3.922682 -1.36952,-5.458686 -0.33297,-1.165402 -0.70358,-2.313699 -1.09242,-3.460856 -0.96243,-2.887273 -2.23958,-5.644563 -3.83146,-8.215963 -2.11072,-3.42323 -4.10969,-6.10639 -6.27515,-8.45658 -1.70249,-1.85073 -3.36849,-3.3491 -5.07212,-4.55213 l -0.25885,-0.16649 c -0.72182,-0.48121 -2.6843,-1.55425 -5.128,-1.55425 -1.2954,0 -2.53606,0.29648 -3.66497,0.88831 l -0.72182,0.44358 c -2.83254,1.99897 -4.53503,6.38462 -1.98073,11.64033 l 0.24061,0.44358 c 0.0559,0.0924 0.18473,0.35122 0.35122,0.72182 0.14824,0.35122 0.29648,0.7777 0.44472,1.23952 0.12999,0.4071 0.22236,0.87007 0.33297,1.49838 0.85182,4.570379 1.64776,15.470648 -2.49843,37.344166 l -0.22236,1.128911 c -0.46297,3.886193 -0.87006,6.828205 -1.33303,9.567241 -1.77661,10.473791 -3.64672,22.964799 -3.96145,36.325867 0,0.407092 0.0182,1.258907 0.0365,1.961341 l 0.0182,0.629454 c -0.0924,8.845421 1.25891,85.51334 76.94958,112.10548 l 0.0559,0.0182 -0.24061,0.0924 c -3.44261,22.04001 -3.68321,35.62344 -3.46199,42.24752 -16.4194,6.43936 -32.5788,14.17526 -47.99813,23.00243 -24.13818,13.21283 -46.53625,29.66415 -66.58298,48.87275 -4.05382,3.9033 -7.94115,7.81116 -11.86497,11.95506 -0.92594,0.96243 -1.83249,1.92485 -2.62843,2.79606 l -0.25885,0.27595 c -9.92188,10.67905 -18.88133,21.81764 -26.63661,33.10676 -0.24061,0.35122 -0.94418,1.48013 -1.22128,2.14607 -0.88831,2.03318 -1.83249,5.9399 0.0182,7.99475 1.11067,1.23952 3.29437,2.29431 7.42231,0.53709 0.20412,-0.0559 1.00006,-0.37061 1.2954,-0.53709 0.79594,-0.44358 1.98073,-1.18479 2.36957,-1.48241 25.06412,-19.16983 82.63177,-29.75651 99.44001,-30.73604 14.08631,-0.83243 28.06201,-2.88842 33.24588,-3.70147 2.81315,1.33417 8.31175,3.64787 14.51278,5.01511 2.62843,0.57358 5.46097,0.87006 8.44061,0.87006 2.59194,0 5.01625,-0.22008 7.08934,-0.5177 4.29443,13.56404 12.84679,22.87243 17.28945,27.03686 -0.27709,8.17948 1.11067,23.52241 7.23758,33.47622 4.998,8.16123 12.14321,14.39761 16.12291,17.50839 0,3.9033 0.33297,10.17845 2.29545,15.48776 1.74012,4.75625 4.68328,9.06778 6.86698,11.8969 -0.85182,2.27835 -1.70249,5.29676 -1.90661,8.68122 -0.2406,3.80979 0.6477,6.88408 1.75837,9.17839 -0.96243,1.73898 -1.87012,3.83032 -2.22133,5.92165 -0.48122,2.8679 0.11061,5.99578 0.77769,8.28895 -0.66594,1.46417 -1.36952,3.33314 -1.76065,5.10975 -0.51656,2.55431 -0.0912,5.10747 0.44473,7.01408 -1.97845,5.75517 -4.14619,17.20963 3.20428,23.4118 2.22133,1.8667 4.88853,2.84851 7.70055,2.84851 5.6457,0 10.23432,-4.01619 12.43969,-6.347 3.27612,-1.536 7.19881,-4.53389 9.42356,-7.97764 1.68311,-2.60904 2.49729,-5.12457 2.90438,-7.0289 1.48127,-1.48241 3.36735,-3.74023 5.06984,-6.97872 1.44592,-2.73676 2.09362,-5.08923 2.37072,-6.86584 3.202,-3.83032 10.29248,-13.23107 13.36335,-24.94552 l 0.7241,-3.2385 c 0.0741,-0.38657 0.14824,-0.79594 0.20183,-1.22128 1.68425,-10.62431 0.31701,-20.54049 -0.55305,-25.16788 2.49843,-4.47802 7.40406,-14.67471 7.99703,-26.49978 5.42333,-3.60909 14.88224,-9.43724 26.43363,-14.67471 0.44472,7.06881 0.57586,14.34174 -1.57363,25.37087 -2.64667,13.47167 -12.47619,24.61255 -17.41831,29.49766 -1.71959,1.68424 -5.96043,6.49523 -5.96043,6.49523 0,0 -1.62722,1.36952 -1.3125,4.16329 0.0171,0.16649 0.14824,0.6477 0.27596,0.99892 0.0559,0.12771 0.35122,0.55533 0.48121,0.66594 2.35133,2.27607 8.81121,1.44364 8.81121,1.44364 27.8214,-2.97965 46.66396,-26.35154 54.68038,-45.6525 4.998,-12.02804 9.51478,-28.07227 12.1968,-37.86187 16.12519,-2.92377 31.04393,-4.38565 41.16993,-5.38343 4.51678,-0.44586 8.08939,-0.79708 10.43958,-1.16768 6.16454,-0.90655 17.64067,-2.62729 18.36249,-13.50931 0.2406,-3.46086 -0.2771,-8.75078 -1.59188,-16.65544 z"
       id="path17"
       inkscape:connector-curvature="0"
       style="fill:#ffffff;stroke-width:1.1403147"
       inkscape:export-filename="C:\Users\suitedoalex\sites\minnesota-vikings-logo-4.png"
       inkscape:export-xdpi="88.62748"
       inkscape:export-ydpi="88.62748" />
  </g>
</svg>
