<?xml version="1.0" encoding="UTF-8" standalone="no"?>
<svg
   xmlns:dc="http://purl.org/dc/elements/1.1/"
   xmlns:cc="http://creativecommons.org/ns#"
   xmlns:rdf="http://www.w3.org/1999/02/22-rdf-syntax-ns#"
   xmlns:svg="http://www.w3.org/2000/svg"
   xmlns="http://www.w3.org/2000/svg"
   xmlns:sodipodi="http://sodipodi.sourceforge.net/DTD/sodipodi-0.dtd"
   xmlns:inkscape="http://www.inkscape.org/namespaces/inkscape"
   viewBox="0 0 500 500"
   version="1.1"
   id="svg20"
   sodipodi:docname="new-england-patriots-logo.svg"
   inkscape:export-filename="C:\Users\suitedoalex\sites\new-england-patriots-logo-0.png"
   inkscape:export-xdpi="786.43201"
   inkscape:export-ydpi="786.43201"
   inkscape:version="0.92.4 (5da689c313, 2019-01-14)">
  <metadata
     id="metadata26">
    <rdf:RDF>
      <cc:Work
         rdf:about="">
        <dc:format>image/svg+xml</dc:format>
        <dc:type
           rdf:resource="http://purl.org/dc/dcmitype/StillImage" />
        <dc:title>Logos/Clubs/NE/Primary</dc:title>
      </cc:Work>
    </rdf:RDF>
  </metadata>
  <defs
     id="defs24" />
  <sodipodi:namedview
     pagecolor="#ffffff"
     bordercolor="#666666"
     borderopacity="1"
     objecttolerance="10"
     gridtolerance="10"
     guidetolerance="10"
     inkscape:pageopacity="0"
     inkscape:pageshadow="2"
     inkscape:window-width="1600"
     inkscape:window-height="837"
     id="namedview22"
     showgrid="false"
     inkscape:zoom="0.472"
     inkscape:cx="-253.17797"
     inkscape:cy="250"
     inkscape:window-x="-8"
     inkscape:window-y="-8"
     inkscape:window-maximized="1"
     inkscape:current-layer="g18" />
  <title
     id="title2">Logos/Clubs/NE/Primary</title>
  <desc
     id="desc4">Created with Sketch.</desc>
  <g
     fill="none"
     id="g18">
    <path
       inkscape:connector-curvature="0"
       style="fill:#ffffff;stroke-width:0.82294571"
       d="m 441.90366,178.14851 c -49.5652,11.68748 -51.73037,-16.97325 -126.27279,-22.22858 -100.33766,-7.07487 -184.65339,36.57171 -252.034543,42.16445 -14.63856,1.21549 -12.74002,13.37945 -2.22031,15.44422 25.39611,5.9178 51.601993,5.16563 75.587573,1.95449 -0.80567,1.92981 -1.61462,4.90311 1.06489,7.18185 9.49926,8.0624 47.68724,8.75285 64.45229,7.78918 5.69231,-0.32424 17.84393,-1.4706 17.84393,-1.4706 -3.46543,0.32835 -8.88041,10.87276 2.56924,13.84195 70.76016,19.78032 104.05161,51.72214 142.27085,102.02799 15.53063,-1.98166 30.1552,-20.64031 23.91974,-34.88303 l 3.09839,-7.64434 11.43977,-5.2899 -3.27861,-25.51214 17.43904,-8.20065 c 0,0 27.15968,-72.88008 28.75043,-78.18725 1.59076,-5.30718 -1.70103,-7.67891 -4.63071,-6.98846"
       id="path8"
       inkscape:export-filename="C:\Users\suitedoalex\sites\new-england-patriots-logo-4.png"
       inkscape:export-xdpi="97.487373"
       inkscape:export-ydpi="97.487373" />
    <path
       inkscape:connector-curvature="0"
       style="fill:#c60c30;stroke-width:0.82294571"
       d="m 245.56198,188.17858 c -49.06074,2.89347 -107.9244,30.57737 -182.875833,18.2373 66.430653,-8.95283 117.074733,-30.89174 178.846683,-39.62731 l 4.02832,21.39001 z m 5.28742,28.62287 c -27.13581,3.19386 -58.61842,10.76907 -104.03762,2.2236 39.14917,-1.06324 68.45016,-14.14561 100.70387,-20.57446 l 3.33375,18.35169 z"
       id="path10"
       inkscape:export-filename="C:\Users\suitedoalex\sites\new-england-patriots-logo-4.png"
       inkscape:export-xdpi="97.487373"
       inkscape:export-ydpi="97.487373" />
    <path
       inkscape:connector-curvature="0"
       style="fill:#002244;stroke-width:0.82294571"
       d="m 253.74699,216.49779 c 19.88731,-2.1339 37.42757,-1.45744 56.54707,10.1823 -39.87583,-4.31964 -59.40022,6.80165 -84.254,9.27378 87.80501,23.00545 119.95174,72.16576 141.72442,99.40773 15.21956,-6.45683 16.0425,-19.66017 12.1656,-24.37318 l 3.91805,-8.38664 0.18022,-5.38618 10.49174,-4.89982 -3.31976,-26.0989 19.64536,-8.03442 26.02895,-71.14037 c -44.10166,9.13634 -58.39047,-19.3384 -121.13432,-23.22271 -25.55905,-1.58499 -48.57602,-0.41065 -70.18575,2.42029 l 3.52385,21.77679 c 14.44105,-0.49706 28.03529,1.33646 40.93414,7.19583 -14.18182,-0.87726 -26.94242,0.29709 -39.39111,2.60298 l 3.12637,18.68252"
       id="path12"
       inkscape:export-filename="C:\Users\suitedoalex\sites\new-england-patriots-logo-4.png"
       inkscape:export-xdpi="97.487373"
       inkscape:export-ydpi="97.487373" />
    <path
       inkscape:connector-curvature="0"
       style="fill:#b0b7bc;stroke-width:0.82294571"
       d="m 321.4853,276.52756 c 23.73293,16.59388 35.92323,34.97931 48.29293,51.07284 6.29059,-2.61038 8.26484,-9.89922 6.19349,-12.47504 l -5.9894,-7.36125 6.81234,0.40078 3.12637,-5.42404 -8.46893,-0.50035 -9.54123,1.71914 9.67619,-6.61566 7.36619,0.43122 0.27322,-4.18797 -7.52502,-3.59792 2.58652,-2.82435 13.9193,0.86656 -4.00116,-30.95016 c -5.50221,-0.66988 -10.12882,2.2096 -12.12775,10.15432 l -24.67356,-1.45003 c 3.47201,-7.85831 8.88041,-11.39368 19.14419,-10.08849 -5.75815,-8.0517 -33.81731,-8.79729 -37.7798,3.83575 l 21.78255,17.82336 2.81859,16.29021 -8.94953,-12.9688 c -8.04676,-6.95718 -16.49842,-11.83232 -22.93385,-4.15012"
       id="path14"
       inkscape:export-filename="C:\Users\suitedoalex\sites\new-england-patriots-logo-4.png"
       inkscape:export-xdpi="97.487373"
       inkscape:export-ydpi="97.487373" />
    <path
       inkscape:connector-curvature="0"
       style="fill:#ffffff;stroke-width:0.82294571"
       d="m 394.49293,196.71006 1.75288,15.54462 17.52545,6.5671 -16.43999,4.11226 1.62203,20.95796 -14.21639,-17.70897 -21.25669,4.9994 13.13422,-15.2747 -10.83079,-14.32913 18.14513,6.21818 10.56415,-11.08672"
       id="path16"
       inkscape:export-filename="C:\Users\suitedoalex\sites\new-england-patriots-logo-4.png"
       inkscape:export-xdpi="97.487373"
       inkscape:export-ydpi="97.487373" />
  </g>
</svg>
