<?xml version="1.0" encoding="UTF-8" standalone="no"?>
<svg
   xmlns:dc="http://purl.org/dc/elements/1.1/"
   xmlns:cc="http://creativecommons.org/ns#"
   xmlns:rdf="http://www.w3.org/1999/02/22-rdf-syntax-ns#"
   xmlns:svg="http://www.w3.org/2000/svg"
   xmlns="http://www.w3.org/2000/svg"
   xmlns:sodipodi="http://sodipodi.sourceforge.net/DTD/sodipodi-0.dtd"
   xmlns:inkscape="http://www.inkscape.org/namespaces/inkscape"
   viewBox="0 0 500 500"
   version="1.1"
   id="svg20"
   sodipodi:docname="new-orleans-saints-logo.svg"
   inkscape:export-filename="C:\Users\suitedoalex\sites\new-orleans-saints-logo-0.png"
   inkscape:export-xdpi="786.43201"
   inkscape:export-ydpi="786.43201"
   inkscape:version="0.92.4 (5da689c313, 2019-01-14)">
  <metadata
     id="metadata26">
    <rdf:RDF>
      <cc:Work
         rdf:about="">
        <dc:format>image/svg+xml</dc:format>
        <dc:type
           rdf:resource="http://purl.org/dc/dcmitype/StillImage" />
        <dc:title>Logos/Clubs/NO/Primary</dc:title>
      </cc:Work>
    </rdf:RDF>
  </metadata>
  <defs
     id="defs24" />
  <sodipodi:namedview
     pagecolor="#ffffff"
     bordercolor="#666666"
     borderopacity="1"
     objecttolerance="10"
     gridtolerance="10"
     guidetolerance="10"
     inkscape:pageopacity="0"
     inkscape:pageshadow="2"
     inkscape:window-width="1600"
     inkscape:window-height="837"
     id="namedview22"
     showgrid="false"
     inkscape:zoom="0.472"
     inkscape:cx="250"
     inkscape:cy="250"
     inkscape:window-x="-8"
     inkscape:window-y="-8"
     inkscape:window-maximized="1"
     inkscape:current-layer="g18" />
  <title
     id="title2">Logos/Clubs/NO/Primary</title>
  <desc
     id="desc4">Created with Sketch.</desc>
  <g
     fill="none"
     id="g18">
    <g
       transform="matrix(0.9032768,0,0,0.9032768,24.830252,24.245384)"
       id="g16"
       inkscape:export-filename="C:\Users\suitedoalex\sites\new-orleans-saints-logo-4.png"
       inkscape:export-xdpi="129.38733"
       inkscape:export-ydpi="129.38733">
      <path
         style="fill:#000000"
         inkscape:connector-curvature="0"
         d="m 379.249,208.298 c -29.501,-17.123 -58.539,-13.161 -80.561,-3.361 -0.972,-7.232 -2.861,-15.171 -6.015,-24.461 -4.67,-13.817 -9.789,-27.021 -14.299,-38.675 -5.931,-15.305 -10.445,-28.419 -12.922,-37.191 l -16.05,-54.951 -16.663,54.987 c -2.545,8.735 -6.939,21.918 -12.838,37.238 -4.485,11.662 -9.568,24.881 -14.209,38.697 -3.118,9.304 -5.003,17.25 -5.953,24.493 -22.047,-9.757 -51.099,-13.661 -80.561,3.527 -24.085,14.07 -36.981,38.516 -33.664,63.81 3.027,23.012 18.781,41.091 41.1,47.219 l 16.623,4.56 4.068,-16.728 c 0.584,-2.271 6.58,-23.215 25.463,-22.834 13.099,0.272 23.972,11.836 29.411,19.314 -1.758,5.288 -2.694,11.625 -1.798,18.452 l -7.396,-9.851 -13.375,9.959 c -12.044,8.96 -29.534,31.106 -18.726,57.244 4.713,11.397 14.847,19.162 28.53,21.886 8.368,1.662 17.874,1.275 26.684,-0.659 3.466,11.115 9.785,24.562 21.279,36.571 l 12.124,12.654 12.084,-12.683 c 11.471,-12.038 17.751,-25.507 21.206,-36.626 8.814,1.901 18.313,2.271 26.681,0.587 13.676,-2.745 23.788,-10.539 28.479,-21.947 10.75,-26.166 -6.805,-48.273 -18.86,-57.204 l -13.4,-9.92 -7.371,9.862 c 0.885,-6.827 -0.073,-13.157 -1.842,-18.456 5.424,-7.482 16.268,-19.075 29.364,-19.372 18.886,-0.424 24.922,20.506 25.553,22.896 l 4.101,16.721 c -0.025,-0.127 16.583,-4.723 16.583,-4.723 22.316,-6.171 38.014,-24.298 40.987,-47.324 3.259,-25.286 -9.698,-49.707 -33.816,-63.712"
         id="path8" />
      <path
         style="fill:#ffffff"
         inkscape:connector-curvature="0"
         d="m 243.87,106.997 c -2.034,9.568 -7.277,23.186 -13.349,38.965 -4.449,11.553 -9.485,24.645 -14.042,38.226 -4.372,13.049 -6.156,22.773 -6.156,31.841 0,2.901 0.334,5.737 0.674,8.587 -16.812,-11.531 -49.939,-27.296 -86.068,-6.204 -20.068,11.723 -30.847,31.838 -28.135,52.514 2.415,18.391 14.995,32.863 32.837,37.759 l 5.293,1.449 1.316,-5.338 c 0.33,-1.307 8.277,-32.091 36.756,-31.519 22.921,0.46 37.902,22.719 41.948,29.56 -1.925,3.556 -3.524,8.46 -3.524,14.088 0,6.034 2.056,12.897 7.302,19.778 -2.092,2.832 -5.518,6.305 -9.517,6.635 -5.703,0.467 -11.475,-5.53 -15.311,-10.651 l -3.201,-4.266 -4.282,3.191 c -8.759,6.523 -23.182,24.066 -15.021,43.8 3.267,7.888 10.264,13.099 20.238,15.08 10.311,2.043 23.327,0.185 32.572,-4.024 1.791,10.419 6.863,28.053 21.398,43.224 l 3.879,4.053 3.869,-4.06 c 14.499,-15.214 19.531,-32.863 21.297,-43.289 9.26,4.187 22.294,6.019 32.605,3.94 9.956,-2.003 16.939,-7.236 20.18,-15.124 8.103,-19.749 -6.341,-37.263 -15.115,-43.764 l -4.285,-3.176 -3.194,4.281 c -3.829,5.121 -9.59,11.14 -15.296,10.68 -3.995,-0.326 -7.429,-3.785 -9.528,-6.606 5.21,-6.87 7.251,-13.708 7.251,-19.727 0,-5.661 -1.613,-10.582 -3.557,-14.15 4.032,-6.845 18.969,-29.154 41.879,-29.665 28.475,-0.637 36.502,30.132 36.829,31.443 l 1.331,5.317 5.293,-1.449 c 17.823,-4.936 30.372,-19.43 32.743,-37.828 2.668,-20.683 -8.154,-40.78 -28.247,-52.452 -36.202,-21.027 -69.314,-5.15 -86.086,6.425 0.312,-2.774 0.634,-5.527 0.634,-8.355 0,-9.166 -1.773,-19.05 -6.182,-32.084 -4.586,-13.556 -9.651,-26.626 -14.122,-38.161 -6.113,-15.769 -11.384,-29.386 -13.44,-38.954 l -5.264,-24.533 -5.203,24.544"
         id="path10" />
      <path
         style="fill:#000000"
         inkscape:connector-curvature="0"
         d="m 249.5,425.994 c 20.503,-21.513 20.749,-48.646 20.749,-48.646 9.071,9.032 44.323,15.073 52.227,-4.165 8.669,-21.121 -13.349,-37.44 -13.349,-37.44 -21.34,28.575 -35.658,0.608 -35.658,0.608 16.25,-17.543 4.057,-33.359 4.057,-33.359 1.062,-3.176 19.085,-34.605 47.941,-35.249 33.258,-0.75 42.144,35.503 42.144,35.503 34.875,-9.655 41.611,-58.221 3.234,-80.505 -48.699,-28.285 -91.129,14.805 -91.129,14.805 3.948,-16.127 5.072,-28.18 -2.89,-51.731 -10.793,-31.932 -24.023,-60.463 -27.721,-77.706 -3.665,17.246 -16.837,45.825 -27.551,77.778 -7.9,23.573 -6.74,35.626 -2.77,51.739 0,0 -42.528,-42.985 -91.158,-14.592 -38.33,22.378 -31.477,70.919 3.419,80.494 0,0 8.799,-36.271 42.06,-35.593 28.863,0.572 46.951,31.957 48.021,35.126 0,0 -12.157,15.852 4.137,33.352 0,0 -14.259,28.013 -35.654,-0.514 0,0 -21.996,16.366 -13.27,37.466 7.955,19.22 43.184,13.096 52.234,4.042 0,0 0.312,27.133 20.854,48.595"
         id="path12" />
      <path
         style="fill:#d3bc8d"
         inkscape:connector-curvature="0"
         d="m 336.736,221.223 c -39.631,0.04 -72.128,44.999 -72.128,44.999 1.41,-7.356 18.353,-40.454 3.02,-80.013 -15.333,-39.556 -18.462,-55.491 -18.462,-55.491 l -0.073,0.453 v -0.442 c 0,0 -3.1,15.939 -18.338,55.538 -15.242,39.595 1.784,72.657 3.205,79.998 0,0 -32.601,-44.876 -72.233,-44.825 -39.624,0.043 -72.617,45.093 -35.998,71.698 0,0 10.717,-33.239 47.651,-33.308 27.163,-0.058 54.377,29.049 55.53,43.474 0,0 -12.436,17.54 4.855,32.218 0,0 -18.679,39.251 -44.577,10.977 0,0 -19.915,24.888 6.127,30.914 20.662,4.773 41.013,-16.163 41.013,-16.163 0,0 -2.219,33.073 13.085,51.148 v -0.163 l 0.076,0.156 c 15.264,-18.108 12.965,-51.185 12.965,-51.185 0,0 20.401,20.893 41.063,16.066 26.024,-6.084 6.047,-30.929 6.047,-30.929 -25.825,28.332 -44.588,-10.869 -44.588,-10.869 17.243,-14.722 4.764,-32.229 4.764,-32.229 1.117,-14.414 28.254,-43.594 55.428,-43.601 36.941,0 47.735,33.203 47.735,33.203 36.557,-26.688 3.455,-71.676 -36.169,-71.625"
         id="path14" />
    </g>
  </g>
</svg>
