<?xml version="1.0" encoding="UTF-8" standalone="no"?>
<svg
   xmlns:dc="http://purl.org/dc/elements/1.1/"
   xmlns:cc="http://creativecommons.org/ns#"
   xmlns:rdf="http://www.w3.org/1999/02/22-rdf-syntax-ns#"
   xmlns:svg="http://www.w3.org/2000/svg"
   xmlns="http://www.w3.org/2000/svg"
   xmlns:sodipodi="http://sodipodi.sourceforge.net/DTD/sodipodi-0.dtd"
   xmlns:inkscape="http://www.inkscape.org/namespaces/inkscape"
   viewBox="0 0 500 500"
   version="1.1"
   id="svg24"
   sodipodi:docname="pittsburgh-steelers-logo.svg"
   inkscape:export-filename="C:\Users\suitedoalex\sites\ pittsburgh-steelers-logo-0.png"
   inkscape:export-xdpi="786.43201"
   inkscape:export-ydpi="786.43201"
   inkscape:version="0.92.4 (5da689c313, 2019-01-14)">
  <metadata
     id="metadata30">
    <rdf:RDF>
      <cc:Work
         rdf:about="">
        <dc:format>image/svg+xml</dc:format>
        <dc:type
           rdf:resource="http://purl.org/dc/dcmitype/StillImage" />
        <dc:title>Logos/Clubs/PIT/Primary</dc:title>
      </cc:Work>
    </rdf:RDF>
  </metadata>
  <defs
     id="defs28" />
  <sodipodi:namedview
     pagecolor="#ffffff"
     bordercolor="#666666"
     borderopacity="1"
     objecttolerance="10"
     gridtolerance="10"
     guidetolerance="10"
     inkscape:pageopacity="0"
     inkscape:pageshadow="2"
     inkscape:window-width="1600"
     inkscape:window-height="837"
     id="namedview26"
     showgrid="false"
     inkscape:zoom="0.6675088"
     inkscape:cx="564.97845"
     inkscape:cy="76.285504"
     inkscape:window-x="-8"
     inkscape:window-y="-8"
     inkscape:window-maximized="1"
     inkscape:current-layer="g22" />
  <title
     id="title2">Logos/Clubs/PIT/Primary</title>
  <desc
     id="desc4">Created with Sketch.</desc>
  <g
     fill="none"
     id="g22">
    <path
       inkscape:connector-curvature="0"
       style="fill:#000000;stroke-width:0.95287347"
       d="m 78.648575,249.9981 c 0,94.48502 76.866405,171.35142 171.351425,171.35142 94.48122,0 171.35142,-76.8664 171.35142,-171.35142 0,-94.48122 -76.8702,-171.347619 -171.35142,-171.347619 -94.48502,0 -171.351425,76.866399 -171.351425,171.347619"
       id="path8"
       inkscape:export-filename="C:\Users\suitedoalex\sites\ pittsburgh-steelers-logo-4.png"
       inkscape:export-xdpi="112.05044"
       inkscape:export-ydpi="112.05044" />
    <path
       inkscape:connector-curvature="0"
       style="fill:#a5acaf;stroke-width:0.95287347"
       d="m 250,417.59139 c 92.55356,0 167.58948,-75.03593 167.58948,-167.59329 0,-92.55356 -75.03592,-167.589486 -167.58948,-167.589486 -92.55736,0 -167.593292,75.035926 -167.593292,167.589486 0,92.55736 75.035932,167.59329 167.593292,167.59329"
       id="path10"
       inkscape:export-filename="C:\Users\suitedoalex\sites\ pittsburgh-steelers-logo-4.png"
       inkscape:export-xdpi="112.05044"
       inkscape:export-ydpi="112.05044" />
    <path
       inkscape:connector-curvature="0"
       style="fill:#ffffff;stroke-width:0.95287347"
       d="m 249.90637,390.21438 c 77.20942,0 139.80369,-62.59426 139.80369,-139.80369 0,-77.20943 -62.59427,-139.8075 -139.80369,-139.8075 -77.21324,0 -139.8075,62.59807 -139.8075,139.8075 0,77.20943 62.59426,139.80369 139.8075,139.80369"
       id="path12"
       inkscape:export-filename="C:\Users\suitedoalex\sites\ pittsburgh-steelers-logo-4.png"
       inkscape:export-xdpi="112.05044"
       inkscape:export-ydpi="112.05044" />
    <path
       inkscape:connector-curvature="0"
       style="fill:#ffb612;stroke-width:0.95287347"
       d="m 250.72514,250.59936 c 1.61512,-57.26388 55.70688,-70.70702 69.29676,-69.474 -33.50207,-1.81904 -66.56393,-15.97588 -69.11954,-68.95374 -4.03541,49.26546 -23.80467,63.2727 -69.36251,69.11954 32.54158,1.64942 65.48146,14.52655 69.18528,69.3082"
       id="path14"
       inkscape:export-filename="C:\Users\suitedoalex\sites\ pittsburgh-steelers-logo-4.png"
       inkscape:export-xdpi="112.05044"
       inkscape:export-ydpi="112.05044" />
    <path
       inkscape:connector-curvature="0"
       style="fill:#c60c30;stroke-width:0.95287347"
       d="m 320.21438,321.47599 c 1.61512,-57.26388 54.75403,-71.39309 68.34866,-70.16007 -33.61356,-1.24064 -65.98934,-17.21747 -68.54114,-70.19056 -4.03541,49.27022 -23.73894,63.62717 -69.29676,69.474 32.54158,1.64942 65.78162,16.09594 69.48925,70.87663"
       id="path16"
       inkscape:export-filename="C:\Users\suitedoalex\sites\ pittsburgh-steelers-logo-4.png"
       inkscape:export-xdpi="112.05044"
       inkscape:export-ydpi="112.05044" />
    <path
       inkscape:connector-curvature="0"
       style="fill:#00539b;stroke-width:0.95287347"
       d="m 251.56461,389.63217 c 1.61131,-57.2715 55.05514,-69.38919 68.64882,-68.15618 -33.50207,-1.82284 -66.93365,-17.89591 -69.48925,-70.87663 -4.03541,49.27023 -23.21867,64.07026 -68.77268,69.91328 32.53777,1.65705 65.90454,14.3417 69.61311,69.11953"
       id="path18"
       inkscape:export-filename="C:\Users\suitedoalex\sites\ pittsburgh-steelers-logo-4.png"
       inkscape:export-xdpi="112.05044"
       inkscape:export-ydpi="112.05044" />
    <path
       inkscape:connector-curvature="0"
       style="fill:#000000;stroke-width:0.95287347"
       d="m 211.77262,238.35779 5.45806,-0.0581 0.0229,2.63279 c 0.82138,-1.44551 1.31402,-2.30881 3.17212,-2.72522 h 1.35689 v 6.38616 c -4.69862,-0.3316 -4.38607,1.31401 -4.44801,2.57847 v 12.15295 h -5.56192 z m 24.5908,6.83782 -4.87204,-0.0229 c 0,-0.50503 0.0114,-0.94811 -0.081,-1.33403 -0.13531,-0.53932 -0.8557,-1.05197 -1.58844,-1.05959 -0.86331,0 -1.53032,0.27728 -1.81904,1.11391 -0.34685,1.01004 -0.18486,2.49748 2.44317,2.79477 l 1.33783,0.3316 c 1.49125,0.50122 2.93295,0.91762 4.05448,3.05682 0.18867,0.36591 0.22011,0.48597 0.52027,1.53413 0.63556,2.1735 0.2163,3.8315 -0.49359,5.12646 -0.43165,0.77468 -1.49125,1.73804 -1.86954,1.9734 -2.06202,1.27208 -4.84441,1.40644 -7.37333,0.63938 -1.24065,-0.37734 -2.59373,-1.32545 -3.26455,-2.62898 -0.69369,-1.34546 -0.70894,-2.44793 -0.79755,-4.26697 l 4.71005,-0.0305 c -0.0962,0.73657 0.35828,1.58844 1.08723,1.86573 0.73657,0.28872 2.57466,0.3011 2.89864,-0.52408 0.22774,-0.58221 0.37353,-0.89761 -0.1315,-1.65705 -0.92143,-1.3912 -2.89101,-1.61893 -4.62143,-2.0544 -3.09494,-0.78231 -3.84675,-3.781 -3.71145,-6.05551 0.0658,-1.07579 0.25823,-2.31643 0.93668,-3.15306 1.43026,-1.76948 2.05439,-1.68087 2.91007,-2.09251 2.84814,-1.38357 6.39093,-0.40116 8.27952,1.51507 1.05959,1.06722 1.40644,3.033 1.44551,4.92922 z m -90.34478,-6.71394 h -3.862 l -2.10013,0.0152 c -0.0505,-0.92143 -0.18867,-2.11633 -0.79755,-2.67471 -0.90238,-0.82138 -2.94438,-0.36591 -3.48467,0.77468 -0.97859,2.05059 0.27348,3.9773 3.42653,4.98353 l 0.86711,0.43165 c 2.97964,1.45314 3.80388,2.16589 4.91778,3.73908 0.33542,0.47453 0.99099,1.71136 1.25684,3.22262 0.56696,3.23024 -0.24679,5.23413 -0.97478,7.00362 0,0 -0.27729,0.83662 -1.04435,1.54937 -3.12924,2.92151 -7.46577,3.04919 -10.68076,1.52269 -1.47982,-0.70894 -2.62135,-1.39501 -3.43416,-3.22262 -0.80137,-1.79235 -0.98241,-3.41891 -0.75182,-6.06313 l 6.0012,-0.0343 c -0.11148,0.84043 0.13532,2.96439 0.6975,3.55326 0.55934,0.58602 2.8329,1.15584 3.70764,-0.39354 0.30873,-0.54313 0.38496,-2.90626 -0.57078,-3.8153 -1.79997,-1.73042 -3.35316,-1.90384 -5.4733,-3.23024 -3.02537,-1.8886 -4.63287,-5.27702 -4.44039,-8.49106 0.0924,-1.52269 0.50883,-2.58228 1.24922,-3.91631 0.74038,-1.31782 1.78854,-2.52035 3.30361,-3.18355 4.03161,-1.76948 8.95701,-0.75944 11.12765,3.07207 0.57079,1.00242 1.14059,2.49748 1.0596,5.15695 z m 3.06443,-0.10768 v -1.93528 l 5.62005,-3.0835 0.0229,5.08739 2.1392,-0.0467 0.0229,4.96066 -2.16207,-0.0343 v 8.2557 c 0,1.12916 -0.20392,1.57986 2.06202,1.54556 l -0.004,6.2823 c -2.67471,-0.0657 -7.73923,0.84424 -7.76306,-5.06453 l -0.0419,-11.12765 -2.09632,0.0696 -0.0229,-4.8406 2.224,-0.0696 z m 39.70719,-8.41387 5.66198,0.0153 v 29.53145 h -5.66198 v -29.54765 z m 11.96809,23.43402 c 0.008,1.88097 4.11642,2.26593 4.21647,-0.10387 v -0.59745 l 4.62524,-0.0229 0.008,2.4708 c 0.0467,1.64181 -0.63557,3.42654 -3.41129,4.38227 -2.94438,0.91762 -4.78342,0.3659 -6.50622,0 -2.26212,-0.829 -3.36078,-2.62898 -3.46465,-5.16457 v -10.2291 c -0.10386,-1.91909 0.96336,-3.59233 2.81765,-4.81011 3.16068,-1.37976 4.88729,-1.01004 7.26185,-0.18867 2.26212,1.23302 3.2836,2.75953 3.30742,4.8911 v 6.49098 h -8.8722 l 0.019,2.88339 z m 0.20011,-7.26566 c -0.70132,-4.12404 5.04927,-3.65046 4.18597,0.0152 z m -22.7289,7.26566 c 0.0114,1.88097 4.12023,2.26593 4.22409,-0.10387 v -0.59745 l 4.62144,-0.0229 0.0114,2.4708 c 0.0381,1.64181 -0.63937,3.42654 -3.4151,4.38227 -2.94437,0.91762 -4.78342,0.3659 -6.50622,0 -2.26212,-0.829 -3.36078,-2.62898 -3.46464,-5.16457 v -10.2291 c -0.10387,-1.91909 0.96716,-3.59233 2.81764,-4.81011 3.16068,-1.37976 4.8911,-1.01004 7.25804,-0.18867 2.26593,1.23302 3.2836,2.75953 3.31124,4.8911 v 6.49098 h -8.84934 l -0.008,2.88339 z m 0.20392,-7.26566 c -0.70132,-4.12404 5.04928,-3.65046 4.18597,0.0152 z m -15.54423,7.26566 c 0.0114,1.88097 4.12023,2.26593 4.22409,-0.10387 v -0.59745 l 4.62144,-0.0229 0.0114,2.4708 c 0.0419,1.64181 -0.63937,3.42654 -3.4151,4.38227 -2.94437,0.91762 -4.78723,0.3659 -6.50622,0 -2.26212,-0.829 -3.36078,-2.62898 -3.46464,-5.16457 v -10.2291 c -0.10387,-1.91909 0.96716,-3.59233 2.81764,-4.81011 3.15687,-1.37976 4.8911,-1.01004 7.25804,-0.18867 2.26593,1.23302 3.2836,2.75953 3.31124,4.8911 v 6.49098 h -8.84934 l -0.008,2.88339 z m 0.20392,-7.26566 c -0.70132,-4.12404 5.04928,-3.65046 4.18597,0.0152 z"
       id="path20"
       inkscape:export-filename="C:\Users\suitedoalex\sites\ pittsburgh-steelers-logo-4.png"
       inkscape:export-xdpi="112.05044"
       inkscape:export-ydpi="112.05044" />
    <path
       style="fill:#ffffff;stroke:none;stroke-width:0.06689315px;stroke-linecap:butt;stroke-linejoin:miter;stroke-opacity:1"
       d="m 200.91444,246.10118 4.22999,0.0425 c 0.0642,-0.32228 0.4511,-2.61326 -2.03727,-2.9751 -0.36351,0.0157 -0.66936,0.0778 -0.92643,0.17379 -0.33668,0.12582 -0.58969,0.30996 -0.77894,0.52437 -0.32716,0.37063 -0.46387,0.83174 -0.51307,1.23868 -0.0661,0.54684 0.0256,0.99581 0.0256,0.99581 z"
       id="path832"
       inkscape:connector-curvature="0"
       sodipodi:nodetypes="cccsssc"
       inkscape:export-filename="C:\Users\suitedoalex\sites\ pittsburgh-steelers-logo-4.png"
       inkscape:export-xdpi="112.05044"
       inkscape:export-ydpi="112.05044" />
    <path
       style="fill:#ffffff;stroke:none;stroke-width:0.06689315px;stroke-linecap:butt;stroke-linejoin:miter;stroke-opacity:1"
       d="m 178.43348,246.12848 4.22999,0.0425 c 0.0642,-0.32228 0.4511,-2.61326 -2.03727,-2.9751 -0.36351,0.0157 -0.66936,0.0778 -0.92643,0.17379 -0.33668,0.12582 -0.58969,0.30996 -0.77894,0.52437 -0.32716,0.37063 -0.46387,0.83174 -0.51307,1.23868 -0.0661,0.54684 0.0256,0.99581 0.0256,0.99581 z"
       id="path832-2"
       inkscape:connector-curvature="0"
       sodipodi:nodetypes="cccsssc"
       inkscape:export-filename="C:\Users\suitedoalex\sites\ pittsburgh-steelers-logo-4.png"
       inkscape:export-xdpi="112.05044"
       inkscape:export-ydpi="112.05044" />
    <path
       style="fill:#ffffff;stroke:none;stroke-width:0.06689315px;stroke-linecap:butt;stroke-linejoin:miter;stroke-opacity:1"
       d="m 163.04915,246.10118 4.22999,0.0425 c 0.0642,-0.32228 0.4511,-2.61326 -2.03727,-2.9751 -0.36351,0.0157 -0.66936,0.0778 -0.92643,0.17379 -0.33668,0.12582 -0.58969,0.30996 -0.77894,0.52437 -0.32716,0.37063 -0.46387,0.83174 -0.51307,1.23868 -0.0661,0.54684 0.0256,0.99581 0.0256,0.99581 z"
       id="path832-4"
       inkscape:connector-curvature="0"
       sodipodi:nodetypes="cccsssc"
       inkscape:export-filename="C:\Users\suitedoalex\sites\ pittsburgh-steelers-logo-4.png"
       inkscape:export-xdpi="112.05044"
       inkscape:export-ydpi="112.05044" />
  </g>
</svg>
