<?xml version="1.0" encoding="UTF-8" standalone="no"?>
<svg
   xmlns:dc="http://purl.org/dc/elements/1.1/"
   xmlns:cc="http://creativecommons.org/ns#"
   xmlns:rdf="http://www.w3.org/1999/02/22-rdf-syntax-ns#"
   xmlns:svg="http://www.w3.org/2000/svg"
   xmlns="http://www.w3.org/2000/svg"
   xmlns:sodipodi="http://sodipodi.sourceforge.net/DTD/sodipodi-0.dtd"
   xmlns:inkscape="http://www.inkscape.org/namespaces/inkscape"
   enable-background="new 0 0 500 500"
   viewBox="0 0 700 700"
   version="1.1"
   id="svg30"
   sodipodi:docname="tennessee-titans-logo.svg"
   width="700"
   height="700"
   inkscape:export-filename="C:\Users\suitedoalex\sites\tennessee-titans-logo-0.png"
   inkscape:export-xdpi="561.73712"
   inkscape:export-ydpi="561.73712"
   inkscape:version="0.92.4 (5da689c313, 2019-01-14)">
  <metadata
     id="metadata36">
    <rdf:RDF>
      <cc:Work
         rdf:about="">
        <dc:format>image/svg+xml</dc:format>
        <dc:type
           rdf:resource="http://purl.org/dc/dcmitype/StillImage" />
        <dc:title></dc:title>
      </cc:Work>
    </rdf:RDF>
  </metadata>
  <defs
     id="defs34" />
  <sodipodi:namedview
     pagecolor="#ffffff"
     bordercolor="#666666"
     borderopacity="1"
     objecttolerance="10"
     gridtolerance="10"
     guidetolerance="10"
     inkscape:pageopacity="0"
     inkscape:pageshadow="2"
     inkscape:window-width="1600"
     inkscape:window-height="837"
     id="namedview32"
     showgrid="false"
     inkscape:zoom="0.472"
     inkscape:cx="250"
     inkscape:cy="250"
     inkscape:window-x="-8"
     inkscape:window-y="-8"
     inkscape:window-maximized="1"
     inkscape:current-layer="svg30" />
  <path
     d="m 243.49975,379.48763 c 0.5,5.9 2.6,17.5 9.3,30.6 8.3,16.1 25.8,37.6 61.9,49.7 5.7,9 12.5,17.4 20.1,25 27.4,27.3 63.8,42.4 102.5,42.3 38.7,-0.1 75.1,-15.2 102.4,-42.6 27.3,-27.4 42.4,-63.8 42.3,-102.5 -0.1,-38.7 -15.2,-75.1 -42.6,-102.4 -21.7,-21.7 -49,-35.6 -78.9,-40.4 -40.6,-36.7 -87.9,-23.6 -90,-23 -0.7,0.2 -1.7,0.5 -3,0.9 -14.6,4.8 -22.1,-0.7 -27,-4.5 -5.4,-4.2 -11.3,-8.5 -17,-11.8 -19.4,-10.9 -46.9,-11.3 -70,-1.9 -15.3,5.2 -23,-1.5 -27.5,-4.7 -30.2,-20.9 -67.4,-25.9 -106.8,-17.2 -26.6,5.8 -37.199997,11.2 -37.199997,11.2 0,0 18.199997,2.6 37.199997,10.6 15.6,6.5 28,14.9 37.4,29.9 0,0 5.9,8.7 2.1,11.2 -4.3,2.9 -8.8,-4.1 -8.8,-4.1 -0.1,5 -0.1,10.1 0.2,13.9 2.2,40.1 10.4,64.2 29.7,82.5 8.8,8.4 23.6,16.5 46.6,25.5 10.4,4.2 16,9.6 17.1,21.8"
     id="path2"
     inkscape:connector-curvature="0"
     style="fill:#ffffff"
     inkscape:export-filename="C:\Users\suitedoalex\sites\tennessee-titans-logo-4.png"
     inkscape:export-xdpi="76.799927"
     inkscape:export-ydpi="76.799927" />
  <path
     d="m 532.89975,286.08763 c -21,-21 -47.7,-34.2 -76.6,-38.3 -37.7,-36 -83.2,-22.8 -83.2,-22.8 9.7,1.4 16.1,7.2 13.6,13.6 -1.6,4.2 -8.6,4.4 -11.9,4.5 -10.2,0.1 -19,-6.1 -26,-11.8 -7.3,-5.9 -19.2,-16.5 -29.8,-22.4 -19.8,-11.2 -51.4,-9.8 -74.2,4.8 13.6,0.9 30,4.9 39.8,13 5.5,4.5 12.4,13.6 6.7,17.9 -5,3.7 -17.3,1.8 -23.6,-1.8 -9.9,-5.8 -18.9,-14.5 -24.3,-20.8 -35.9,-42.7 -87.1,-45.1 -129.2,-34.7 27.7,7.8 46.2,23.5 57.6,50.7 11.4,27.2 20.3,38.8 39.1,46.1 11.8,4.6 15,5.5 14,10.7 -1.4,7.6 -15.3,4 -25.9,-0.2 -13,-5.1 -30,-19 -40.2,-45.2 1.9,33.9 8.3,57.9 27.4,76.1 8.1,7.7 23,15.7 46.4,24.7 14.9,5.7 26.7,9.2 37.8,19.1 12.9,11.6 7.4,19.2 -1.2,17.8 -9.7,-1.6 -16.6,-11.6 -16.6,-11.6 0,0 0,55.2 68.3,76.5 5.7,9.4 12.6,18.2 20.6,26.2 25.7,25.6 59.8,39.6 96,39.6 36.2,-0.1 70.3,-14.2 95.9,-39.9 25.6,-25.7 39.7,-59.8 39.6,-96 -0.3,-36.2 -14.5,-70.2 -40.1,-95.8"
     id="path4"
     inkscape:connector-curvature="0"
     style="fill:#002a5c"
     inkscape:export-filename="C:\Users\suitedoalex\sites\tennessee-titans-logo-4.png"
     inkscape:export-xdpi="76.799927"
     inkscape:export-ydpi="76.799927" />
  <path
     d="m 525.69975,292.98763 c -20.4,-20.4 -46.5,-32.8 -74.7,-35.9 -24.3,-24.2 -48.5,-23.1 -48.5,-23.1 10.6,6.7 5.1,21.5 -18.5,24.8 -23.4,3.2 -53.2,-4.7 -67.6,-21.6 -14.9,-17.4 -26.2,-18.2 -26.2,-18.2 12.9,8.1 13.9,17.8 21.7,32.6 7.9,14.8 24,20.1 38.1,21 14.9,1 15.2,7.7 3.2,14.8 -13.1,7.7 -24.6,0.4 -33,-7.8 -13.3,-13.1 -26.5,-15.6 -44.7,-15.4 -18.3,0.2 -42.4,2.6 -62.8,-5 -20.4,-7.6 -33.8,-34.4 -33.8,-34.4 10.1,35.6 32.5,52.5 53.2,56.5 27.5,5.4 46.4,11.9 58,21.3 11.3,9.2 17.4,18.4 21.6,31 3.3,9.8 3.9,22.7 0.6,23.5 -3.8,0.9 -4.6,-4.3 -9,-13.4 -4.9,-10 -10.8,-17.9 -22.7,-24.2 -16.1,-8.6 -31.8,-8.1 -47.8,-7.9 -12.7,0.2 -20.2,-1.3 -20.2,-1.3 0,0 0.5,1.7 21.2,6.4 23.1,5.2 45.4,18.2 60.2,49.9 12.6,27 6,45.9 -21.9,37.3 0,0 13.1,29.1 55.8,39.4 5.5,9.7 12.4,18.7 20.5,26.8 23.7,23.7 55.1,36.7 88.6,36.7 33.5,0 64.9,-13 88.6,-36.7 23.7,-23.7 36.7,-55.1 36.7,-88.6 0,-33.4 -13,-64.9 -36.6,-88.5"
     id="path6"
     inkscape:connector-curvature="0"
     style="fill:#4495d1"
     inkscape:export-filename="C:\Users\suitedoalex\sites\tennessee-titans-logo-4.png"
     inkscape:export-xdpi="76.799927"
     inkscape:export-ydpi="76.799927" />
  <path
     d="m 437.09975,262.38763 c 31.8,0 61.8,12.4 84.3,34.9 22.5,22.5 34.9,52.4 34.9,84.3 0,65.7 -53.5,119.2 -119.2,119.2 -31.8,0 -61.8,-12.4 -84.3,-34.9 -22.5,-22.5 -34.9,-52.4 -34.9,-84.3 0,-31.8 12.4,-61.8 34.9,-84.3 22.5,-22.5 52.4,-34.9 84.3,-34.9"
     id="path8"
     inkscape:connector-curvature="0"
     style="fill:#ffffff"
     inkscape:export-filename="C:\Users\suitedoalex\sites\tennessee-titans-logo-4.png"
     inkscape:export-xdpi="76.799927"
     inkscape:export-ydpi="76.799927" />
  <path
     d="m 437.19975,490.38763 c -60.1,0.1 -108.9,-48.6 -109,-108.7 -0.1,-60.1 48.6,-108.9 108.7,-109 60.1,-0.1 108.9,48.6 109,108.7 0.1,60.1 -48.5,109 -108.7,109"
     id="path10"
     inkscape:connector-curvature="0"
     style="fill:#002a5c"
     inkscape:export-filename="C:\Users\suitedoalex\sites\tennessee-titans-logo-4.png"
     inkscape:export-xdpi="76.799927"
     inkscape:export-ydpi="76.799927" />
  <path
     d="m 410.39975,359.48763 h -32.2 l -10.7,19 -14.3,-40.6 h 167.4 l -14.3,40.6 -10.5,-19 h -31.8 l -26.8,117.6 z"
     id="path12"
     inkscape:connector-curvature="0"
     style="fill:#ffffff"
     inkscape:export-filename="C:\Users\suitedoalex\sites\tennessee-titans-logo-4.png"
     inkscape:export-xdpi="76.799927"
     inkscape:export-ydpi="76.799927" />
  <path
     d="m 520.59975,337.88763 h -167.4 l 2.8,7.7 h 79.8 l -25.4,13.9 26.8,117.6 v -131.5 h 80.7 z"
     id="path14"
     inkscape:connector-curvature="0"
     style="fill:#bbc4ca"
     inkscape:export-filename="C:\Users\suitedoalex\sites\tennessee-titans-logo-4.png"
     inkscape:export-xdpi="76.799927"
     inkscape:export-ydpi="76.799927" />
  <g
     id="g28"
     style="fill:#da2128"
     transform="translate(81.999753,99.987629)"
     inkscape:export-filename="C:\Users\suitedoalex\sites\tennessee-titans-logo-4.png"
     inkscape:export-xdpi="76.799927"
     inkscape:export-ydpi="76.799927">
    <path
       d="m 272.9,143.9 c -24.3,-0.7 -34.2,-10.3 -49.2,-22.4 -18.4,-14.8 -38.9,-10.7 -38.9,-10.7 12.3,-7 36.3,-7.3 53.7,7.9 15.5,13.6 23.1,21 34.4,25.2"
       id="path16"
       inkscape:connector-curvature="0" />
    <path
       d="m 65.8,90.5 c 0,0 22.7,-0.5 42.5,35.1 16.7,29.9 48.5,35.9 71.8,29.3 0,0 -30.7,-0.8 -47.5,-30.5 C 115.5,93.9 92.8,85.5 65.8,90.5"
       id="path18"
       inkscape:connector-curvature="0" />
    <path
       d="m 194.3,262.9 c 0,0 -3.2,-33.1 -50.4,-42.7 -47.5,-9.7 -53.6,-34.4 -53.6,-34.4 0,0 0.3,35.6 41.2,46.6 28.6,7.6 49.5,12 62.8,30.5"
       id="path20"
       inkscape:connector-curvature="0" />
    <path
       d="m 371.4,227.5 -6.4,-19.1 16.2,-11.8 h -20.1 l -6.3,-19.1 -6.1,19.1 -20.1,0.3 16.4,11.6 -6.1,19.2 16.2,-12 z"
       id="path22"
       inkscape:connector-curvature="0" />
    <path
       d="m 299.6,295 -13.3,15.1 -18.5,-8.1 10.3,17.3 -13.4,15 19.6,-4.3 10.2,17.3 1.9,-20 19.7,-4.3 -18.5,-8 z"
       id="path24"
       inkscape:connector-curvature="0" />
    <path
       d="m 393.9,323.4 19.8,4 2.2,20 9.9,-17.5 19.7,4.1 -13.6,-14.9 10,-17.4 -18.3,8.3 -13.6,-14.9 2.3,20 z"
       id="path26"
       inkscape:connector-curvature="0" />
  </g>
</svg>
