<?xml version="1.0" encoding="UTF-8" standalone="no"?>
<svg
   xmlns:dc="http://purl.org/dc/elements/1.1/"
   xmlns:cc="http://creativecommons.org/ns#"
   xmlns:rdf="http://www.w3.org/1999/02/22-rdf-syntax-ns#"
   xmlns:svg="http://www.w3.org/2000/svg"
   xmlns="http://www.w3.org/2000/svg"
   xmlns:sodipodi="http://sodipodi.sourceforge.net/DTD/sodipodi-0.dtd"
   xmlns:inkscape="http://www.inkscape.org/namespaces/inkscape"
   viewBox="0 0 700 699.99999"
   version="1.1"
   id="svg8"
   sodipodi:docname="washington-commanders-logo.svg"
   width="700"
   height="700"
   inkscape:version="0.92.4 (5da689c313, 2019-01-14)"
   inkscape:export-filename="C:\Users\suitedoalex\sites\washington-commanders-logo-0.png"
   inkscape:export-xdpi="561.73712"
   inkscape:export-ydpi="561.73712">
  <metadata
     id="metadata14">
    <rdf:RDF>
      <cc:Work
         rdf:about="">
        <dc:format>image/svg+xml</dc:format>
        <dc:type
           rdf:resource="http://purl.org/dc/dcmitype/StillImage" />
        <dc:title></dc:title>
      </cc:Work>
    </rdf:RDF>
  </metadata>
  <defs
     id="defs12" />
  <sodipodi:namedview
     pagecolor="#ffffff"
     bordercolor="#666666"
     borderopacity="1"
     objecttolerance="10"
     gridtolerance="10"
     guidetolerance="10"
     inkscape:pageopacity="0"
     inkscape:pageshadow="2"
     inkscape:window-width="1600"
     inkscape:window-height="837"
     id="namedview10"
     showgrid="false"
     inkscape:zoom="0.68913043"
     inkscape:cx="292.90164"
     inkscape:cy="434.35254"
     inkscape:window-x="-8"
     inkscape:window-y="-8"
     inkscape:window-maximized="1"
     inkscape:current-layer="svg8" />
  <g
     transform="matrix(1.0757098,0,0,1.0757098,81.07255,81.760466)"
     id="g6"
     inkscape:export-filename="C:\Users\suitedoalex\sites\washington-commanders-logo-4.png"
     inkscape:export-xdpi="77.602951"
     inkscape:export-ydpi="77.602951">
    <path
       d="m 334.104,124 14.704,45.082 -10.94,33.501 L 312.329,124 H 197.846 L 177.311,186.99 156.858,124 H 20 l 42.9932,69.815 58.8958,180.906 h 110.823 l 22.272,-68.388 22.21,68.388 H 398.439 L 480,124 Z M 78.2962,186.722 49.9649,140.73 h 94.7341 l 23.802,73.31 -40.656,124.884 z M 220.49,358.363 h -81.354 l 66.444,-204.109 40.615,125.03 z M 218.774,140.73 h 81.395 l 28.952,88.923 -40.739,125.174 z M 386.135,358.26 H 304.801 L 366.344,169.185 357.08,140.73 h 99.821 z"
       id="path2"
       inkscape:connector-curvature="0"
       style="fill:#ffb612" />
    <path
       d="M 329.058,229.674 288.319,354.849 218.773,140.731 h 81.396 z m 28.021,-88.943 9.223,28.455 -61.542,189.075 h 81.333 l 70.849,-217.53 z m -212.381,0 H 49.9646 l 28.3312,45.991 49.6312,152.203 40.574,-124.885 z m -5.562,217.53 h 81.457 l 25.705,-78.976 -40.718,-125.03 z"
       id="path4"
       inkscape:connector-curvature="0"
       style="fill:#5a1414" />
  </g>
</svg>
